<svg width="416" height="70" viewBox="0 0 416 70" fill="none" xmlns="http://www.w3.org/2000/svg">
<path d="M179.57 43.115C184.642 51.39 190.229 59.4125 195.006 68.4445H179.97C175.332 60.7699 170.494 52.7735 165.63 44.7248H154.771V68.2966H141.388V2.34949C147.105 1.60118 152.848 2.19287 158.565 2.15806C163.481 2.13196 168.441 1.95793 173.313 2.50611C183.459 3.64598 190.551 10.4765 192.195 20.0653C193.892 29.9761 189.994 37.3983 180.492 42.3928C180.248 42.5233 180.048 42.7409 179.587 43.115H179.57ZM154.867 32.7866C160.392 32.7866 165.717 33.0825 171.007 32.6996C175.985 32.3341 178.569 29.2365 178.795 24.4682C179.021 19.6302 176.681 15.6973 172.417 14.9228C166.613 13.87 160.723 14.4008 154.867 14.3399V32.7779V32.7866Z" fill="#0BAB59"/>
<path d="M132.025 35.5864C131.755 55.3557 117.259 69.7999 97.8725 69.6171C78.7469 69.4344 64.7204 54.4247 64.9467 34.3856C65.1642 15.0513 79.6519 0.537566 98.5251 0.755099C117.677 0.972631 132.286 16.1651 132.025 35.5951V35.5864ZM117.868 35.2644C117.955 23.4916 110.69 14.5292 100.022 13.2676C90.7288 12.1625 82.358 18.5579 79.8955 28.634C76.998 40.52 82.1839 52.0927 92.0688 55.7473C93.0085 56.0953 93.9918 56.3737 94.9837 56.5391C107.696 58.697 117.764 49.3257 117.868 35.2644Z" fill="#0BAB59"/>
<path d="M203.228 2.22827H248.414C248.814 6.30048 248.857 10.2509 248.44 14.4449H216.454V28.7933H243.645V40.6097H216.428V56.2546H248.77V68.2711H203.524C202.61 64.8341 202.323 12.4349 203.228 2.23698V2.22827Z" fill="#0BAB59"/>
<path d="M59.8474 18.0532C55.8187 19.9675 52.0597 21.7513 48.0745 23.6482C45.6643 20.0719 43.3671 16.6175 39.382 14.7641C31.5421 11.1357 22.0664 14.0941 17.5591 21.8383C13.6174 28.6079 13.0431 35.9083 15.2707 43.2348C17.533 50.6744 22.2143 55.8778 30.4805 56.7827C38.216 57.6267 43.6804 54.4072 47.944 46.3933C52.2077 47.4288 56.2451 49.1777 60.2564 50.9789C55.81 63.9873 41.8705 71.6271 27.3481 69.1994C10.7286 66.4324 0.104332 53.2325 -8.30533e-05 35.2122C-0.104499 17.1918 10.398 3.95714 27.087 1.05961C40.9308 -1.34195 55.6186 6.09765 59.8474 18.0445V18.0532Z" fill="#0BAB59"/>
<path d="M283.845 2.28906H328.944V14.41H297.402V30.0897H323.767C324.237 34.2663 324.132 38.0601 323.828 42.2454H297.298V68.2361H283.837V2.28906H283.845Z" fill="#0BAB59"/>
<path d="M416.001 2.34937V14.4268H394.726V68.34H381.378V14.6269H360.817C359.982 10.4677 360.53 6.50858 360.373 2.34937H416.001Z" fill="#0BAB59"/>
<path d="M338.315 2.31697C342.692 1.96892 346.965 1.90799 351.489 2.35176V68.2553H338.315V2.31697Z" fill="#0BAB59"/>
</svg>
