<svg width="21" height="16" viewBox="0 0 21 16" fill="none" xmlns="http://www.w3.org/2000/svg">
<path d="M1.26699 7.50317L7.59925 1.2356C7.76983 1.07253 7.99763 0.982983 8.2336 0.986245C8.46956 0.989507 8.6948 1.08532 8.86081 1.25304C9.02682 1.42076 9.12031 1.64697 9.12115 1.88296C9.12199 2.11894 9.03011 2.34581 8.8653 2.51471L4.07721 7.25389L19.9044 7.33513C20.1431 7.33636 20.3715 7.43235 20.5394 7.602C20.7073 7.77164 20.801 8.00105 20.7998 8.23974C20.7985 8.47843 20.7025 8.70686 20.5329 8.87477C20.3633 9.04268 20.1339 9.13633 19.8952 9.1351L4.06797 9.05386L8.80715 13.8419C8.89269 13.9254 8.96074 14.0251 9.00734 14.1351C9.05395 14.2452 9.07817 14.3634 9.07859 14.4829C9.07902 14.6024 9.05564 14.7208 9.00982 14.8312C8.964 14.9415 8.89666 15.0417 8.81172 15.1257C8.72678 15.2098 8.62596 15.2761 8.51512 15.3208C8.40428 15.3655 8.28565 15.3876 8.16616 15.386C8.04667 15.3843 7.9287 15.3589 7.81914 15.3112C7.70958 15.2634 7.61062 15.1944 7.52804 15.108L1.26046 8.77575C1.0926 8.60611 0.998997 8.37675 1.00022 8.1381C1.00145 7.89946 1.0974 7.67107 1.26699 7.50317V7.50317Z" fill="#231F20"/>
</svg>
