<svg width="24" height="25" viewBox="0 0 24 25" fill="none" xmlns="http://www.w3.org/2000/svg">
<g clip-path="url(#clip0_68_6456)">
<path d="M24 7.98047V8.98047H0V7.98047C0 6.65439 0.526784 5.38262 1.46447 4.44493C2.40215 3.50725 3.67392 2.98047 5 2.98047H6V1.98047C6 1.71525 6.10536 1.4609 6.29289 1.27336C6.48043 1.08583 6.73478 0.980469 7 0.980469C7.26522 0.980469 7.51957 1.08583 7.70711 1.27336C7.89464 1.4609 8 1.71525 8 1.98047V2.98047H16V1.98047C16 1.71525 16.1054 1.4609 16.2929 1.27336C16.4804 1.08583 16.7348 0.980469 17 0.980469C17.2652 0.980469 17.5196 1.08583 17.7071 1.27336C17.8946 1.4609 18 1.71525 18 1.98047V2.98047H19C19.6566 2.98047 20.3068 3.1098 20.9134 3.36107C21.52 3.61234 22.0712 3.98064 22.5355 4.44493C22.9998 4.90923 23.3681 5.46042 23.6194 6.06705C23.8707 6.67368 24 7.32386 24 7.98047ZM24 17.9805C24 21.8405 20.859 24.9805 17 24.9805C13.141 24.9805 10 21.8405 10 17.9805C10 14.1205 13.141 10.9805 17 10.9805C20.859 10.9805 24 14.1205 24 17.9805ZM19 18.5665L18 17.5665V15.9805C18 15.7153 17.8946 15.4609 17.7071 15.2734C17.5196 15.0858 17.2652 14.9805 17 14.9805C16.7348 14.9805 16.4804 15.0858 16.2929 15.2734C16.1054 15.4609 16 15.7153 16 15.9805V17.9805C16 18.2455 16.105 18.5005 16.293 18.6875L17.586 19.9805C17.7746 20.1626 18.0272 20.2634 18.2894 20.2611C18.5516 20.2589 18.8024 20.1537 18.9878 19.9683C19.1732 19.7829 19.2784 19.5321 19.2807 19.2699C19.283 19.0077 19.1822 18.7551 19 18.5665ZM8 17.9805C7.99928 16.6375 8.29977 15.3115 8.87936 14.1001C9.45895 12.8886 10.3029 11.8226 11.349 10.9805H0V19.9805C0 20.6371 0.129329 21.2873 0.380602 21.8939C0.631876 22.5005 1.00017 23.0517 1.46447 23.516C2.40215 24.4537 3.67392 24.9805 5 24.9805H11.349C10.3029 24.1384 9.45895 23.0723 8.87936 21.8609C8.29977 20.6494 7.99928 19.3234 8 17.9805Z" fill="#1A9D56"/>
</g>
<defs>
<clipPath id="clip0_68_6456">
<rect width="24" height="24" fill="white" transform="translate(0 0.980469)"/>
</clipPath>
</defs>
</svg>
