<svg width="24" height="24" viewBox="0 0 24 24" fill="none" xmlns="http://www.w3.org/2000/svg">
<g clip-path="url(#clip0_68_4522)">
<path d="M17 10.039C13.141 10.039 10 13.179 10 17.039C10 20.877 13.141 24 17 24C20.859 24 24 20.86 24 17C24 13.162 20.859 10.039 17 10.039ZM17 22C14.243 22 12 19.774 12 17.039C12 14.282 14.243 12.039 17 12.039C19.757 12.039 22 14.265 22 17C22 19.757 19.757 22 17 22ZM18.707 17.293C18.8945 17.4805 18.9998 17.7348 18.9998 18C18.9998 18.2652 18.8945 18.5195 18.707 18.707C18.5195 18.8945 18.2652 18.9998 18 18.9998C17.7348 18.9998 17.4805 18.8945 17.293 18.707L16.293 17.707C16.1054 17.5195 16.0001 17.2652 16 17V15C16 14.7348 16.1054 14.4804 16.2929 14.2929C16.4804 14.1054 16.7348 14 17 14C17.2652 14 17.5196 14.1054 17.7071 14.2929C17.8946 14.4804 18 14.7348 18 15V16.586L18.707 17.293ZM24 7V9C24 9.26522 23.8946 9.51957 23.7071 9.70711C23.5196 9.89464 23.2652 10 23 10C22.7348 10 22.4804 9.89464 22.2929 9.70711C22.1054 9.51957 22 9.26522 22 9V7C22 5.346 20.654 4 19 4H5C3.346 4 2 5.346 2 7V8H11C11.2652 8 11.5196 8.10536 11.7071 8.29289C11.8946 8.48043 12 8.73478 12 9C12 9.26522 11.8946 9.51957 11.7071 9.70711C11.5196 9.89464 11.2652 10 11 10H2V19C2 20.654 3.346 22 5 22H9C9.26522 22 9.51957 22.1054 9.70711 22.2929C9.89464 22.4804 10 22.7348 10 23C10 23.2652 9.89464 23.5196 9.70711 23.7071C9.51957 23.8946 9.26522 24 9 24H5C2.243 24 0 21.757 0 19V7C0 4.243 2.243 2 5 2H6V1C6 0.734784 6.10536 0.48043 6.29289 0.292893C6.48043 0.105357 6.73478 0 7 0C7.26522 0 7.51957 0.105357 7.70711 0.292893C7.89464 0.48043 8 0.734784 8 1V2H16V1C16 0.734784 16.1054 0.48043 16.2929 0.292893C16.4804 0.105357 16.7348 0 17 0C17.2652 0 17.5196 0.105357 17.7071 0.292893C17.8946 0.48043 18 0.734784 18 1V2H19C21.757 2 24 4.243 24 7Z" fill="#777777"/>
</g>
<defs>
<clipPath id="clip0_68_4522">
<rect width="24" height="24" fill="white"/>
</clipPath>
</defs>
</svg>
