<svg width="408" height="413" viewBox="0 0 408 413" fill="none" xmlns="http://www.w3.org/2000/svg">
<path d="M0 204C0 91.3339 91.3339 0 204 0V0C316.666 0 408 91.3339 408 204V209C408 321.666 316.666 413 204 413V413C91.3339 413 0 321.666 0 209V204Z" fill="#0BAB59"/>
<path d="M49.5503 103.984C105.293 116.96 156.633 139.638 203.947 172.056C251.159 138.469 303.59 116.4 360.388 102.979C358.874 104.774 357.04 105.183 355.446 105.944C312.23 126.598 272.45 152.234 236.761 184.077C222.385 196.909 212.223 212.605 202.2 228.552C180.661 262.821 156.371 294.937 126.468 322.661C119.226 329.378 111.903 336.002 103.401 341.564C104.303 340.351 105.228 339.16 106.101 337.933C132.714 300.205 156.727 260.998 175.202 218.683C178.514 211.105 181.316 203.354 182.233 194.749C162.9 176.032 141.762 159.332 119.24 144.303C96.9007 129.397 73.6513 116.013 49.5649 103.984H49.5503Z" fill="white"/>
<path d="M301.967 340.789C289.956 331.833 279.03 321.67 268.308 311.285C255.14 298.532 243.021 284.875 231.738 270.485C231.301 269.933 230.807 269.423 230.02 268.526C216.241 280.296 202.906 292.403 188.195 302.91C173.44 313.446 158.001 322.783 141.856 331.115C141.201 330.117 141.995 329.694 142.446 329.292C174.183 301.102 200.977 268.878 223.891 233.367C239.709 208.858 260.345 188.448 282.284 169.293C301.69 152.356 322.909 137.923 345.445 125.356C349.31 123.203 353.372 121.373 357.688 119.794C312.922 156.26 275.471 198.825 245.379 247.95C250.198 257.639 255.796 266.854 261.197 276.177C273.353 297.154 286.506 317.508 300.693 337.201C301.384 338.162 301.908 339.253 302.513 340.28L301.959 340.796L301.967 340.789Z" fill="white" fill-opacity="0.5"/>
<path d="M168.694 104.664C168.731 85.1864 184.308 69.9285 204.092 70.0003C223.265 70.072 238.784 85.8323 238.697 105.152C238.61 124.049 222.77 139.723 203.779 139.716C184.264 139.708 168.665 124.12 168.694 104.664Z" fill="white"/>
<path d="M156.305 237.07C125.726 192.904 90.8956 153.718 50.0818 119.772C94.6807 141.496 131.942 172.371 165.208 208.585C162.296 217.836 158.955 226.785 156.298 237.062L156.305 237.07Z" fill="white" fill-opacity="0.5"/>
<path d="M302.52 340.269C302.695 340.563 302.869 340.857 303.044 341.152L302.818 341.374C302.535 341.173 302.251 340.979 301.967 340.778C302.149 340.606 302.338 340.434 302.52 340.262V340.269Z" fill="#0BAB59" fill-opacity="0.15"/>
<path d="M303.051 341.153C303.19 341.297 303.335 341.447 303.474 341.591C303.066 342.05 302.979 341.612 302.826 341.376L303.051 341.153Z" fill="#0BAB59" fill-opacity="0.15"/>
</svg>
