<svg width="16" height="16" viewBox="0 0 16 16" fill="none" xmlns="http://www.w3.org/2000/svg">
<rect width="16" height="16" rx="8" fill="#231F20"/>
<g clip-path="url(#clip0_68_3322)">
<path d="M6.35143 10.0118C8.37295 10.0118 10.0115 8.37295 10.0115 6.35143C10.0115 5.45569 9.68878 4.63627 9.15471 4C10.8048 4.52971 11.9997 6.07531 11.9997 7.90138C11.9997 10.165 10.165 11.9997 7.90138 11.9997C6.07531 11.9997 4.52971 10.8048 4 9.15471C4.63627 9.68904 5.45594 10.0118 6.35143 10.0118Z" fill="#FFD93B"/>
<path d="M10.4341 4.68359C10.9822 5.38006 11.3116 6.25685 11.3116 7.21228C11.3116 9.47586 9.47683 11.3106 7.21326 11.3106C6.25783 11.3106 5.38104 10.9812 4.68457 10.4331C5.43457 11.3852 6.59518 11.9987 7.90127 11.9987C10.1648 11.9987 11.9996 10.1639 11.9996 7.90029C11.9996 6.5942 11.3862 5.43385 10.4341 4.68359Z" fill="#F4C534"/>
<path d="M6.05112 5.59999L6.47325 6.45578L7.41741 6.59282L6.73426 7.25881L6.89538 8.19912L6.05112 7.75522L5.2066 8.19912L5.36772 7.25881L4.68457 6.59282L5.62873 6.45578L6.05112 5.59999ZM8.43227 5.32617L8.65102 5.76982L9.14051 5.84077L8.78626 6.18606L8.87002 6.67325L8.43227 6.44323L7.99451 6.67325L8.07827 6.18606L7.72402 5.84077L8.21352 5.76982L8.43227 5.32617Z" fill="#FFD83B"/>
</g>
<defs>
<clipPath id="clip0_68_3322">
<rect width="8" height="8" fill="white" transform="translate(4 4)"/>
</clipPath>
</defs>
</svg>
