<svg width="20" height="20" viewBox="0 0 20 20" fill="none" xmlns="http://www.w3.org/2000/svg">
<path d="M18.4134 2.84328C17.3781 1.72014 15.9575 1.10156 14.413 1.10156C13.2585 1.10156 12.2012 1.46663 11.2705 2.18655C10.8008 2.54994 10.3752 2.99453 10 3.51344C9.62494 2.99468 9.19922 2.54994 8.7294 2.18655C7.79877 1.46663 6.74149 1.10156 5.58701 1.10156C4.04251 1.10156 2.62176 1.72014 1.58646 2.84328C0.563508 3.9533 0 5.46975 0 7.11349C0 8.80531 0.63034 10.354 1.98365 11.9873C3.19428 13.4484 4.93424 14.9315 6.94916 16.649C7.63718 17.2355 8.41705 17.9004 9.22684 18.6085C9.44077 18.7959 9.71528 18.8991 10 18.8991C10.2846 18.8991 10.5592 18.7959 10.7729 18.6088C11.5826 17.9005 12.363 17.2354 13.0513 16.6486C15.0659 14.9314 16.8059 13.4484 18.0165 11.9872C19.3698 10.354 20 8.8053 20 7.11334C20 5.46976 19.4365 3.95331 18.4134 2.84329L18.4134 2.84328Z" fill="#231F20"/>
</svg>
