<svg width="33" height="32" viewBox="0 0 33 32" fill="none" xmlns="http://www.w3.org/2000/svg">
<g clip-path="url(#clip0_4024_243)">
<path d="M16.75 2.71265L7.97803 8.78021V12.7361C7.97803 20.6399 13.138 23.7359 13.138 23.7359H16.75V2.71265Z" fill="#A46A5A"/>
<path d="M19.3007 19.9932L13.6542 19.9594V21.2518C13.6542 21.6788 13.5217 22.0953 13.2751 22.4439C13.0285 22.7925 12.6798 23.056 12.2771 23.1981L11.1165 23.6077L11.0474 27.1063H22.9334L19.3007 19.9932Z" fill="#FBBD80"/>
<path d="M19.846 21.2517V18.0598H13.6541V19.9593C13.8914 20.0659 14.1327 20.1654 14.3822 20.2488C15.6471 20.6716 16.8594 20.7248 17.9906 20.5356C18.4239 20.4632 18.8141 20.8129 18.8141 21.2522C18.8141 22.5648 19.6418 23.7346 20.8796 24.1714L21.2231 23.198C20.8204 23.0559 20.4717 22.7924 20.2251 22.4438C19.9784 22.0952 19.846 21.6787 19.846 21.2517Z" fill="#F4AA73"/>
<path d="M26.0485 25.423L23.2101 24.6085L17.373 27.595L9.07952 24.3267L6.94764 25.0791C5.70983 25.516 4.88208 26.6859 4.88208 27.9985V30.4521C4.88208 31.307 5.57514 32.0001 6.43008 32.0001H27.07C27.2509 32.0001 27.4246 31.9691 27.586 31.9121L28.1141 30.9371V28.1108C28.1141 26.7982 27.2863 25.8598 26.0485 25.423Z" fill="#FBF4DB"/>
<path d="M26.5525 25.079L22.3837 23.6077C21.0598 25.2572 19.0298 26.3158 16.7501 26.3158C14.4703 26.3158 12.4404 25.2572 11.1165 23.6077L9.07959 24.3265C10.7523 26.7729 13.5628 28.3798 16.7501 28.3798C19.5468 28.3798 22.0533 27.1424 23.7557 25.1864L26.2088 26.052C26.6115 26.1941 26.9602 26.4576 27.2069 26.8062C27.4535 27.1548 27.586 27.5713 27.586 27.9984V31.912C28.1858 31.6987 28.618 31.125 28.618 30.452V27.9985C28.618 26.6859 27.7903 25.5159 26.5525 25.079Z" fill="#F8EBCC"/>
<path d="M19.8459 14.6854V21.6801C19.8459 26.2363 23.4579 27.872 23.4579 32L23.9974 31.0701V14.6854H19.8459Z" fill="#C6805D"/>
<path d="M25.4995 8.17962L21.9099 7.73999V21.6802C21.9099 23.4391 22.2227 24.6459 22.5849 26.0432C22.9942 27.6219 23.4579 29.4116 23.4579 32L23.5224 32.0001L25.5219 31.9971V8.77193C25.5218 8.57062 25.5144 8.37699 25.4995 8.17962Z" fill="#A46A5A"/>
<path d="M11.074 5.6759V9.2879C11.074 10.1428 10.381 10.8359 9.52602 10.8359H9.34158C8.66683 10.8359 8.05189 11.3214 7.9847 11.9928C7.90739 12.7649 8.51164 13.4158 9.26802 13.4158H10.0681C10.306 16.5323 12.6683 19.0546 15.712 19.5279C15.712 19.5279 22.3684 19.559 22.3684 13.036V5.6759H11.074Z" fill="#FFD18D"/>
<path d="M24.1584 10.8359H23.974C23.1191 10.8359 22.426 10.1428 22.426 9.2879V5.6759H12.6802C14.7244 7.46422 17.3022 8.67709 20.0901 9.1694C20.8391 9.30165 21.394 9.93578 21.394 10.6963V12.8998C21.394 16.2538 18.9271 19.0318 15.7121 19.5279C16.0502 19.5805 16.3971 19.6078 16.7501 19.6078C20.2806 19.6078 23.1676 16.8786 23.4319 13.4158H24.232C24.9884 13.4158 25.5926 12.7649 25.5153 11.9928C25.448 11.3214 24.8332 10.8359 24.1584 10.8359Z" fill="#FBBD80"/>
<path d="M16.75 16.0042C15.976 16.0042 15.2615 15.7557 14.8397 15.3395C14.6367 15.1395 14.6347 14.8127 14.8347 14.6099C15.0347 14.4069 15.3622 14.4049 15.5643 14.6049C15.7361 14.7744 16.1499 14.9722 16.75 14.9722C17.3501 14.9722 17.7639 14.7744 17.9357 14.6049C18.1377 14.4048 18.4653 14.4068 18.6653 14.6099C18.8654 14.8127 18.8634 15.1395 18.6602 15.3395C18.2385 15.7557 17.524 16.0042 16.75 16.0042Z" fill="#F4AA73"/>
<path d="M13.6539 12.3922C13.5862 12.3923 13.5191 12.3789 13.4565 12.353C13.3938 12.3271 13.337 12.2891 13.289 12.2411C13.2411 12.1932 13.2031 12.1363 13.1772 12.0737C13.1513 12.0111 13.1379 11.944 13.1379 11.8762V11.3602C13.1379 11.0753 13.3688 10.8442 13.6539 10.8442C13.9391 10.8442 14.1699 11.0753 14.1699 11.3602V11.8762C14.17 11.944 14.1566 12.0111 14.1307 12.0737C14.1048 12.1363 14.0668 12.1932 14.0188 12.2411C13.9709 12.2891 13.914 12.3271 13.8514 12.353C13.7888 12.3789 13.7217 12.3923 13.6539 12.3922ZM19.8459 12.3922C19.7782 12.3923 19.7111 12.3789 19.6485 12.353C19.5858 12.3271 19.529 12.2891 19.481 12.2411C19.4331 12.1932 19.3951 12.1363 19.3692 12.0737C19.3433 12.0111 19.3299 11.944 19.3299 11.8762V11.3602C19.3299 11.0753 19.5608 10.8442 19.8459 10.8442C20.1311 10.8442 20.3619 11.0753 20.3619 11.3602V11.8762C20.362 11.944 20.3486 12.0111 20.3227 12.0737C20.2968 12.1363 20.2588 12.1932 20.2108 12.2411C20.1629 12.2891 20.106 12.3271 20.0434 12.353C19.9808 12.3789 19.9137 12.3923 19.8459 12.3922Z" fill="#845252"/>
<path d="M13.1374 10.3283C12.8814 10.3283 12.6592 10.138 12.626 9.87776C12.5902 9.59507 12.7897 9.33657 13.0724 9.30051L14.2319 9.15238C14.5171 9.11457 14.7731 9.31638 14.8094 9.59857C14.8452 9.88126 14.6457 10.1398 14.363 10.1758L13.2035 10.3239C13.1816 10.3269 13.1595 10.3283 13.1374 10.3283ZM20.3624 10.3283C20.3407 10.3283 20.3186 10.327 20.2964 10.3239L19.1369 10.1758C18.8542 10.1398 18.6547 9.88132 18.6905 9.59857C18.7268 9.31638 18.9863 9.11532 19.268 9.15238L20.4275 9.30051C20.7102 9.33651 20.9097 9.59507 20.8739 9.87776C20.8406 10.138 20.6183 10.3283 20.3624 10.3283Z" fill="#A46A5A"/>
<path d="M7.97803 8.78016V8.78253C10.8613 8.71834 13.3434 7.57772 15.0252 5.90378L10.9978 2.16797C9.15084 3.77603 7.97803 6.13878 7.97803 8.78016Z" fill="#C6805D"/>
<path d="M25.1103 6.14098L13.6752 0.56604C12.6857 0.93879 11.7813 1.48567 10.9978 2.16785C13.3679 5.89542 17.799 8.40767 22.8816 8.40767C23.7592 8.40721 24.6351 8.33089 25.4995 8.17954C25.4522 7.47398 25.3142 6.79117 25.1103 6.14098Z" fill="#A46A5A"/>
<path d="M23.035 6.34363C23.7314 6.34363 24.4359 6.27438 25.1104 6.141C23.993 2.58469 20.6755 0 16.75 0V0.00825C15.6672 0.00825 14.6315 0.205875 13.6753 0.566125C15.4025 4.08044 19.0471 6.34363 23.035 6.34363Z" fill="#845252"/>
</g>
<defs>
<clipPath id="clip0_4024_243">
<rect width="32" height="32" fill="white" transform="translate(0.75)"/>
</clipPath>
</defs>
</svg>
