<svg width="24" height="24" viewBox="0 0 24 24" fill="none" xmlns="http://www.w3.org/2000/svg">
<path d="M11.9998 14.6875C10.5124 14.6875 9.30664 15.8933 9.30664 17.3807V22.767H14.693V17.3807C14.693 15.8933 13.4872 14.6875 11.9998 14.6875Z" fill="#1A9D56"/>
<path d="M16.4889 17.38V22.7664H20.0798C21.5672 22.7664 22.773 21.5606 22.773 20.0732V11.8851C22.7732 11.4187 22.592 10.9705 22.2676 10.6354L14.6387 2.38799C13.2926 0.931569 11.0207 0.842147 9.56433 2.18823C9.49514 2.2522 9.42849 2.31881 9.36457 2.38799L1.74913 10.6327C1.41493 10.9692 1.22741 11.4243 1.22754 11.8985V20.0732C1.22754 21.5606 2.43333 22.7664 3.92072 22.7664H7.51162V17.38C7.52841 14.9321 9.50482 12.9331 11.8911 12.8755C14.3572 12.816 16.4701 14.8491 16.4889 17.38Z" fill="#1A9D56"/>
<path d="M11.9998 14.6875C10.5124 14.6875 9.30664 15.8933 9.30664 17.3807V22.767H14.693V17.3807C14.693 15.8933 13.4872 14.6875 11.9998 14.6875Z" fill="#1A9D56"/>
</svg>
