<svg width="24" height="24" viewBox="0 0 24 24" fill="none" xmlns="http://www.w3.org/2000/svg">
<path d="M23.121 9.04958L15.536 1.46358C14.5973 0.527568 13.3257 0.00195313 12 0.00195312C10.6743 0.00195313 9.40277 0.527568 8.46401 1.46358L0.879012 9.04958C0.599437 9.32736 0.377782 9.65788 0.226895 10.022C0.0760072 10.3861 -0.0011104 10.7765 1.20795e-05 11.1706V20.9876C1.20795e-05 21.7832 0.316083 22.5463 0.878692 23.1089C1.4413 23.6715 2.20436 23.9876 3.00001 23.9876H21C21.7957 23.9876 22.5587 23.6715 23.1213 23.1089C23.6839 22.5463 24 21.7832 24 20.9876V11.1706C24.0011 10.7765 23.924 10.3861 23.7731 10.022C23.6222 9.65788 23.4006 9.32736 23.121 9.04958ZM15 21.9876H9.00001V18.0536C9.00001 17.2579 9.31608 16.4949 9.87869 15.9323C10.4413 15.3696 11.2044 15.0536 12 15.0536C12.7957 15.0536 13.5587 15.3696 14.1213 15.9323C14.6839 16.4949 15 17.2579 15 18.0536V21.9876ZM22 20.9876C22 21.2528 21.8947 21.5072 21.7071 21.6947C21.5196 21.8822 21.2652 21.9876 21 21.9876H17V18.0536C17 16.7275 16.4732 15.4557 15.5355 14.518C14.5979 13.5804 13.3261 13.0536 12 13.0536C10.6739 13.0536 9.40216 13.5804 8.46448 14.518C7.5268 15.4557 7.00001 16.7275 7.00001 18.0536V21.9876H3.00001C2.7348 21.9876 2.48044 21.8822 2.29291 21.6947C2.10537 21.5072 2.00001 21.2528 2.00001 20.9876V11.1706C2.00094 10.9056 2.1062 10.6516 2.29301 10.4636L9.87801 2.88058C10.4417 2.31951 11.2047 2.00452 12 2.00452C12.7953 2.00452 13.5583 2.31951 14.122 2.88058L21.707 10.4666C21.8931 10.6538 21.9983 10.9066 22 11.1706V20.9876Z" fill="#777777"/>
</svg>
