<svg width="479" height="513" viewBox="0 0 479 513" fill="none" xmlns="http://www.w3.org/2000/svg">
<g clip-path="url(#clip0_659_18)">
<path d="M27.3398 47.3531C103.92 65.4331 174.45 97.0331 239.45 142.203C304.31 95.4031 376.34 64.6531 454.37 45.9531C452.29 48.4531 449.77 49.0231 447.58 50.0831C388.21 78.8631 333.56 114.583 284.53 158.953C264.78 176.833 250.82 198.703 237.05 220.923C207.46 268.673 174.09 313.423 133.01 352.053C123.06 361.413 113 370.643 101.32 378.393C102.56 376.703 103.83 375.043 105.03 373.333C141.59 320.763 174.58 266.133 199.96 207.173C204.51 196.613 208.36 185.813 209.62 173.823C183.06 147.743 154.02 124.473 123.08 103.533C92.3898 82.7631 60.4498 64.1131 27.3598 47.3531H27.3398Z" fill="#0BAB59"/>
<path d="M374.11 377.313C357.61 364.833 342.6 350.673 327.87 336.203C309.78 318.433 293.13 299.403 277.63 279.353C277.03 278.583 276.35 277.873 275.27 276.623C256.34 293.023 238.02 309.893 217.81 324.533C197.54 339.213 176.33 352.223 154.15 363.833C153.25 362.443 154.34 361.853 154.96 361.293C198.56 322.013 235.37 277.113 266.85 227.633C288.58 193.483 316.93 165.043 347.07 138.353C373.73 114.753 402.88 94.6428 433.84 77.1328C439.15 74.1328 444.73 71.5828 450.66 69.3828C389.16 120.193 337.71 179.503 296.37 247.953C302.99 261.453 310.68 274.293 318.1 287.283C334.8 316.513 352.87 344.873 372.36 372.313C373.31 373.653 374.03 375.173 374.86 376.603L374.1 377.323L374.11 377.313Z" fill="#0BAB59" fill-opacity="0.15"/>
<path d="M191.02 48.3004C191.07 21.1604 212.47 -0.0996487 239.65 0.000351322C265.99 0.100351 287.31 22.0604 287.19 48.9804C287.07 75.3104 265.31 97.1504 239.22 97.1404C212.41 97.1304 190.98 75.4104 191.02 48.3004Z" fill="#0BAB59"/>
<path d="M174 232.792C131.99 171.252 84.1398 116.652 28.0698 69.3516C89.3398 99.6216 140.53 142.642 186.23 193.102C182.23 205.992 177.64 218.462 173.99 232.782L174 232.792Z" fill="#0BAB59" fill-opacity="0.15"/>
<path d="M206.37 481.67C212.2 491.18 218.62 500.4 224.11 510.78H206.83C201.5 501.96 195.94 492.77 190.35 483.52H177.87V510.61H162.49V434.82C169.06 433.96 175.66 434.64 182.23 434.6C187.88 434.57 193.58 434.37 199.18 435C210.84 436.31 218.99 444.16 220.88 455.18C222.83 466.57 218.35 475.1 207.43 480.84C207.15 480.99 206.92 481.24 206.39 481.67H206.37ZM177.98 469.8C184.33 469.8 190.45 470.14 196.53 469.7C202.25 469.28 205.22 465.72 205.48 460.24C205.74 454.68 203.05 450.16 198.15 449.27C191.48 448.06 184.71 448.67 177.98 448.6V469.79V469.8Z" fill="#0BAB59"/>
<path d="M151.73 473.017C151.42 495.737 134.76 512.337 112.48 512.127C90.4998 511.917 74.3798 494.667 74.6398 471.637C74.8898 449.417 91.5398 432.737 113.23 432.987C135.24 433.237 152.03 450.697 151.73 473.027V473.017ZM135.46 472.647C135.56 459.117 127.21 448.817 114.95 447.367C104.27 446.097 94.6498 453.447 91.8198 465.027C88.4898 478.687 94.4498 491.987 105.81 496.187C106.89 496.587 108.02 496.907 109.16 497.097C123.77 499.577 135.34 488.807 135.46 472.647Z" fill="#0BAB59"/>
<path d="M233.56 434.68H285.49C285.95 439.36 286 443.9 285.52 448.72H248.76V465.21H280.01V478.79H248.73V496.77H285.9V510.58H233.9C232.85 506.63 232.52 446.41 233.56 434.69V434.68Z" fill="#0BAB59"/>
<path d="M68.7799 452.867C64.1499 455.067 59.8299 457.117 55.2499 459.297C52.4799 455.187 49.8399 451.217 45.2599 449.087C36.2499 444.917 25.3599 448.317 20.1799 457.217C15.6499 464.997 14.9899 473.387 17.5499 481.807C20.1499 490.357 25.5299 496.337 35.0299 497.377C43.9199 498.347 50.1999 494.647 55.0999 485.437C59.9999 486.627 64.6399 488.637 69.2499 490.707C64.1399 505.657 48.1199 514.437 31.4299 511.647C12.3299 508.467 0.11991 493.297 -8.99836e-05 472.587C-0.12009 451.877 11.9499 436.667 31.1299 433.337C47.0399 430.577 63.9199 439.127 68.7799 452.857V452.867Z" fill="#0BAB59"/>
<path d="M326.21 434.75H378.04V448.68H341.79V466.7H372.09C372.63 471.5 372.51 475.86 372.16 480.67H341.67V510.54H326.2V434.75H326.21Z" fill="#0BAB59"/>
<path d="M478.09 434.82V448.7H453.64V510.66H438.3V448.93H414.67C413.71 444.15 414.34 439.6 414.16 434.82H478.09Z" fill="#0BAB59"/>
<path d="M388.81 434.782C393.84 434.382 398.75 434.312 403.95 434.822V510.562H388.81V434.782Z" fill="#0BAB59"/>
<path d="M374.87 376.588C375.11 376.998 375.35 377.408 375.59 377.818L375.28 378.128C374.89 377.848 374.5 377.578 374.11 377.298C374.36 377.058 374.62 376.818 374.87 376.578V376.588Z" fill="#0BAB59" fill-opacity="0.15"/>
<path d="M375.6 377.82C375.79 378.02 375.99 378.23 376.18 378.43C375.62 379.07 375.5 378.46 375.29 378.13L375.6 377.82Z" fill="#0BAB59" fill-opacity="0.15"/>
</g>
<defs>
<clipPath id="clip0_659_18">
<rect width="478.09" height="512.16" fill="white"/>
</clipPath>
</defs>
</svg>
