<svg width="430" height="379" viewBox="0 0 430 379" fill="none" xmlns="http://www.w3.org/2000/svg">
<path d="M2.12988 47.3531C78.7099 65.4331 149.24 97.0331 214.24 142.203C279.1 95.4031 351.13 64.6531 429.16 45.9531C427.08 48.4531 424.56 49.0231 422.37 50.0831C363 78.8631 308.35 114.583 259.32 158.953C239.57 176.833 225.61 198.703 211.84 220.923C182.25 268.673 148.88 313.423 107.8 352.053C97.8499 361.413 87.7899 370.643 76.1099 378.393C77.3499 376.703 78.6199 375.043 79.8199 373.333C116.38 320.763 149.37 266.133 174.75 207.173C179.3 196.613 183.15 185.813 184.41 173.823C157.85 147.743 128.81 124.473 97.8699 103.533C67.1799 82.7631 35.2399 64.1131 2.14988 47.3531H2.12988Z" fill="#0BAB59"/>
<path d="M348.9 377.313C332.4 364.833 317.39 350.673 302.66 336.203C284.57 318.433 267.92 299.403 252.42 279.353C251.82 278.583 251.14 277.873 250.06 276.623C231.13 293.023 212.81 309.893 192.6 324.533C172.33 339.213 151.12 352.223 128.94 363.833C128.04 362.443 129.13 361.853 129.75 361.293C173.35 322.013 210.16 277.113 241.64 227.633C263.37 193.483 291.72 165.043 321.86 138.353C348.52 114.753 377.67 94.6428 408.63 77.1328C413.94 74.1328 419.52 71.5828 425.45 69.3828C363.95 120.193 312.5 179.503 271.16 247.953C277.78 261.453 285.47 274.293 292.89 287.283C309.59 316.513 327.66 344.873 347.15 372.313C348.1 373.653 348.82 375.173 349.65 376.603L348.89 377.323L348.9 377.313Z" fill="#0BAB59" fill-opacity="0.15"/>
<path d="M165.81 48.3004C165.86 21.1604 187.26 -0.0996487 214.44 0.000351322C240.78 0.100351 262.1 22.0604 261.98 48.9804C261.86 75.3104 240.1 97.1504 214.01 97.1404C187.2 97.1304 165.77 75.4104 165.81 48.3004Z" fill="#0BAB59"/>
<path d="M148.79 232.792C106.78 171.252 58.9299 116.652 2.85986 69.3516C64.1299 99.6216 115.32 142.642 161.02 193.102C157.02 205.992 152.43 218.462 148.78 232.782L148.79 232.792Z" fill="#0BAB59" fill-opacity="0.15"/>
<path d="M349.66 376.588C349.9 376.998 350.14 377.408 350.38 377.818L350.07 378.128C349.68 377.848 349.29 377.578 348.9 377.298C349.15 377.058 349.41 376.818 349.66 376.578V376.588Z" fill="#0BAB59" fill-opacity="0.15"/>
<path d="M350.39 377.82C350.58 378.02 350.78 378.23 350.97 378.43C350.41 379.07 350.29 378.46 350.08 378.13L350.39 377.82Z" fill="#0BAB59" fill-opacity="0.15"/>
</svg>
