<svg width="33" height="32" viewBox="0 0 33 32" fill="none" xmlns="http://www.w3.org/2000/svg">
<path d="M24.573 6.31157L23.947 12.5716H21.3066V5.76514L24.573 6.31157Z" fill="#845252"/>
<path d="M17.5992 20.7803H12.6371V21.681C12.6371 22.5968 12.0337 23.4033 11.1551 23.6616L10.4253 23.8763L10.0557 24.8183C11.5298 26.5994 13.7574 27.7341 16.25 27.7341C18.644 27.7341 20.7932 26.6869 22.2656 25.026L17.5992 20.7803Z" fill="#FCDBB2"/>
<path d="M22.0745 23.8763L21.3447 23.6617C20.4661 23.4032 19.8627 22.5969 19.8627 21.6811V19.0968H12.637V20.7803C13.716 21.3511 14.9442 21.6774 16.2498 21.6774C16.6339 21.6774 17.0103 21.6469 17.3783 21.5905C17.8258 21.5219 18.2786 21.6623 18.6029 21.9781C18.7655 22.1364 18.8968 22.3282 18.9609 22.5458C19.253 23.5379 20.0306 24.3512 21.0533 24.652L22.1917 24.9867L22.0745 23.8763Z" fill="#F5C89D"/>
<path d="M21.0811 9.16055L13.9344 6.51611H13.1532C11.7279 6.51611 10.5726 7.67149 10.5726 9.0968V10.8387C10.5726 11.4089 10.1104 11.871 9.54032 11.871H8.83976C8.16482 11.871 7.54976 12.3566 7.48251 13.0282C7.40519 13.8006 8.00963 14.4516 8.76613 14.4516H9.56638C9.80438 17.5698 12.1686 20.0933 15.2144 20.5657C15.2144 20.5657 15.8995 20.5779 16.25 20.5429C19.8594 20.1832 21.733 17.9153 21.9974 14.4516L21.0811 9.16055Z" fill="#FFEAC6"/>
<path d="M23.6601 11.8709H22.9595C22.3894 11.8709 21.9273 11.4087 21.9273 10.8387V6.51611H13.9343C14.4706 7.83961 15.7663 8.77417 17.2821 8.77417C17.4253 8.77417 17.5665 8.76561 17.7053 8.74911C18.1021 8.70193 18.4957 8.79311 18.8273 9.01611C19.2405 9.29415 19.6959 9.5036 20.1759 9.63636C20.6093 9.75611 20.895 10.171 20.895 10.6206V13.9355C20.895 17.2903 18.4301 20.0694 15.2143 20.5657C15.5525 20.6182 15.8968 20.6452 16.2498 20.6452C19.7813 20.6452 22.6691 17.9153 22.9335 14.4516H23.7337C24.4903 14.4516 25.0947 13.8006 25.0173 13.0282C24.9501 12.3566 24.3351 11.8709 23.6601 11.8709Z" fill="#FCDBB2"/>
<path d="M13.1531 13.4193C13.0853 13.4194 13.0182 13.406 12.9556 13.3801C12.8929 13.3542 12.836 13.3161 12.7881 13.2682C12.7402 13.2203 12.7021 13.1634 12.6762 13.1008C12.6503 13.0381 12.6369 12.971 12.637 12.9032V12.3871C12.637 12.1021 12.8678 11.871 13.1531 11.871C13.4383 11.871 13.6692 12.1021 13.6692 12.3871V12.9032C13.6692 12.971 13.6559 13.0381 13.63 13.1008C13.604 13.1634 13.566 13.2203 13.5181 13.2682C13.4701 13.3161 13.4132 13.3542 13.3506 13.3801C13.288 13.406 13.2209 13.4194 13.1531 13.4193ZM19.3466 13.4193C19.2788 13.4194 19.2117 13.406 19.1491 13.3801C19.0864 13.3542 19.0295 13.3161 18.9816 13.2682C18.9337 13.2203 18.8956 13.1634 18.8697 13.1008C18.8438 13.0381 18.8304 12.971 18.8305 12.9032V12.3871C18.8304 12.3193 18.8438 12.2522 18.8697 12.1896C18.8956 12.1269 18.9337 12.07 18.9816 12.0221C19.0295 11.9742 19.0864 11.9362 19.1491 11.9102C19.2117 11.8843 19.2788 11.871 19.3466 11.871C19.4144 11.871 19.4815 11.8843 19.5441 11.9102C19.6067 11.9362 19.6637 11.9742 19.7116 12.0221C19.7595 12.07 19.7975 12.1269 19.8235 12.1896C19.8494 12.2522 19.8627 12.3193 19.8627 12.3871V12.9032C19.8627 12.971 19.8494 13.0381 19.8235 13.1008C19.7975 13.1634 19.7595 13.2203 19.7116 13.2682C19.6637 13.3161 19.6067 13.3542 19.5441 13.3801C19.4815 13.406 19.4144 13.4194 19.3466 13.4193Z" fill="#845252"/>
<path d="M16.2499 17.0323C15.4757 17.0323 14.7609 16.7838 14.339 16.3675C14.1359 16.1673 14.1339 15.8405 14.334 15.6376C14.5341 15.4345 14.8617 15.4325 15.0638 15.6326C15.2357 15.8022 15.6495 16 16.2498 16C16.8501 16 17.2639 15.8022 17.4358 15.6326C17.6379 15.4325 17.9655 15.4345 18.1656 15.6376C18.3657 15.8405 18.3637 16.1674 18.1605 16.3675C17.7388 16.7838 17.024 17.0323 16.2499 17.0323Z" fill="#F5C89D"/>
<path d="M12.6366 11.3549C12.3805 11.3549 12.1583 11.1646 12.125 10.9042C12.0892 10.6215 12.2888 10.3629 12.5716 10.3269L13.7313 10.1787C14.0156 10.1406 14.2726 10.3427 14.3089 10.625C14.3448 10.9077 14.1451 11.1663 13.8624 11.2024L12.7026 11.3506C12.6807 11.3535 12.6587 11.3549 12.6366 11.3549ZM19.8634 11.3549C19.8418 11.3549 19.8196 11.3536 19.7974 11.3506L18.6377 11.2024C18.3549 11.1663 18.1553 10.9077 18.1911 10.625C18.2274 10.3427 18.486 10.1414 18.7688 10.1787L19.9285 10.3269C20.2113 10.3629 20.4109 10.6215 20.3751 10.9042C20.3418 11.1646 20.1194 11.3549 19.8634 11.3549Z" fill="#A46A5A"/>
<path d="M21.8849 1.58369C21.7356 1.56413 21.607 1.4825 21.5179 1.36106C21.1434 0.850563 20.5448 0.516125 19.8629 0.516125C19.5594 0.515838 19.2597 0.583044 18.9854 0.712875C18.8092 0.796188 18.6005 0.770062 18.4542 0.641437C18.0024 0.244375 17.415 0 16.766 0C15.9307 0 15.1952 0.40125 14.7258 1.01813C14.5777 1.21269 14.3236 1.26675 14.0984 1.17169C13.881 1.0796 13.6473 1.03218 13.4112 1.03225C12.9164 1.03225 12.5321 1.25119 12.2977 1.43369C12.0893 1.596 11.8494 1.71525 11.5979 1.79606C9.34979 2.518 7.79442 4.73519 8.04323 7.22325L8.50798 11.9154C8.61579 11.8893 8.72611 11.871 8.83961 11.871H9.54023C10.1104 11.871 10.5725 11.4088 10.5725 10.8387V9.09681C10.5725 7.67156 11.7279 6.51619 13.1531 6.51619H14.5829C14.8863 6.51619 15.1665 6.65656 15.3689 6.88269C15.482 7.00905 15.607 7.12411 15.7424 7.22625C15.7424 7.22625 18.5832 8.07469 22.7507 5.82125C24.9461 4.63412 22.7174 1.79613 22.7174 1.79613C22.4494 1.69229 22.1699 1.62097 21.8849 1.58369ZM26.0938 25.601L23.6242 24.8746L16.2499 27.88L8.35129 24.4863L6.45623 25.0437C4.91867 25.4959 3.86279 26.9071 3.86279 28.5098V30.4516C3.86279 31.3068 4.55604 31.9999 5.41117 31.9999H27.0886C27.2695 31.9999 27.4433 31.969 27.6047 31.9119L28.1126 30.8399V28.2991C28.1127 27.0516 27.2907 25.9531 26.0938 25.601Z" fill="#C6805D"/>
<path d="M26.0436 25.0437L24.1486 24.4863L23.2178 25.2884L25.7525 26.0338C26.8507 26.3567 27.6048 27.3645 27.6048 28.5091V31.912C28.2048 31.6986 28.6371 31.1248 28.6371 30.4516V28.5098C28.6371 26.9071 27.5812 25.496 26.0436 25.0437Z" fill="#A46A5A"/>
<path d="M22.8085 24.6048L21.3363 24.735C20.0315 26.0337 18.2366 26.8387 16.2499 26.8387C13.8559 26.8387 11.7401 25.6695 10.4253 23.8763L8.35132 24.4863C9.98832 27.1336 12.9088 28.9033 16.2499 28.9033C19.2001 28.9033 21.8223 27.5235 23.5225 25.3783L22.8085 24.6048Z" fill="#E29A6C"/>
<path d="M22.7174 1.79602C22.9705 2.45246 23.0447 3.20027 22.8492 3.98258C22.4989 5.38446 21.3006 6.46714 19.8702 6.67208C19.541 6.71975 19.2067 6.72204 18.8769 6.67889C18.3128 6.60471 17.7441 6.66589 17.2264 6.90183C16.7605 7.11454 16.2545 7.2251 15.7424 7.22608C16.1712 7.54964 16.7029 7.74183 17.2822 7.74183C17.6262 7.74183 17.9512 7.66952 18.2496 7.54471C18.439 7.46546 18.6597 7.50658 18.8015 7.65508C19.5021 8.38902 20.5069 8.82958 21.6153 8.76839C23.3509 8.67264 24.8202 7.28339 25.0032 5.55489C25.1834 3.85333 24.1811 2.36296 22.7174 1.79602Z" fill="#A46A5A"/>
<path d="M22.0746 23.8763C21.8513 24.1815 21.6044 24.4686 21.3362 24.735L23.5224 25.3782C23.7483 25.0933 23.9573 24.7955 24.1485 24.4863L22.0746 23.8763Z" fill="#C6805D"/>
</svg>
