<svg width="472" height="108" viewBox="0 0 472 108" fill="none" xmlns="http://www.w3.org/2000/svg">
<path d="M0 13.2077C23.9723 18.3687 46.0507 27.389 66.398 40.2828C86.7015 26.9237 109.249 18.1461 133.676 12.8081C133.024 13.5217 132.236 13.6844 131.55 13.987C112.965 22.2023 95.8577 32.3986 80.5096 45.0641C74.3272 50.168 69.9572 56.4109 65.6467 62.7536C56.384 76.3839 45.938 89.1579 33.0785 100.185C29.9638 102.857 26.8147 105.491 23.1584 107.704C23.5466 107.221 23.9441 106.747 24.3198 106.259C35.7644 91.2531 46.0914 75.6589 54.0362 58.8286C55.4605 55.8143 56.6657 52.7314 57.0601 49.3088C48.7459 41.8642 39.6554 35.2218 29.9701 29.2444C20.3629 23.3156 10.3646 17.9919 0.00626085 13.2077H0Z" fill="#0BAB59"/>
<path d="M108.53 107.119C103.373 103.579 98.6813 99.5639 94.0775 95.4604C88.4236 90.4211 83.2197 85.0245 78.3753 79.3386C78.1877 79.1203 77.9752 78.9189 77.6377 78.5644C71.7212 83.2152 65.9954 87.9993 59.6789 92.151C53.3436 96.314 46.7146 100.003 39.7823 103.296C39.5011 102.902 39.8417 102.734 40.0355 102.576C53.6624 91.4364 65.1672 78.7034 75.0061 64.6716C81.7976 54.9872 90.6583 46.922 100.078 39.3531C108.411 32.6605 117.521 26.9575 127.198 21.992C128.857 21.1412 130.601 20.4181 132.455 19.7942C113.233 34.2032 97.1529 51.0226 84.2323 70.434C86.3014 74.2624 88.7049 77.9037 91.0239 81.5874C96.2434 89.8766 101.891 97.9191 107.983 105.701C108.279 106.081 108.505 106.512 108.764 106.917L108.526 107.121L108.53 107.119Z" fill="#0BAB59" fill-opacity="0.15"/>
<path d="M51.2728 13.6053C51.2884 5.96047 57.9438 -0.0280691 66.3968 9.89604e-05C74.5886 0.0282669 81.2191 6.21398 81.1818 13.7968C81.1445 21.2135 74.3771 27.3654 66.2631 27.3625C57.9252 27.3597 51.2604 21.2416 51.2728 13.6053Z" fill="#0BAB59"/>
<path d="M45.6185 66.3687C32.486 48.8321 17.5278 33.2731 0 19.7942C19.1533 28.42 35.1556 40.6793 49.4416 55.0585C48.1912 58.7317 46.7564 62.2852 45.6154 66.3659L45.6185 66.3687Z" fill="#0BAB59" fill-opacity="0.15"/>
<path d="M279.926 56.9553C284.047 63.3671 288.585 69.5833 292.466 76.5817H280.251C276.483 70.6351 272.553 64.4391 268.601 58.2026H259.779V76.4671H248.908V25.3683C253.552 24.7884 258.217 25.2469 262.861 25.2199C266.855 25.1997 270.885 25.0649 274.843 25.4896C283.085 26.3728 288.847 31.6654 290.183 39.0953C291.561 46.7746 288.394 52.5257 280.675 56.3957C280.477 56.4968 280.314 56.6654 279.94 56.9553H279.926ZM259.857 48.9523C264.346 48.9523 268.672 49.1816 272.97 48.8849C277.013 48.6017 279.113 46.2015 279.297 42.5068C279.48 38.7582 277.579 35.7107 274.115 35.1107C269.4 34.2949 264.615 34.7061 259.857 34.659V48.9456V48.9523Z" fill="#0BAB59"/>
<path d="M241.301 51.1216C241.082 66.4398 229.305 77.6318 213.556 77.4902C198.018 77.3486 186.623 65.7184 186.807 50.1912C186.984 35.2101 198.754 23.9642 214.086 24.1327C229.644 24.3013 241.513 36.0731 241.301 51.1283V51.1216ZM229.8 50.8721C229.871 41.75 223.968 34.8056 215.302 33.828C207.752 32.9717 200.952 37.9272 198.951 45.7346C196.598 54.9444 200.811 63.9115 208.841 66.7432C209.604 67.0129 210.403 67.2286 211.209 67.3567C221.537 69.0288 229.715 61.7675 229.8 50.8721Z" fill="#0BAB59"/>
<path d="M299.145 25.2742H335.854C336.179 28.4295 336.214 31.4904 335.875 34.7402H309.89V45.858H331.98V55.0139H309.869V67.1362H336.144V76.4472H299.386C298.644 73.784 298.41 33.1827 299.145 25.2809V25.2742Z" fill="#0BAB59"/>
<path d="M182.665 37.5359C179.392 39.0192 176.338 40.4014 173.1 41.8711C171.142 39.1001 169.276 36.4235 166.039 34.9874C159.67 32.1759 151.972 34.4683 148.31 40.4688C145.108 45.7142 144.641 51.3709 146.451 57.0478C148.289 62.8123 152.092 66.8441 158.807 67.5453C165.091 68.1993 169.531 65.7047 172.994 59.4952C176.458 60.2975 179.738 61.6526 182.997 63.0483C179.385 73.1278 168.06 79.0474 156.262 77.1664C142.761 75.0224 134.13 64.7945 134.045 50.8315C133.96 36.8685 142.492 26.6136 156.05 24.3685C167.297 22.5077 179.229 28.2722 182.665 37.5292V37.5359Z" fill="#0BAB59"/>
<path d="M364.638 25.3213H401.276V34.7131H375.652V46.8625H397.07C397.452 50.0987 397.367 53.0383 397.12 56.2813H375.567V76.4201H364.631V25.3213H364.638Z" fill="#0BAB59"/>
<path d="M472 25.3682V34.7263H454.717V76.5007H443.873V34.8813H427.17C426.491 31.6586 426.936 28.5909 426.809 25.3682H472Z" fill="#0BAB59"/>
<path d="M408.889 25.3429C412.445 25.0732 415.916 25.026 419.592 25.3698V76.435H408.889V25.3429Z" fill="#0BAB59"/>
</svg>
