<svg width="24" height="24" viewBox="0 0 24 24" fill="none" xmlns="http://www.w3.org/2000/svg">
<g clip-path="url(#clip0_236_2104)">
<path d="M7.42381 21.0001C7.81147 21.8914 8.45104 22.6502 9.26396 23.1832C10.0769 23.7161 11.0278 24 11.9998 24C12.9719 24 13.9227 23.7161 14.7357 23.1832C15.5486 22.6502 16.1881 21.8914 16.5758 21.0001H7.42381ZM22.3918 12.5491L20.6558 6.82605C20.0999 4.8244 18.8912 3.06583 17.2217 1.82955C15.5522 0.59328 13.5175 -0.0498305 11.4407 0.00232993C9.36396 0.0544903 7.36413 0.798932 5.75878 2.11746C4.15342 3.43598 3.03455 5.25301 2.57981 7.28005L1.23181 12.8171C1.05264 13.5528 1.04293 14.3196 1.20342 15.0597C1.3639 15.7998 1.69039 16.4937 2.15823 17.0891C2.62607 17.6846 3.22306 18.166 3.90412 18.497C4.58519 18.828 5.33255 19 6.08981 19.0001H17.6068C18.3875 19.0001 19.1574 18.8173 19.8548 18.4663C20.5522 18.1153 21.1577 17.6059 21.6228 16.9788C22.088 16.3517 22.3998 15.6245 22.5333 14.8552C22.6668 14.086 22.6184 13.2962 22.3918 12.5491Z" fill="#231F20"/>
</g>
<defs>
<clipPath id="clip0_236_2104">
<rect width="24" height="24" fill="white"/>
</clipPath>
</defs>
</svg>
