<svg width="48" height="48" viewBox="0 0 48 48" fill="none" xmlns="http://www.w3.org/2000/svg">
<path d="M0.5 24C0.5 11.0213 11.0213 0.5 24 0.5C36.9787 0.5 47.5 11.0213 47.5 24C47.5 36.9787 36.9787 47.5 24 47.5C11.0213 47.5 0.5 36.9787 0.5 24Z" fill="#EEFBF4"/>
<path d="M0.5 24C0.5 11.0213 11.0213 0.5 24 0.5C36.9787 0.5 47.5 11.0213 47.5 24C47.5 36.9787 36.9787 47.5 24 47.5C11.0213 47.5 0.5 36.9787 0.5 24Z" stroke="#C7F0DA"/>
<g clip-path="url(#clip0_68_8065)">
<path d="M24.093 30.9807C24.0931 29.6952 24.4679 28.4377 25.1716 27.3619C25.8752 26.2861 26.8772 25.4387 28.0548 24.9234C29.2325 24.4081 30.5348 24.2472 31.8025 24.4604C33.0702 24.6737 34.2482 25.2518 35.1925 26.124C35.2238 23.8643 35.205 21.6046 35.1363 19.3449C35.0988 17.7924 34.2222 16.2338 32.7536 15.4637C31.9989 15.0648 31.217 14.6809 30.4263 14.3171C27.3016 15.3277 23.642 16.6609 19.9511 18.3113C19.5962 18.4682 19.2922 18.721 19.0733 19.0414C18.8544 19.3617 18.7294 19.7368 18.7122 20.1245C18.6545 21.9057 18.6367 23.7441 18.6602 25.562C18.662 25.6153 18.6468 25.6678 18.6166 25.7118C18.5865 25.7558 18.543 25.789 18.4926 25.8064C18.4422 25.8239 18.3875 25.8247 18.3366 25.8088C18.2857 25.7929 18.2412 25.7611 18.2097 25.7181C17.8191 25.2181 17.4375 24.7237 17.065 24.2349C17.0375 24.1967 16.9966 24.1703 16.9505 24.1608C16.9044 24.1513 16.8564 24.1595 16.8161 24.1838C16.5264 24.3563 16.2419 24.5265 15.9625 24.6943C15.8059 24.7881 15.6133 24.6629 15.6123 24.4702C15.603 22.6595 15.648 20.844 15.745 19.0843C15.7858 18.3423 16.2513 17.6434 16.9398 17.3031C20.4798 15.5546 24.2566 14.1263 27.4792 13.0693C26.7292 12.7759 25.9834 12.5068 25.2555 12.2518C24.2739 11.9148 23.208 11.9148 22.2264 12.2518C19.7973 13.0899 17.1447 14.184 14.7278 15.4637C13.2597 16.2338 12.3841 17.7924 12.3452 19.3449C12.2495 22.4481 12.2495 25.5512 12.3452 28.6543C12.3827 30.2068 13.2597 31.7654 14.7278 32.5356C17.1447 33.8152 19.7973 34.9093 22.2278 35.747C23.2094 36.084 24.2753 36.084 25.2569 35.747C25.4691 35.6738 25.6833 35.5984 25.8995 35.5205C24.7357 34.296 24.0887 32.67 24.093 30.9807Z" fill="#1A9D56"/>
<path d="M30.7059 25.9619C29.7133 25.962 28.743 26.2565 27.9177 26.808C27.0924 27.3596 26.4491 28.1435 26.0694 29.0606C25.6896 29.9777 25.5903 30.9869 25.784 31.9604C25.9778 32.934 26.4559 33.8282 27.1578 34.5301C27.8598 35.2319 28.7541 35.7098 29.7277 35.9034C30.7013 36.0969 31.7104 35.9975 32.6275 35.6175C33.5445 35.2376 34.3283 34.5942 34.8797 33.7688C35.4311 32.9434 35.7254 31.973 35.7253 30.9804C35.7253 30.3213 35.5954 29.6686 35.3431 29.0597C35.0908 28.4508 34.7211 27.8976 34.255 27.4316C33.7889 26.9656 33.2356 26.5959 32.6266 26.3438C32.0177 26.0916 31.365 25.9619 30.7059 25.9619ZM33.5686 30.1497L30.5517 33.3175C30.4696 33.4039 30.3709 33.4728 30.2615 33.52C30.1521 33.5672 30.0343 33.5918 29.9152 33.5922H29.9109C29.7925 33.5922 29.6753 33.5684 29.5662 33.5222C29.4571 33.4761 29.3583 33.4086 29.2758 33.3236L27.675 31.6746C27.5115 31.5061 27.4217 31.2796 27.4252 31.0449C27.4287 30.8102 27.5253 30.5865 27.6938 30.423C27.8622 30.2595 28.0887 30.1697 28.3234 30.1732C28.5581 30.1767 28.7818 30.2733 28.9453 30.4418L29.9058 31.4304L32.2875 28.9291C32.4513 28.7686 32.6709 28.678 32.9002 28.6763C33.1295 28.6745 33.3505 28.7618 33.5166 28.9198C33.6828 29.0778 33.7812 29.2941 33.7911 29.5232C33.8009 29.7522 33.7215 29.9762 33.5695 30.1479L33.5686 30.1497Z" fill="#1A9D56"/>
</g>
<defs>
<clipPath id="clip0_68_8065">
<rect width="24" height="24" fill="white" transform="translate(12 12)"/>
</clipPath>
</defs>
</svg>
