<svg width="48" height="48" viewBox="0 0 48 48" fill="none" xmlns="http://www.w3.org/2000/svg">
<path d="M0.5 24C0.5 11.0213 11.0213 0.5 24 0.5C36.9787 0.5 47.5 11.0213 47.5 24C47.5 36.9787 36.9787 47.5 24 47.5C11.0213 47.5 0.5 36.9787 0.5 24Z" fill="#EEFBF4"/>
<path d="M0.5 24C0.5 11.0213 11.0213 0.5 24 0.5C36.9787 0.5 47.5 11.0213 47.5 24C47.5 36.9787 36.9787 47.5 24 47.5C11.0213 47.5 0.5 36.9787 0.5 24Z" stroke="#C7F0DA"/>
<path d="M21.0603 23.3764C20.9558 23.2602 20.8797 23.1214 20.838 22.9709C20.7679 22.7161 20.8018 22.444 20.9321 22.2141C21.0624 21.9843 21.2786 21.8155 21.5332 21.7449L22.5274 21.4689C22.7477 21.408 22.9821 21.4246 23.1916 21.5158C23.1029 21.3123 23.0847 21.085 23.1399 20.8699C23.1951 20.6549 23.3206 20.4645 23.4963 20.3289C24.3945 19.636 25.4275 19.1386 26.5291 18.8684V17.3663H21.3354V20.9904C21.3356 21.0565 21.3159 21.1212 21.2789 21.176C21.242 21.2308 21.1894 21.2733 21.1281 21.298C21.0667 21.3226 20.9994 21.3283 20.9347 21.3143C20.8701 21.3003 20.8112 21.2672 20.7655 21.2194L19.4315 19.833L18.0977 21.2192C18.052 21.2672 17.9929 21.3003 17.9282 21.3143C17.8635 21.3284 17.796 21.3227 17.7346 21.2981C17.6731 21.2735 17.6204 21.231 17.5833 21.1761C17.5462 21.1212 17.5264 21.0565 17.5264 20.9903H17.5251V17.3663H12V28.9661H20.5955C20.0888 27.1061 20.2534 25.1271 21.0603 23.3764ZM16.446 27.7186H13.5103C13.4663 27.7191 13.4227 27.7109 13.382 27.6944C13.3412 27.678 13.3041 27.6536 13.2729 27.6227C13.2416 27.5918 13.2168 27.555 13.1999 27.5145C13.1829 27.4739 13.1742 27.4304 13.1742 27.3865C13.1742 27.3425 13.1829 27.299 13.1999 27.2585C13.2168 27.2179 13.2416 27.1811 13.2729 27.1502C13.3041 27.1194 13.3412 27.095 13.382 27.0785C13.4227 27.0621 13.4663 27.0539 13.5103 27.0544H16.446C16.4899 27.0539 16.5335 27.0621 16.5743 27.0785C16.615 27.095 16.6521 27.1194 16.6833 27.1502C16.7146 27.1811 16.7394 27.2179 16.7563 27.2585C16.7733 27.299 16.782 27.3425 16.782 27.3865C16.782 27.4304 16.7733 27.4739 16.7563 27.5145C16.7394 27.555 16.7146 27.5918 16.6833 27.6227C16.6521 27.6536 16.615 27.678 16.5743 27.6944C16.5335 27.7109 16.4899 27.7191 16.446 27.7186ZM16.446 26.2433H13.5103C13.422 26.2433 13.3373 26.2082 13.2749 26.1458C13.2125 26.0834 13.1775 25.9988 13.1775 25.9105C13.1775 25.8222 13.2125 25.7376 13.2749 25.6752C13.3373 25.6127 13.422 25.5777 13.5103 25.5777H16.446C16.5342 25.5777 16.6189 25.6127 16.6813 25.6752C16.7437 25.7376 16.7788 25.8222 16.7788 25.9105C16.7788 25.9988 16.7437 26.0834 16.6813 26.1458C16.6189 26.2082 16.5342 26.2433 16.446 26.2433ZM17.7204 16.7007H12.3328L15.3587 13.6748H20.7464L17.7204 16.7007ZM18.1906 17.3664H20.6723V20.1672L19.6699 19.1244C19.6397 19.093 19.6036 19.0679 19.5637 19.0505C19.5238 19.033 19.4808 19.0237 19.4372 19.0229C19.3937 19.0222 19.3504 19.03 19.3099 19.0461C19.2694 19.0621 19.2324 19.086 19.2012 19.1163L19.1918 19.1244L18.1906 20.1658V17.3664ZM27.1943 17.171L30.2203 14.145V18.8173C29.2254 18.603 28.1995 18.5747 27.1943 18.7337L27.1943 17.171ZM18.6609 16.7007L21.6869 13.6748H23.8922L20.8663 16.7007H18.6609ZM21.8068 16.7007L24.8327 13.6748H29.7501L26.7241 16.7007H21.8068ZM32.3072 20.182C32.2975 20.1396 32.2962 20.0956 32.3035 20.0526C32.3108 20.0097 32.3264 19.9685 32.3496 19.9316C32.3727 19.8947 32.4029 19.8627 32.4384 19.8375C32.4739 19.8122 32.5141 19.7942 32.5566 19.7845C32.599 19.7748 32.643 19.7735 32.686 19.7808C32.7289 19.788 32.7701 19.8037 32.807 19.8268C32.8439 19.85 32.8759 19.8802 32.9011 19.9157C32.9264 19.9512 32.9444 19.9913 32.9541 20.0338L33.1859 21.0402C33.2054 21.126 33.1901 21.216 33.1434 21.2905C33.0966 21.365 33.0223 21.4179 32.9366 21.4377C32.9277 21.4401 32.9188 21.4419 32.9097 21.4431H32.911L31.8885 21.5926C31.8015 21.6047 31.7134 21.5819 31.6432 21.5292C31.5731 21.4765 31.5266 21.3982 31.5139 21.3114C31.5013 21.2246 31.5235 21.1363 31.5758 21.0658C31.628 20.9953 31.706 20.9483 31.7928 20.9351L31.9693 20.9095C30.7911 20.2147 29.432 19.8883 28.0668 19.9723C26.7016 20.0564 25.3928 20.547 24.3088 21.3811C24.2391 21.4346 24.151 21.4582 24.0639 21.4469C23.9768 21.4355 23.8977 21.3901 23.844 21.3205C23.7904 21.251 23.7665 21.163 23.7776 21.0758C23.7887 20.9887 23.8339 20.9095 23.9033 20.8556C25.0992 19.9358 26.5443 19.397 28.0505 19.3093C29.5568 19.2216 31.0546 19.5891 32.3492 20.3639L32.3072 20.182ZM33.9886 26.8105C33.9889 26.5585 33.9713 26.3069 33.936 26.0574L33.3445 25.908L32.8582 25.7867C32.7479 25.312 32.5604 24.8587 32.3031 24.4448L32.5591 24.0151L32.8732 23.4896C32.568 23.0879 32.2094 22.7298 31.8073 22.4251L31.2833 22.7377L30.8535 22.9951C30.4392 22.7382 29.9861 22.5502 29.5116 22.4386L29.389 21.9536L29.2395 21.3609C28.7397 21.2921 28.2329 21.2921 27.7332 21.3609L27.5837 21.9536L27.4611 22.4386C26.987 22.5502 26.5342 22.7382 26.1204 22.9951L25.6906 22.7377L25.1654 22.4251C24.7637 22.7298 24.4056 23.0879 24.101 23.4895L24.4136 24.0149L24.6709 24.4447C24.4132 24.8585 24.2253 25.3118 24.1145 25.7866L23.6297 25.908L23.0369 26.0575C22.9686 26.5572 22.9686 27.064 23.0369 27.5637L23.6297 27.7133L24.1147 27.8359C24.2261 28.3104 24.414 28.7636 24.6711 29.1777L24.4138 29.6075L24.1012 30.1316C24.4054 30.5339 24.7636 30.8925 25.1655 31.1973L25.691 30.8847L26.1208 30.6274C26.5345 30.8843 26.9873 31.0722 27.4614 31.1838L27.584 31.6688L27.7335 32.2616C28.2333 32.3298 28.74 32.3298 29.2398 32.2616L29.3893 31.6688L29.5119 31.1838C29.9864 31.0722 30.4396 30.8843 30.8538 30.6274L31.2836 30.8847L31.8076 31.1973C32.2099 30.8925 32.5684 30.5338 32.873 30.1314L32.559 29.6073L32.303 29.1775C32.5602 28.7637 32.7477 28.3104 32.858 27.8357L33.3444 27.7131L33.9358 27.5635C33.9712 27.3141 33.9888 27.0624 33.9885 26.8105H33.9886ZM28.4864 29.7974C27.8959 29.7972 27.3186 29.622 26.8276 29.2938C26.3367 28.9656 25.954 28.4993 25.7281 27.9536C25.5022 27.408 25.4431 26.8076 25.5584 26.2285C25.6736 25.6493 25.958 25.1172 26.3756 24.6997C26.7931 24.2821 27.3252 23.9977 27.9044 23.8824C28.4836 23.7672 29.0839 23.8263 29.6295 24.0522C30.1752 24.2781 30.6416 24.6608 30.9697 25.1517C31.2979 25.6427 31.4731 26.2199 31.4733 26.8105C31.4735 27.2028 31.3963 27.5913 31.2463 27.9538C31.0962 28.3162 30.8762 28.6456 30.5988 28.923C30.3214 29.2004 29.9921 29.4204 29.6296 29.5704C29.2671 29.7204 28.8786 29.7976 28.4863 29.7974H28.4864ZM23.0528 30.9845C23.1055 31.0543 23.1285 31.142 23.1168 31.2286C23.1052 31.3152 23.0599 31.3937 22.9907 31.4471C22.9215 31.5005 22.8341 31.5245 22.7473 31.5138C22.6606 31.5031 22.5816 31.4586 22.5274 31.39C21.6147 30.2004 21.0781 28.7652 20.9867 27.2685C20.8952 25.7718 21.253 24.282 22.0141 22.99L21.8876 23.0251C21.8455 23.037 21.8016 23.0405 21.7582 23.0353C21.7148 23.0302 21.6729 23.0165 21.6348 22.9951C21.5967 22.9736 21.5633 22.9449 21.5364 22.9105C21.5094 22.8761 21.4896 22.8367 21.4779 22.7946C21.4663 22.7525 21.4631 22.7085 21.4685 22.6651C21.474 22.6218 21.4879 22.58 21.5096 22.542C21.5313 22.5041 21.5602 22.4708 21.5948 22.4441C21.6294 22.4174 21.6689 22.3978 21.7111 22.3865L22.7054 22.1103C22.7902 22.087 22.8809 22.0983 22.9574 22.1417C23.0339 22.1852 23.0901 22.2572 23.1136 22.342C23.1159 22.3504 23.1177 22.359 23.119 22.3676H23.1203L23.3143 23.3821C23.33 23.4682 23.311 23.5569 23.2616 23.6291C23.2121 23.7013 23.1362 23.751 23.0503 23.7675C22.9644 23.784 22.8754 23.766 22.8028 23.7172C22.7301 23.6685 22.6796 23.5931 22.6622 23.5074L22.6178 23.2757C21.9074 24.4555 21.5689 25.8221 21.6465 27.1972C21.7241 28.5723 22.2142 29.8921 23.0528 30.9845ZM35.4947 30.8282C35.5181 30.9131 35.5068 31.0037 35.4633 31.0803C35.4199 31.1568 35.3478 31.213 35.263 31.2365L34.2674 31.5127C34.2255 31.5242 34.1817 31.5273 34.1385 31.5219C34.0954 31.5165 34.0537 31.5027 34.0159 31.4811C33.9781 31.4596 33.945 31.4308 33.9183 31.3965C33.8916 31.3621 33.872 31.3229 33.8605 31.2809C33.8578 31.2725 33.8556 31.264 33.8538 31.2553L33.6585 30.2409C33.6448 30.1555 33.665 30.0682 33.7146 29.9974C33.7643 29.9266 33.8395 29.8779 33.9244 29.8616C34.0093 29.8453 34.0973 29.8627 34.1696 29.9101C34.2419 29.9575 34.2929 30.0312 34.3118 30.1156L34.3563 30.3486C35.0659 29.1682 35.4039 27.8016 35.3263 26.4264C35.2487 25.0513 34.7591 23.7314 33.9211 22.6383C33.8674 22.5687 33.8435 22.4805 33.8547 22.3932C33.866 22.3059 33.9114 22.2266 33.9811 22.1728C34.0508 22.119 34.139 22.0951 34.2263 22.1064C34.3136 22.1176 34.3928 22.1631 34.4466 22.2328C35.3588 23.4227 35.8948 24.858 35.986 26.3546C36.0772 27.8511 35.7194 29.3408 34.9585 30.6328L35.0865 30.5978C35.1285 30.586 35.1723 30.5827 35.2155 30.5879C35.2587 30.5931 35.3005 30.6068 35.3384 30.6282C35.3763 30.6496 35.4097 30.6782 35.4365 30.7125C35.4633 30.7468 35.4831 30.7861 35.4947 30.828V30.8282ZM33.1303 32.3017C33.1839 32.3713 33.2078 32.4592 33.1967 32.5464C33.1856 32.6335 33.1404 32.7126 33.0711 32.7665C31.875 33.6862 30.43 34.2249 28.9238 34.3126C27.4176 34.4003 25.9198 34.033 24.6251 33.2583L24.6669 33.4402C24.6864 33.5261 24.6711 33.6162 24.6242 33.6908C24.5773 33.7654 24.5028 33.8183 24.4169 33.8379C24.331 33.8576 24.2409 33.8423 24.1662 33.7955C24.0916 33.7487 24.0386 33.6742 24.0188 33.5884L23.7871 32.582C23.7775 32.5394 23.7762 32.4954 23.7836 32.4524C23.7909 32.4094 23.8067 32.3683 23.8299 32.3314C23.8532 32.2944 23.8835 32.2625 23.9191 32.2373C23.9547 32.2121 23.9949 32.1942 24.0375 32.1845C24.0459 32.1821 24.0544 32.1803 24.0631 32.1791L25.0844 32.0296C25.1275 32.0233 25.1715 32.0256 25.2138 32.0363C25.2561 32.047 25.2958 32.066 25.3308 32.0921C25.3658 32.1182 25.3952 32.1509 25.4176 32.1883C25.4399 32.2258 25.4546 32.2673 25.4609 32.3105C25.4672 32.3537 25.4649 32.3976 25.4542 32.4399C25.4434 32.4822 25.4245 32.522 25.3984 32.5569C25.3723 32.5919 25.3396 32.6214 25.3021 32.6437C25.2647 32.666 25.2232 32.6807 25.18 32.687L25.0049 32.7127C26.1831 33.4073 27.5421 33.7336 28.9073 33.6495C30.2724 33.5655 31.5812 33.075 32.6653 32.2411C32.6998 32.2145 32.7392 32.1949 32.7813 32.1836C32.8233 32.1722 32.8672 32.1692 32.9104 32.1749C32.9536 32.1805 32.9953 32.1946 33.033 32.2164C33.0707 32.2381 33.1038 32.2671 33.1303 32.3017ZM30.1542 25.5587C30.1853 25.5896 30.2099 25.6264 30.2268 25.6668C30.2436 25.7073 30.2522 25.7507 30.2522 25.7945C30.2522 25.8383 30.2436 25.8817 30.2268 25.9222C30.2099 25.9626 30.1853 25.9994 30.1542 26.0303L28.1226 28.0633C28.0598 28.1254 27.9751 28.1603 27.8868 28.1603C27.7985 28.1603 27.7138 28.1254 27.651 28.0633L26.8185 27.2293C26.7571 27.1668 26.723 27.0825 26.7234 26.9949C26.7239 26.9073 26.7589 26.8235 26.8208 26.7615C26.8827 26.6996 26.9666 26.6646 27.0542 26.6641C27.1418 26.6637 27.226 26.6978 27.2886 26.7591L27.8868 27.3573L29.6841 25.5587C29.7466 25.4966 29.8311 25.4618 29.9192 25.4618C30.0073 25.4619 30.0918 25.4968 30.1542 25.5589V25.5587Z" fill="#1A9D56"/>
</svg>
