<svg width="24" height="24" viewBox="0 0 24 24" fill="none" xmlns="http://www.w3.org/2000/svg">
<path d="M23.2973 9.034C23.0155 8.70928 22.6673 8.44891 22.2762 8.27051C21.8851 8.09211 21.4602 7.99986 21.0303 8H20.9443C20.4453 3.506 16.6253 0 12.0003 0C7.37526 0 3.55526 3.506 3.05626 8H3.00026C2.57036 7.99996 2.14547 8.09232 1.75438 8.27082C1.36329 8.44932 1.01512 8.70979 0.733479 9.03458C0.451834 9.35937 0.243283 9.7409 0.121955 10.1533C0.000626452 10.5658 -0.0306456 10.9994 0.0302569 11.425L1.09126 18.849C1.51126 21.786 4.06526 24 7.03126 24H17.0003C19.9663 24 22.5203 21.785 22.9403 18.849L24.0013 11.425C24.062 10.9993 24.0306 10.5655 23.9091 10.153C23.7877 9.74047 23.579 9.35887 23.2973 9.034ZM12.0003 2C15.5203 2 18.4413 4.613 18.9283 8H5.07226C5.55926 4.613 8.48026 2 12.0003 2ZM22.0213 11.142L20.9603 18.566C20.8203 19.5176 20.3438 20.3875 19.6172 21.0178C18.8906 21.648 17.9621 21.9969 17.0003 22.001H7.03126C6.06936 21.9971 5.14076 21.6483 4.41413 21.018C3.68749 20.3877 3.21102 19.5177 3.07126 18.566L2.01026 11.142C1.9892 11.0001 1.99922 10.8554 2.03963 10.7178C2.08003 10.5802 2.14985 10.453 2.24426 10.345C2.33737 10.236 2.45318 10.1486 2.5836 10.089C2.71401 10.0294 2.85588 9.99902 2.99926 10H21.0303C21.3243 10 21.5923 10.122 21.7863 10.345C21.8807 10.453 21.9505 10.5802 21.9909 10.7178C22.0313 10.8554 22.0423 11.0001 22.0213 11.142ZM13.0003 13V19C13.0003 19.2652 12.8949 19.5196 12.7074 19.7071C12.5198 19.8946 12.2655 20 12.0003 20C11.735 20 11.4807 19.8946 11.2931 19.7071C11.1056 19.5196 11.0003 19.2652 11.0003 19V13C11.0003 12.7348 11.1056 12.4804 11.2931 12.2929C11.4807 12.1054 11.735 12 12.0003 12C12.2655 12 12.5198 12.1054 12.7074 12.2929C12.8949 12.4804 13.0003 12.7348 13.0003 13ZM18.0003 13V19C18.0003 19.2652 17.8949 19.5196 17.7074 19.7071C17.5198 19.8946 17.2655 20 17.0003 20C16.735 20 16.4807 19.8946 16.2931 19.7071C16.1056 19.5196 16.0003 19.2652 16.0003 19V13C16.0003 12.7348 16.1056 12.4804 16.2931 12.2929C16.4807 12.1054 16.735 12 17.0003 12C17.2655 12 17.5198 12.1054 17.7074 12.2929C17.8949 12.4804 18.0003 12.7348 18.0003 13ZM8.00026 13V19C8.00026 19.2652 7.8949 19.5196 7.70736 19.7071C7.51983 19.8946 7.26547 20 7.00026 20C6.73504 20 6.48069 19.8946 6.29315 19.7071C6.10561 19.5196 6.00026 19.2652 6.00026 19V13C6.00026 12.7348 6.10561 12.4804 6.29315 12.2929C6.48069 12.1054 6.73504 12 7.00026 12C7.26547 12 7.51983 12.1054 7.70736 12.2929C7.8949 12.4804 8.00026 12.7348 8.00026 13Z" fill="#777777"/>
</svg>
