<svg width="48" height="48" viewBox="0 0 48 48" fill="none" xmlns="http://www.w3.org/2000/svg">
<path d="M0.5 24C0.5 11.0213 11.0213 0.5 24 0.5C36.9787 0.5 47.5 11.0213 47.5 24C47.5 36.9787 36.9787 47.5 24 47.5C11.0213 47.5 0.5 36.9787 0.5 24Z" fill="#EEFBF4"/>
<path d="M0.5 24C0.5 11.0213 11.0213 0.5 24 0.5C36.9787 0.5 47.5 11.0213 47.5 24C47.5 36.9787 36.9787 47.5 24 47.5C11.0213 47.5 0.5 36.9787 0.5 24Z" stroke="#C7F0DA"/>
<path d="M12.6224 30.6559H14.8317C14.8188 30.5468 14.8122 30.4371 14.8119 30.3272C14.8122 30.0164 14.8623 29.7076 14.9602 29.4127H12.6224C12.5416 29.4125 12.4616 29.4284 12.387 29.4593C12.3124 29.4903 12.2447 29.5358 12.1878 29.5931C12.0992 29.6792 12.0384 29.7898 12.0131 29.9108C11.9878 30.0317 11.9993 30.1574 12.046 30.2718C12.0927 30.3862 12.1725 30.484 12.2752 30.5527C12.378 30.6214 12.4988 30.6578 12.6224 30.6572V30.6559ZM35.3776 29.4114H34.2672C34.3657 29.7067 34.416 30.0159 34.4163 30.3272C34.4159 30.4371 34.4093 30.5468 34.3966 30.6559H35.3776C35.5421 30.6543 35.6994 30.5882 35.8158 30.4718C35.9321 30.3555 35.9982 30.1982 35.9999 30.0337C35.9997 29.8687 35.934 29.7105 35.8174 29.5939C35.7007 29.4772 35.5426 29.4116 35.3776 29.4114ZM15.3957 23.963C16.5412 22.817 18.7235 20.3429 18.7235 18.9278C18.7135 18.0518 18.3586 17.215 17.7356 16.5991C17.1126 15.9831 16.2719 15.6377 15.3959 15.6377C14.5198 15.6377 13.6791 15.9831 13.0561 16.5991C12.4332 17.215 12.0782 18.0518 12.0683 18.9278C12.0683 20.3429 14.2501 22.817 15.3957 23.963ZM15.3957 16.5059C15.8813 16.506 16.3561 16.6501 16.7598 16.92C17.1636 17.1899 17.4783 17.5734 17.6641 18.0222C17.8499 18.4709 17.8985 18.9646 17.8037 19.441C17.7089 19.9173 17.475 20.3548 17.1315 20.6982C16.7881 21.0416 16.3505 21.2754 15.8742 21.3702C15.3978 21.4649 14.9041 21.4162 14.4554 21.2303C14.0067 21.0445 13.6232 20.7297 13.3534 20.3259C13.0835 19.9221 12.9395 19.4473 12.9395 18.9616C12.9404 18.3106 13.1995 17.6865 13.66 17.2263C14.1205 16.7661 14.7447 16.5073 15.3957 16.5068V16.5059ZM34.5951 24.6011H28.5951V28.5542H29.1711C29.4429 28.1963 29.7939 27.906 30.1965 27.7062C30.5991 27.5064 31.0425 27.4025 31.492 27.4025C31.9415 27.4025 32.3849 27.5064 32.7875 27.7062C33.1901 27.906 33.5411 28.1963 33.8129 28.5542H34.5959L34.5951 24.6011ZM27.7363 25.181V21.281L27.7371 21.2767V18.7928H23.2114L27.7363 25.181Z" fill="#1A9D56"/>
<path d="M31.4897 32.3954C32.6317 32.3954 33.5576 31.4696 33.5576 30.3276C33.5576 29.1856 32.6317 28.2598 31.4897 28.2598C30.3477 28.2598 29.4219 29.1856 29.4219 30.3276C29.4219 31.4696 30.3477 32.3954 31.4897 32.3954Z" fill="#1A9D56"/>
<path d="M28.1721 29.4116H20.5136C20.6116 29.7066 20.6617 30.0153 20.6619 30.3261C20.6614 30.436 20.6548 30.5457 20.6422 30.6549H28.5861C28.5735 30.5457 28.5669 30.436 28.5664 30.3261C28.5666 30.0153 28.6166 29.7065 28.7147 29.4116H28.1721ZM15.6905 24.8731C15.6109 24.9484 15.5055 24.9904 15.3959 24.9904C15.2863 24.9904 15.1808 24.9484 15.1012 24.8731C14.5058 24.3008 13.94 23.6985 13.4062 23.0684V28.554H15.4162C15.6881 28.1961 16.039 27.9058 16.4416 27.706C16.8443 27.5062 17.2877 27.4022 17.7371 27.4022C18.1866 27.4022 18.63 27.5062 19.0326 27.706C19.4353 27.9058 19.7862 28.1961 20.058 28.554H27.7367V26.664L22.161 18.793H19.5742C19.5742 18.838 19.5811 18.8825 19.5811 18.928C19.5811 21.1231 16.0891 24.4959 15.6905 24.8731Z" fill="#1A9D56"/>
<path d="M15.3954 20.5614C16.2783 20.5614 16.994 19.8457 16.994 18.9628C16.994 18.08 16.2783 17.3643 15.3954 17.3643C14.5126 17.3643 13.7969 18.08 13.7969 18.9628C13.7969 19.8457 14.5126 20.5614 15.3954 20.5614Z" fill="#1A9D56"/>
<path d="M15.6699 30.3276C15.6699 30.7366 15.7912 31.1364 16.0184 31.4764C16.2456 31.8165 16.5686 32.0815 16.9464 32.238C17.3243 32.3945 17.7401 32.4355 18.1412 32.3557C18.5423 32.2759 18.9108 32.079 19.1999 31.7898C19.4891 31.5006 19.6861 31.1321 19.7659 30.731C19.8457 30.3299 19.8047 29.9141 19.6482 29.5363C19.4917 29.1584 19.2266 28.8355 18.8866 28.6083C18.5465 28.381 18.1467 28.2598 17.7378 28.2598C17.1895 28.2604 16.664 28.4785 16.2763 28.8662C15.8887 29.2538 15.6706 29.7794 15.6699 30.3276ZM32.4192 21.71H31.0199V23.7444H34.4485C33.7036 22.9982 33.1988 22.4934 32.4192 21.71ZM28.5951 21.71H30.1628V23.7444H28.5951V21.71Z" fill="#1A9D56"/>
</svg>
