<svg width="48" height="48" viewBox="0 0 48 48" fill="none" xmlns="http://www.w3.org/2000/svg">
<path d="M0.5 24C0.5 11.0213 11.0213 0.5 24 0.5C36.9787 0.5 47.5 11.0213 47.5 24C47.5 36.9787 36.9787 47.5 24 47.5C11.0213 47.5 0.5 36.9787 0.5 24Z" fill="#EEFBF4"/>
<path d="M0.5 24C0.5 11.0213 11.0213 0.5 24 0.5C36.9787 0.5 47.5 11.0213 47.5 24C47.5 36.9787 36.9787 47.5 24 47.5C11.0213 47.5 0.5 36.9787 0.5 24Z" stroke="#C7F0DA"/>
<path d="M33.5039 31.791L32.4323 18.2858C32.3657 17.4157 31.6296 16.7344 30.7571 16.7344H28.64V19.8711C28.64 20.2596 28.3256 20.574 27.9371 20.574C27.5492 20.574 27.2342 20.2596 27.2342 19.8711V16.7344H20.7678V19.8711C20.7678 20.2596 20.4529 20.574 20.0649 20.574C19.6765 20.574 19.362 20.2596 19.362 19.8711V16.7344H17.245C16.3725 16.7344 15.6363 17.4157 15.5698 18.284L14.4977 31.7928C14.4147 32.8748 14.7901 33.9516 15.5271 34.7473C16.2642 35.5429 17.3092 35.9998 18.394 35.9998H29.6081C30.6929 35.9998 31.7379 35.5429 32.475 34.7472C33.212 33.9516 33.5874 32.8748 33.5039 31.791ZM27.1677 24.9135L23.5324 28.5488C23.3951 28.6861 23.2152 28.755 23.0353 28.755C22.8553 28.755 22.6754 28.6861 22.5381 28.5488L20.8344 26.845C20.5598 26.5704 20.5598 26.1257 20.8344 25.8511C21.109 25.5765 21.5541 25.5765 21.8282 25.8511L23.0353 27.0578L26.1739 23.9192C26.448 23.6451 26.8932 23.6451 27.1678 23.9192C27.4423 24.1938 27.4423 24.6389 27.1677 24.9135Z" fill="#1A9D56"/>
<path d="M24.0003 12C21.4423 12 19.3613 14.0814 19.3613 16.6395V16.7346H20.7671V16.6395C20.7671 14.8565 22.2174 13.4057 24.0004 13.4057C25.7833 13.4057 27.2336 14.8565 27.2336 16.6395V16.7346H28.6393V16.6395C28.6393 14.0814 26.5583 12 24.0003 12Z" fill="#1A9D56"/>
</svg>
