<svg width="688" height="171" viewBox="0 0 688 171" fill="none" xmlns="http://www.w3.org/2000/svg">
<path d="M116.336 8.29212C107.722 2.7698 96.4808 0.00195312 82.6131 0.00195312H28.9249C24.6736 0.00195312 22.3249 1.98458 21.8787 5.94508L0.0684587 133.607C-0.158208 134.861 0.178201 136.007 1.07461 137.05C1.96589 138.095 3.08692 138.614 4.42948 138.614H29.931C34.4038 138.614 36.8623 136.637 37.3136 132.669L43.3526 98.253C43.5731 96.585 44.3597 95.2289 45.7023 94.1845C47.0438 93.142 48.7218 92.4591 50.7351 92.1473C52.7485 91.8374 54.6469 91.6815 56.4397 91.6815C58.2274 91.6815 60.3515 91.7867 62.8162 91.9943C65.2746 92.2028 66.8418 92.3042 67.5136 92.3042C86.7505 92.3042 101.85 87.2495 112.813 77.1297C123.771 67.0138 129.256 52.9861 129.256 35.0439C129.256 22.7368 124.946 13.8192 116.336 8.28828V8.29212ZM88.6541 46.625C87.5321 53.9272 84.6274 58.7227 79.93 61.0181C75.2315 63.3163 68.5208 64.4583 59.7977 64.4583L48.7238 64.772L54.4295 31.2909C54.8746 28.9984 56.3279 27.8507 58.7905 27.8507H65.1679C74.1115 27.8507 80.6028 29.0529 84.6295 31.4478C88.6541 33.8484 89.9967 38.9097 88.6541 46.625Z" fill="#003087"/>
<path d="M682.911 0H658.082C655.615 0 654.163 1.14771 653.72 3.44213L631.907 133.61L631.571 134.235C631.571 135.283 632.019 136.269 632.916 137.209C633.806 138.145 634.929 138.615 636.271 138.615H658.419C662.663 138.615 665.013 136.638 665.466 132.671L687.277 4.69407V4.38324C687.275 1.46332 685.816 0.00287495 682.911 0.00287495V0Z" fill="#009CDE"/>
<path d="M382.931 50.3843C382.931 49.3437 382.482 48.3509 381.592 47.4137C380.694 46.4754 379.687 46.0039 378.571 46.0039H352.734C350.268 46.0039 348.256 47.0521 346.693 49.1323L311.125 97.9475L296.362 51.0117C295.238 47.6757 292.779 46.0039 288.979 46.0039H263.81C262.689 46.0039 261.682 46.4745 260.793 47.4137C259.895 48.3509 259.45 49.3446 259.45 50.3843C259.45 50.8051 261.632 56.9558 265.993 68.8459C270.354 80.7379 275.052 93.5672 280.086 107.336C285.12 121.102 287.745 128.406 287.971 129.236C269.626 152.601 260.457 165.118 260.457 166.784C260.457 169.498 261.91 170.853 264.819 170.853H290.656C293.117 170.853 295.129 169.812 296.697 167.724L382.263 52.5725C382.707 52.1584 382.931 51.4315 382.931 50.3833V50.3843Z" fill="#003087"/>
<path d="M623.526 46.0036H598.023C594.889 46.0036 592.994 49.4458 592.322 56.33C586.499 47.9901 575.88 43.8125 560.442 43.8125C544.335 43.8125 530.632 49.4458 519.337 60.7104C508.039 71.9759 502.393 85.2241 502.393 100.45C502.393 112.76 506.25 122.563 513.967 129.862C521.684 137.168 532.03 140.814 545.009 140.814C551.494 140.814 558.093 139.56 564.804 137.059C571.516 134.556 576.768 131.22 580.577 127.046C580.577 127.255 580.35 128.192 579.906 129.86C579.455 131.532 579.235 132.786 579.235 133.615C579.235 136.956 580.685 138.621 583.598 138.621H606.753C610.997 138.621 613.461 136.643 614.13 132.675L627.889 51.0085C628.11 49.7566 627.775 48.6108 626.883 47.5664C625.984 46.5268 624.869 46.0036 623.526 46.0036ZM579.737 107.646C574.033 112.861 567.154 115.469 559.101 115.469C552.611 115.469 547.359 113.803 543.33 110.463C539.301 107.132 537.288 102.542 537.288 96.6943C537.288 88.9819 540.085 82.4591 545.679 77.1396C551.264 71.82 558.206 69.1602 566.483 69.1602C572.741 69.1602 577.943 70.8818 582.085 74.322C586.22 77.7641 588.295 82.5117 588.295 88.561C588.294 96.0698 585.441 102.434 579.737 107.646Z" fill="#009CDE"/>
<path d="M242.336 46.0036H216.835C213.698 46.0036 211.801 49.4458 211.129 56.33C205.089 47.9901 194.462 43.8125 179.251 43.8125C163.144 43.8125 149.441 49.4458 138.145 60.7104C126.847 71.9759 121.201 85.2241 121.201 100.45C121.201 112.76 125.06 122.563 132.778 129.862C140.496 137.168 150.84 140.814 163.816 140.814C170.077 140.814 176.568 139.56 183.278 137.059C189.988 134.556 195.358 131.22 199.384 127.046C198.487 129.548 198.042 131.739 198.042 133.615C198.042 136.956 199.495 138.621 202.404 138.621H225.557C229.804 138.621 232.267 136.643 232.939 132.675L246.696 51.0085C246.917 49.7566 246.581 48.6108 245.69 47.5664C244.795 46.5268 243.678 46.0036 242.336 46.0036ZM198.546 107.801C192.841 112.919 185.847 115.469 177.575 115.469C171.084 115.469 165.883 113.803 161.971 110.463C158.054 107.132 156.098 102.542 156.098 96.6943C156.098 88.9819 158.893 82.4591 164.488 77.1396C170.077 71.82 177.012 69.1602 185.292 69.1602C191.552 69.1602 196.754 70.8818 200.896 74.3229C205.031 77.7651 207.103 82.5127 207.103 88.562C207.103 96.2793 204.251 102.696 198.546 107.801Z" fill="#003087"/>
<path d="M497.526 8.29212C488.912 2.7698 477.673 0.00195312 463.804 0.00195312H410.45C405.974 0.00195312 403.511 1.98458 403.068 5.94508L381.257 133.607C381.03 134.862 381.366 136.008 382.263 137.051C383.15 138.095 384.275 138.614 385.618 138.614H413.132C415.816 138.614 417.605 137.26 418.501 134.548L424.542 98.253C424.764 96.585 425.547 95.2289 426.891 94.1845C428.233 93.142 429.909 92.46 431.925 92.1473C433.937 91.8374 435.834 91.6815 437.629 91.6815C439.417 91.6815 441.541 91.7867 444.003 91.9943C446.463 92.2028 448.034 92.3042 448.7 92.3042C467.941 92.3042 483.038 87.2495 494.001 77.1297C504.963 67.0138 510.443 52.9861 510.443 35.0439C510.445 22.7377 506.136 13.8202 497.526 8.28924V8.29212ZM463.132 59.7661C458.21 62.8945 450.827 64.4583 440.986 64.4583L430.248 64.772L435.952 31.2909C436.396 28.9984 437.849 27.8507 440.313 27.8507H446.351C451.272 27.8507 455.186 28.0592 458.099 28.4752C461.003 28.8961 463.804 30.1958 466.488 32.386C469.173 34.5771 470.514 37.7591 470.514 41.931C470.514 50.6917 468.051 56.6358 463.132 59.7661Z" fill="#009CDE"/>
</svg>
