<svg width="60" height="64" viewBox="0 0 60 64" fill="none" xmlns="http://www.w3.org/2000/svg">
<g clip-path="url(#clip0_68_4739)">
<path d="M18.3898 54.9792L18.3398 54.9592V54.9492L18.3898 54.9792Z" fill="#DDF2F8"/>
<path d="M41.6604 54.9492V54.9592L41.6104 54.9792L41.6604 54.9492Z" fill="#DDF2F8"/>
<path d="M18.3898 54.9792L18.3398 54.9592V54.9492L18.3898 54.9792Z" fill="#FAD7AF"/>
<path d="M41.6604 54.9492V54.9592L41.6104 54.9792L41.6604 54.9492Z" fill="#F2C59A"/>
<path d="M30 11.5C42.15 11.5 52 21.35 52 33.5C52 45.65 42.15 55.5 30 55.5C17.85 55.5 8 45.65 8 33.5C8 21.35 17.85 11.5 30 11.5Z" fill="url(#paint0_linear_68_4739)"/>
<path d="M42.3904 43.6094L42.3604 44.1094L41.8503 52.2094C41.7703 52.2594 41.6904 52.3094 41.6104 52.3494C38.8304 53.9794 35.6804 55.0494 32.3204 55.3794C32.0404 55.4094 31.7604 55.4394 31.4704 55.4494C30.5804 55.0194 29.6404 55.0394 28.6504 55.4594C28.3204 55.4394 28.0004 55.4194 27.6804 55.3794C24.3204 55.0494 21.1704 53.9794 18.3904 52.3494C18.3104 52.3094 18.2304 52.2594 18.1504 52.2094L17.6104 43.6094H42.3904Z" fill="#DDF2F8"/>
<path d="M33.6296 8.01C33.4496 8 33.2696 8 33.0996 8H31.5496C30.6896 8 29.9996 8.69 29.9996 9.54C29.9996 8.69 29.2996 8 28.4496 8H26.8996C23.2696 8 20.0596 9.78 18.0896 12.52L18.1696 13.15C18.1696 13.15 16.6096 15.04 16.1896 17.15C16.0996 17.71 16.0596 18.27 16.0596 18.83C16.0596 20.7 16.6496 22.99 17.6496 24.5H39.8096C40.8196 22.99 41.3096 20.7 41.3996 18.83C41.8296 10.72 33.6296 8.01 33.6296 8.01Z" fill="#D28965"/>
<path d="M43.81 17.1598C43.56 16.0298 43.22 14.7098 41.86 13.2598L41.91 12.5198C40.03 9.91977 37.03 8.17977 33.63 8.00977C34.49 8.68977 35.24 9.52977 35.87 10.4398C35.28 10.3098 34.7 10.1898 34.11 10.0798C32.78 9.81977 30.95 9.46977 30.68 9.14977C30.3 8.70977 29.71 8.71977 29.36 9.13977C29.08 9.46977 27.25 9.82977 25.92 10.0798C23.55 10.5398 20.47 11.1398 18.11 12.5198C17.14 13.8698 16.48 15.4398 16.21 17.1598C17.14 13.3698 22.36 12.3498 26.21 11.6098C27.45 11.3698 28.47 11.1698 29.24 10.9098C29.24 11.4898 28.96 12.0398 28.46 12.3298C27.65 12.8098 26.51 13.0898 25.32 13.3798C21.72 14.2598 16.79 15.4498 18.71 23.7998L20.22 23.4498C18.64 16.5898 21.91 15.7998 25.69 14.8798C27.29 14.4898 28.93 14.0898 30.03 13.1198C31.12 14.0998 32.77 14.4998 34.37 14.8798C35.6 15.1798 36.77 15.4698 37.74 15.9598C37.74 16.1498 37.77 16.3298 37.77 16.5098C37.77 18.3798 37.18 20.6698 36.18 22.1798L42.37 24.4998C43.38 22.9898 43.96 20.6998 43.96 18.8298C43.96 18.2698 43.92 17.6998 43.83 17.1498L43.81 17.1598ZM34.71 13.3798C33.52 13.0898 32.38 12.8098 31.57 12.3298C31.07 12.0398 30.79 11.4798 30.79 10.9098C31.56 11.1698 32.58 11.3698 33.82 11.6098C34.78 11.7998 35.82 12.0098 36.87 12.2598C37.14 12.8798 37.35 13.5198 37.5 14.1998C36.57 13.8398 35.61 13.5998 34.72 13.3798H34.71Z" fill="#C2805D"/>
<path d="M37.4804 14.1895C37.6104 14.7595 37.6804 15.3495 37.7104 15.9595C39.7304 16.9695 40.8704 18.8195 39.8104 23.4495L41.3204 23.7995C42.7704 17.5095 40.3204 15.2895 37.4904 14.1995L37.4804 14.1895ZM35.8604 10.4395C36.2504 11.0095 36.5804 11.6195 36.8504 12.2595C39.9804 13.0395 43.1004 14.3095 43.8004 17.1595C43.5304 15.4495 42.8704 13.8795 41.9004 12.5295C40.0904 11.4695 37.8604 10.8795 35.8604 10.4495V10.4395Z" fill="#AB6E4D"/>
<path d="M32.3197 45.9395V55.3795C32.0397 55.4095 31.7597 55.4395 31.4697 55.4495C30.9897 55.4795 30.4997 55.4995 29.9997 55.4995C29.5497 55.4995 29.0897 55.4895 28.6497 55.4595C28.3197 55.4395 27.9997 55.4195 27.6797 55.3795V45.9395H32.3197Z" fill="#A2E0ED"/>
<path d="M44.0605 43.9609L38.8905 42.1209L37.2705 41.5409L37.1205 41.4909V41.5309L37.1005 41.5609L36.9205 42.1909L36.5105 43.6109L36.4805 43.7209L37.5205 44.0909L40.0305 44.9709C40.4905 45.1209 40.8905 45.4209 41.1805 45.8109C41.4605 46.2109 41.6105 46.6809 41.6105 47.1709V52.3509C41.6905 52.3109 41.7705 52.2609 41.8505 52.2109C43.4605 51.2409 44.9405 50.0809 46.2605 48.7609C46.5505 48.4709 46.8405 48.1609 47.1105 47.8509C46.9305 46.0909 45.7605 44.5709 44.0605 43.9609ZM23.2105 43.6109L20.7505 41.3809L15.2805 43.3309C13.6205 43.9209 12.4505 45.3909 12.2305 47.1009C13.8905 49.1209 15.8905 50.8609 18.1505 52.2109C18.2305 52.2609 18.3105 52.3109 18.3905 52.3509V47.1709C18.3905 46.1709 19.0205 45.2909 19.9605 44.9709L22.5005 44.1209L23.4305 43.8109L23.2105 43.6109Z" fill="#A2E0ED"/>
<path d="M33.4 37.1699H25.36V38.6499C25.36 38.9699 25.26 39.2799 25.08 39.5399C24.9 39.7999 24.64 39.9999 24.33 40.1099L23.69 40.3399C23.21 43.9599 26.53 45.9399 30.01 45.9399C33.49 45.9399 35.48 44.7499 36.8 41.7599C34.85 40.9599 33.76 39.3999 33.41 37.1799L33.4 37.1699Z" fill="#F2C59A"/>
<path d="M34.6396 38.6508V33.5508H25.3496V37.1708C25.7096 37.3308 26.0696 37.4808 26.4396 37.6008C28.0196 38.1308 29.5396 38.2708 30.9796 38.1408C32.0196 38.0508 32.9196 38.7108 33.2896 39.6908C33.6096 40.5308 34.2296 41.2408 35.1496 41.5608L37.7396 42.4808L36.3196 40.3308L35.6796 40.1008C35.3796 39.9908 35.1196 39.8008 34.9296 39.5308C34.7496 39.2708 34.6496 38.9608 34.6496 38.6408L34.6396 38.6508Z" fill="#E6B187"/>
<path d="M30.6596 15.8503C30.3896 15.5903 29.9796 15.5003 29.6596 15.7103C28.5196 16.4403 28.0496 17.5203 27.8696 18.3303C27.7596 18.8103 27.1596 19.0103 26.8196 18.6503C26.3296 18.1503 26.0496 17.6403 25.8996 17.1403C24.0496 17.6003 22.2596 18.3003 22.2596 21.1603C22.2596 23.1603 20.5996 23.4703 18.8596 23.4803C17.8596 23.4803 16.9596 24.2103 16.8496 25.2003C16.7296 26.3603 17.6296 27.3503 18.7696 27.3503H19.9696C20.3196 31.8903 23.6696 35.5903 28.0496 36.4503C36.9996 35.8303 38.5896 26.0503 36.1896 17.9203C34.4996 16.8503 31.8696 17.0203 30.6596 15.8403V15.8503Z" fill="#FAD7AF"/>
<path d="M41.2296 23.4797C39.4496 23.4797 37.7496 23.1897 37.7496 21.1597C37.7496 19.4497 37.1096 18.5097 36.1996 17.9297V26.5797C36.1996 31.4797 32.6996 35.5597 28.0596 36.4597C28.6996 36.5897 29.3496 36.6497 30.0096 36.6497C35.3096 36.6497 39.6396 32.5597 40.0396 27.3597H41.2396C42.3096 27.3597 43.1796 26.4897 43.1796 25.4197C43.1796 24.3497 42.3096 23.4797 41.2396 23.4797H41.2296Z" fill="#F2C59A"/>
<path d="M25.3503 25.8691C25.2503 25.8691 25.1503 25.8491 25.0503 25.8091C24.9603 25.7691 24.8703 25.7091 24.8003 25.6391C24.7303 25.5691 24.6703 25.4791 24.6303 25.3891C24.5903 25.2991 24.5703 25.1991 24.5703 25.0891V24.3191C24.5703 23.8891 24.9203 23.5491 25.3403 23.5491C25.7603 23.5491 26.1103 23.8991 26.1103 24.3191V25.0891C26.1103 25.1891 26.0903 25.2891 26.0503 25.3891C26.0103 25.4791 25.9503 25.5691 25.8803 25.6391C25.8103 25.7091 25.7203 25.7691 25.6303 25.8091C25.5403 25.8491 25.4403 25.8691 25.3303 25.8691H25.3503ZM34.6403 25.8691C34.5403 25.8691 34.4403 25.8491 34.3403 25.8091C34.2503 25.7691 34.1603 25.7091 34.0903 25.6391C34.0203 25.5691 33.9603 25.4791 33.9203 25.3891C33.8803 25.2991 33.8603 25.1991 33.8603 25.0891V24.3191C33.8603 24.2191 33.8803 24.1191 33.9203 24.0191C33.9603 23.9291 34.0203 23.8391 34.0903 23.7691C34.1603 23.6991 34.2503 23.6391 34.3403 23.5991C34.4303 23.5591 34.5303 23.5391 34.6403 23.5391C34.7403 23.5391 34.8403 23.5591 34.9403 23.5991C35.0303 23.6391 35.1203 23.6991 35.1903 23.7691C35.2603 23.8391 35.3203 23.9291 35.3603 24.0191C35.4003 24.1091 35.4203 24.2091 35.4203 24.3191V25.0891C35.4203 25.1891 35.4003 25.2891 35.3603 25.3891C35.3203 25.4791 35.2603 25.5691 35.1903 25.6391C35.1203 25.7091 35.0303 25.7691 34.9403 25.8091C34.8503 25.8491 34.7503 25.8691 34.6403 25.8691Z" fill="#4E3D4D"/>
<path d="M30.0001 31.2895C28.8401 31.2895 27.7701 30.9195 27.1301 30.2895C26.8301 29.9895 26.8201 29.4995 27.1301 29.1995C27.4301 28.8995 27.9201 28.8895 28.2201 29.1995C28.4801 29.4495 29.1001 29.7495 30.0001 29.7495C30.9001 29.7495 31.5201 29.4495 31.7801 29.1995C32.0801 28.8995 32.5701 28.8995 32.8701 29.1995C33.1701 29.4995 33.1701 29.9895 32.8701 30.2895C32.2401 30.9095 31.1701 31.2895 30.0001 31.2895Z" fill="#E6B187"/>
<path d="M26.1302 22.8998C26.1302 22.8998 26.0502 22.8998 26.0002 22.8898L24.4502 22.6398C24.0302 22.5698 23.7402 22.1698 23.8102 21.7498C23.8302 21.6498 23.8602 21.5498 23.9202 21.4698C23.9702 21.3798 24.0402 21.3098 24.1302 21.2498C24.2102 21.1898 24.3102 21.1498 24.4102 21.1298C24.5102 21.1098 24.6102 21.0998 24.7102 21.1298L26.2602 21.3798C26.6802 21.4498 26.9702 21.8498 26.9002 22.2698C26.8702 22.4498 26.7802 22.6198 26.6402 22.7298C26.5002 22.8498 26.3202 22.9098 26.1402 22.9098L26.1302 22.8998ZM33.8702 22.8998C33.6902 22.8998 33.5102 22.8298 33.3702 22.7198C33.2302 22.5998 33.1402 22.4398 33.1102 22.2598C33.0802 22.0598 33.1302 21.8498 33.2502 21.6798C33.3702 21.5098 33.5502 21.3998 33.7502 21.3698L35.3002 21.1198C35.7202 21.0498 36.1202 21.3398 36.1902 21.7598C36.2202 21.9598 36.1702 22.1698 36.0502 22.3398C35.9302 22.5098 35.7502 22.6198 35.5502 22.6498L34.0002 22.8998C34.0002 22.8998 33.9202 22.9098 33.8702 22.9098V22.8998Z" fill="#C2805D"/>
<path d="M47.77 47.0998C47.56 47.3498 47.34 47.6098 47.11 47.8498C46.84 48.1598 46.55 48.4698 46.26 48.7598V47.6898C46.26 47.0498 46.06 46.4298 45.69 45.9098C45.32 45.3798 44.8 44.9898 44.2 44.7698L42.36 44.1098L40.94 43.6098L38.53 42.7498C38.34 43.0498 38.14 43.3398 37.92 43.6098C37.8 43.7798 37.66 43.9398 37.52 44.0898C36.17 45.6198 34.36 46.7298 32.32 47.2098C31.58 47.3898 30.8 47.4798 30 47.4798C29.2 47.4798 28.43 47.3898 27.68 47.1998C25.65 46.7298 23.85 45.6298 22.5 44.1198C22.35 43.9598 22.21 43.7898 22.07 43.6098C21.54 42.9298 21.09 42.1898 20.75 41.3798L23.68 40.3398C24.34 41.7398 25.44 42.8998 26.82 43.6098C27.77 44.1098 28.85 44.3898 30 44.3898C31.15 44.3898 32.24 44.1098 33.2 43.6098C34.09 43.1398 34.88 42.4798 35.5 41.6898L36.48 41.6098L37.1 41.5598H37.13L37.27 41.5398L39.25 41.3798L44.72 43.3098C46.38 43.8998 47.55 45.3798 47.77 47.0998Z" fill="#79D4EC"/>
<path d="M35.5 41.6898L38.53 42.7498C38.81 42.3098 39.05 41.8598 39.25 41.3798L36.32 40.3398C36.1 40.8198 35.82 41.2698 35.5 41.6898Z" fill="#4EC0EC"/>
</g>
<defs>
<linearGradient id="paint0_linear_68_4739" x1="30" y1="11.5" x2="30" y2="55.5" gradientUnits="userSpaceOnUse">
<stop stop-color="#20C46C"/>
<stop offset="1" stop-color="#0E7967"/>
</linearGradient>
<clipPath id="clip0_68_4739">
<rect width="44" height="47.5" fill="white" transform="translate(8 8)"/>
</clipPath>
</defs>
</svg>
