<svg width="64" height="64" viewBox="0 0 64 64" fill="none" xmlns="http://www.w3.org/2000/svg">
<path d="M54 32C54 33 53.9 34 53.8 35C53.7 35.7 53.6 36.4 53.4 37.1C52.6 40.3 51.2 43.2 49.2 45.7C48.9 46.1 48.6 46.5 48.2 46.9C48 47.1 47.7 47.4 47.5 47.6C47.3 47.8 47 48.1 46.7 48.4C45.6 49.4 44.3 50.3 43 51.1C42.9 51.1 42.8 51.2 42.7 51.3C41.6 51.9 40.5 52.4 39.3 52.9C38.3 53.2 37.4 53.5 36.3 53.7C35.3 53.9 34.4 54 33.4 54.1C32.9 54.1 32.4 54.2 31.9 54.2C31.4 54.2 31 54.2 30.5 54.2C29.5 54.1 28.5 54 27.6 53.8C26.6 53.6 25.6 53.3 24.7 53C23.5 52.6 22.3 52 21.1 51.4C21.1 51.4 21 51.4 21 51.3C19.7 50.5 18.5 49.7 17.3 48.7C17 48.4 16.7 48.1 16.4 47.8C16.2 47.6 16 47.4 15.9 47.2C15.4 46.7 15 46.2 14.6 45.7C12.8 43.4 11.5 40.8 10.8 38C10.6 37.2 10.4 36.3 10.3 35.4C10.1 34.3 10 33.6 10 32.8C10 32.6 10 32.3 10 32V31.9C10 25.8 12.5 20.3 16.4 16.3C16.5 16.2 16.5 16.2 16.6 16.1C17.1 15.6 17.6 15.2 18.1 14.8C19 14.2 20 13.5 21 12.9C22 12.4 23 11.9 24 11.5C26.5 10.5 29.2 10 32 10C34.8 10 37.5 10.5 40 11.5C40 11.5 40.1 11.5 40.2 11.6C41.2 12 42.2 12.5 43.1 13C44.1 13.6 45.1 14.3 46.1 15.1C46.6 15.5 47.1 16 47.6 16.4C51.5 20.3 54 25.7 54.1 31.7C54 31.8 54 31.9 54 32Z" fill="url(#paint0_linear_68_4621)"/>
<path d="M53.3998 29.2V37.1C52.5998 40.3 51.1998 43.2 49.1998 45.7C48.8998 46.1 48.5998 46.5 48.1998 46.9C47.9998 47.1 47.6998 47.4 47.4998 47.6C47.2998 47.8 46.9998 48.1 46.6998 48.4C45.5998 49.4 44.2998 50.3 42.9998 51.1C42.8998 51.1 42.7998 51.2 42.6998 51.3C42.2998 51.3 41.8998 51.4 41.4998 51.4H22.4998C21.9998 51.4 21.5998 51.4 21.0998 51.3C21.0998 51.3 20.9998 51.3 20.9998 51.2C19.6998 50.4 18.4998 49.6 17.2998 48.6C16.9998 48.3 16.6998 48 16.3998 47.7C16.1998 47.5 15.9998 47.3 15.8998 47.1C15.3998 46.6 14.9998 46.1 14.5998 45.6C12.7998 43.3 11.4998 40.7 10.7998 37.9V29.4C10.7998 29.1 10.7998 28.8 10.7998 28.5C10.7998 28.3 10.7998 28.1 10.8998 27.9C10.8998 27.7 10.9998 27.4 10.9998 27.1C10.9998 26.8 10.9998 26.7 10.9998 26.5C10.9998 26.4 10.9998 26.4 10.9998 26.3C10.9998 26.2 10.9998 26.2 10.9998 26.1C11.0998 25.8 11.1998 25.4 11.2998 25.1C11.3998 24.9 11.3998 24.7 11.4998 24.6C11.5998 24.3 11.6998 24 11.8998 23.7C11.8998 23.6 11.9998 23.5 11.9998 23.5C12.0998 23.3 12.2998 23 12.3998 22.8C12.4998 22.7 12.5998 22.6 12.5998 22.4C12.8998 22 13.1998 21.6 13.5998 21.2C13.7998 21 13.8998 20.9 14.0998 20.7C14.3998 20.4 14.7998 20.1 15.0998 19.8C15.5998 19.7 15.7998 19.5 15.9998 19.4C16.1998 19.3 16.3998 19.1 16.6998 19C16.7998 18.9 16.8998 18.9 16.9998 18.8C17.1998 18.7 17.2998 18.6 17.4998 18.6C17.4998 18.5 17.5998 18.5 17.5998 18.5C17.6998 18.4 17.8998 18.4 18.0998 18.3C18.2998 18.2 18.3998 18.2 18.5998 18.1C18.7998 18 18.9998 17.9 19.2998 17.9C19.5998 17.8 19.8998 17.7 20.1998 17.7C20.3998 17.7 20.5998 17.6 20.8998 17.6C21.0998 17.6 21.3998 17.6 21.5998 17.5C21.8998 17.5 22.2998 17.5 22.5998 17.5H41.6998C41.9998 17.5 42.3998 17.5 42.6998 17.5C42.8998 17.5 43.1998 17.5 43.3998 17.6C43.5998 17.6 43.8998 17.7 44.0998 17.7C44.2998 17.7 44.5998 17.8 44.7998 17.9C44.8998 17.9 44.8998 17.9 44.9998 17.9C45.1998 18 45.3998 18 45.6998 18.1C45.8998 18.2 45.9998 18.2 46.1998 18.3C46.3998 18.4 46.4998 18.4 46.6998 18.5C46.7998 18.5 46.8998 18.6 46.8998 18.6C47.0998 18.7 47.1998 18.8 47.3998 18.8C47.4998 18.8 47.5998 18.9 47.6998 19C47.8998 19.1 48.0998 19.3 48.2998 19.4C48.4998 19.5 48.6998 19.7 48.8998 19.8C49.2998 20.1 49.5998 20.4 49.8998 20.7C50.0998 20.9 50.1998 21 50.3998 21.2C50.7998 21.6 51.0998 22 51.3998 22.4C51.4998 22.5 51.5998 22.6 51.5998 22.8C51.7998 23 51.8998 23.3 51.9998 23.5C51.9998 23.6 52.0998 23.7 52.0998 23.7C52.2998 24 52.3998 24.3 52.4998 24.6C52.5998 24.9 52.6998 25.2 52.8998 25.5C52.9998 25.7 52.9998 25.9 53.0998 26.2C53.0998 26.3 53.0998 26.3 53.0998 26.4C53.0998 26.5 53.0998 26.5 53.0998 26.6C53.0998 26.7 53.1998 26.8 53.1998 27C53.1998 27.2 53.2998 27.5 53.2998 27.8C53.2998 28 53.2998 28.2 53.3998 28.4C53.3998 28.5 53.3998 28.8 53.3998 29.2Z" fill="#C3C5C7"/>
<path d="M22.5002 17.4004H41.6002C48.1002 17.4004 53.4002 22.7004 53.4002 29.2004C53.4002 35.7004 48.1002 41.0004 41.6002 41.0004H22.5002C16.0002 40.9004 10.7002 35.7004 10.7002 29.2004C10.7002 22.7004 16.0002 17.4004 22.5002 17.4004Z" fill="#D1D4D6"/>
<path d="M22.5002 38.0004C17.6002 38.0004 13.7002 34.0004 13.7002 29.2004C13.7002 24.4004 17.7002 20.4004 22.5002 20.4004H41.6002C46.5002 20.4004 50.4002 24.4004 50.4002 29.2004C50.4002 34.0004 46.4002 38.0004 41.6002 38.0004H22.5002Z" fill="#4398D1"/>
<path d="M31.2996 11.5H32.7996V18.9H31.2996V11.5ZM23.9996 11.5H25.4996V18.9H23.9996V11.5ZM45.9996 12.2H47.4996V19.6H45.9996V12.2ZM38.6996 11.5H40.1996V18.9H38.6996V11.5ZM16.5996 12.2H18.0996V19.6H16.5996V12.2Z" fill="#D1D4D6"/>
<path d="M32.7996 11.5H35.6996V14.4H32.7996V11.5ZM25.3996 11.5H28.2996V14.4H25.3996V11.5ZM47.4996 12.2H50.3996V15.1H47.4996V12.2ZM40.1996 11.5H43.0996V14.4H40.1996V11.5ZM18.0996 12.2H20.9996V15.1H18.0996V12.2Z" fill="#E3584B"/>
<path d="M54 31.7004C54 31.6004 54 31.6004 54 31.7004C53.8 31.5004 53.6 31.4004 53.4 31.4004C53.3 31.4004 53.2 31.4004 53.2 31.4004C53.1 31.4004 53 31.5004 52.9 31.6004C52.8 31.7004 52.7 31.9004 52.7 32.1004C52.7 32.5004 52.7 33.0004 52.6 33.4004C52.4 34.6004 52.1 35.9004 51.5 37.0004C50.7 38.5004 49.6 39.9004 48.3 40.9004V39.5004C48.3 39.3004 48.3 39.2004 48.1 39.0004C48.1 39.0004 48.1 39.0004 48 38.9004C47.9 38.8004 47.7 38.7004 47.5 38.7004C47.3 38.7004 47.1 38.8004 47 38.9004C46.9 39.0004 46.8 39.2004 46.8 39.4004V41.8004C45.2 42.6004 43.4 43.1004 41.6 43.1004H32.8V40.9004C32.8 40.7004 32.7 40.5004 32.6 40.4004C32.5 40.3004 32.3 40.2004 32.1 40.2004C31.9 40.2004 31.7 40.3004 31.6 40.4004C31.5 40.5004 31.4 40.7004 31.4 40.9004V43.1004H22.6C20.8 43.1004 19 42.7004 17.4 41.8004V39.5004C17.4 39.3004 17.3 39.1004 17.2 39.0004C17.1 38.9004 16.9 38.8004 16.7 38.8004C16.5 38.8004 16.3 38.9004 16.2 39.0004C16.2 39.0004 16.2 39.0004 16.2 39.1004C16.1 39.2004 16 39.4004 16 39.6004V41.1004C14.6 40.1004 13.5 38.7004 12.8 37.2004C12.2 36.1004 11.9 34.9004 11.7 33.6004C11.7 33.2004 11.6 32.7004 11.6 32.3004C11.6 32.1004 11.5 31.9004 11.4 31.8004C11.2 31.5004 11.1 31.4004 11 31.4004C10.9 31.4004 10.8 31.4004 10.8 31.4004C10.6 31.4004 10.4 31.5004 10.3 31.6004C10.1 31.7004 10 31.9004 10 32.1004C10 32.3004 10 32.6004 10 32.9004C10 33.6004 10.2 34.3004 10.3 35.0004C10.2 35.0004 10.2 35.1004 10.2 35.1004C10.3 36.0004 10.5 36.9004 10.7 37.7004C11.5 40.6004 12.8 43.2004 14.5 45.4004C14.9 45.7004 15.3 46.0004 15.8 46.3004V46.9004C16 47.1004 16.2 47.3004 16.3 47.5004C16.6 47.8004 16.9 48.1004 17.2 48.4004V47.1004C18.4 47.6004 19.6 48.0004 20.9 48.1004C21.4 48.2004 21.9 48.2004 22.4 48.2004H41.5C42 48.2004 42.5 48.2004 43 48.1004C44.3 47.9004 45.5 47.6004 46.7 47.1004V48.3004C47 48.1004 47.2 47.8004 47.5 47.5004C47.7 47.3004 48 47.0004 48.2 46.8004V46.3004C48.5 46.1004 48.9 45.9004 49.2 45.6004C51.2 43.1004 52.6 40.2004 53.4 37.0004C53.6 36.3004 53.7 35.6004 53.8 34.9004C54 34.0004 54.1 33.0004 54.1 32.0004C54.1 31.9004 54.1 31.8004 54 31.7004ZM15.9 44.6004C13.9 43.1004 12.5 41.0004 11.9 38.6004C12.9 40.3004 14.3 41.6004 15.9 42.7004V44.6004ZM46.8 45.5004C45.6 46.1004 44.4 46.5004 43.1 46.7004C42.6 46.8004 42.1 46.8004 41.6 46.8004H22.5C22 46.8004 21.5 46.8004 21 46.7004C19.7 46.5004 18.5 46.1004 17.3 45.5004V43.5004C18.5 44.0004 19.7 44.4004 21 44.5004C21.5 44.6004 22 44.6004 22.5 44.6004H41.6C42.1 44.6004 42.6 44.6004 43.1 44.5004C44.4 44.3004 45.6 44.0004 46.8 43.5004V45.5004ZM48.2 44.6004V42.7004C49.8 41.7004 51.2 40.3004 52.2 38.6004C51.6 41.0004 50.2 43.1004 48.2 44.6004Z" fill="#B1B3B5"/>
<path d="M43.0996 43.9004V51.0004C42.9996 51.0004 42.8996 51.1004 42.7996 51.2004C41.6996 51.8004 40.5996 52.3004 39.3996 52.8004C38.3996 53.1004 37.4996 53.4004 36.3996 53.6004C35.3996 53.8004 34.4996 53.9004 33.4996 54.0004C32.9996 54.0004 32.4996 54.1004 31.9996 54.1004C31.4996 54.1004 31.0996 54.1004 30.5996 54.1004C29.5996 54.0004 28.5996 53.9004 27.6996 53.7004C26.6996 53.5004 25.6996 53.2004 24.7996 52.9004C23.5996 52.5004 22.3996 51.9004 21.1996 51.3004C21.1996 51.3004 21.0996 51.3004 21.0996 51.2004V44.0004H43.0996V43.9004Z" fill="#C3C5C7"/>
<path d="M21 43.0996H43.1V47.4996H21V43.0996Z" fill="#D1D4D6"/>
<path d="M27.5002 51.2C27.3002 50.8 26.8002 50.5 26.2002 50.5C25.7002 50.5 25.2002 50.8 24.9002 51.2C24.8002 51.4 24.7002 51.7 24.7002 51.9V52.7C25.7002 53 26.6002 53.3 27.6002 53.5V51.9C27.7002 51.7 27.6002 51.4 27.5002 51.2ZM39.2002 51.2C39.0002 50.8 38.5002 50.5 38.0002 50.5C37.5002 50.5 37.0002 50.8 36.7002 51.2C36.6002 51.4 36.5002 51.7 36.5002 51.9V53.5C37.5002 53.3 38.5002 53 39.5002 52.7V51.9C39.4002 51.7 39.4002 51.4 39.2002 51.2ZM33.3002 51.2C33.1002 50.8 32.6002 50.5 32.0002 50.5C31.4002 50.5 31.0002 50.8 30.7002 51.2C30.6002 51.4 30.5002 51.7 30.5002 51.9V53.9C31.0002 53.9 31.4002 53.9 31.9002 53.9C32.4002 53.9 32.9002 53.9 33.4002 53.8V51.8C33.5002 51.7 33.5002 51.4 33.3002 51.2Z" fill="#A5A6A8"/>
<path d="M22.5001 37.9992H41.6001C43.0001 37.9992 44.4001 37.5992 45.7001 36.9992C47.0001 36.3992 48.1001 35.3992 48.9001 34.1992C50.4001 31.1992 49.8001 27.5992 47.5001 25.0992V22.5992C47.0001 22.1992 46.6001 21.7992 46.0001 21.4992V23.7992C45.5001 23.4992 45.0001 23.1992 44.5001 22.9992V20.6992C44.0001 20.4992 43.5001 20.3992 43.0001 20.2992V22.4992C42.5001 22.3992 42.0001 22.3992 41.5001 22.3992V20.1992H40.0001V22.4992H38.5001V20.2992H37.0001V22.4992H35.5001V20.2992H34.0001V22.4992H32.5001V20.2992H31.0001V22.4992H29.5001V20.2992H28.0001V22.4992H26.5001V20.2992H25.0001V22.4992H24.0001V20.2992H22.5001V22.4992C22.0001 22.4992 21.5001 22.4992 21.0001 22.5992V20.4992C20.5001 20.5992 20.0001 20.6992 19.5001 20.8992V23.1992C19.0001 23.3992 18.5001 23.6992 18.0001 23.9992V21.4992C17.5001 21.7992 17.0001 22.1992 16.5001 22.5992V25.0992C14.2001 27.4992 13.6001 31.0992 15.1001 34.1992C15.9001 35.3992 17.0001 36.3992 18.3001 36.9992C19.7001 37.5992 21.1001 37.9992 22.5001 37.9992ZM16.6001 27.5992V32.0992H18.1001V25.6992C18.5001 25.2992 19.0001 24.9992 19.6001 24.6992V27.6992H21.0001V24.1992C21.5001 24.0992 22.0001 23.9992 22.5001 23.9992V26.1992H24.0001V23.9992H25.5001V26.1992H27.0001V23.9992H28.5001V26.1992H30.0001V23.9992H31.5001V26.1992H33.0001V23.9992H34.5001V26.1992H36.0001V23.9992H37.5001V26.1992H39.0001V23.9992H40.5001V26.1992H42.0001V23.9992C42.5001 23.9992 43.0001 24.0992 43.5001 24.1992V28.3992H45.0001V24.6992C45.5001 24.9992 46.0001 25.2992 46.5001 25.6992V32.0992H48.0001V27.5992C48.5001 28.5992 48.8001 29.6992 48.7001 30.8992C48.7001 31.9992 48.3001 33.0992 47.7001 34.0992C47.1001 35.0992 46.3001 35.8992 45.3001 36.3992C44.3001 36.9992 43.2001 37.1992 42.1001 37.1992H22.5001C21.4001 37.1992 20.3001 36.8992 19.3001 36.3992C18.3001 35.7992 17.5001 34.9992 16.9001 34.0992C16.3001 33.0992 16.0001 31.9992 15.9001 30.8992C15.9001 29.6992 16.1001 28.5992 16.6001 27.5992Z" fill="#3181BD"/>
<path d="M22.4996 37.9992C19.1996 37.9992 16.5996 35.3992 16.5996 32.0992C16.5996 28.7992 19.1996 26.1992 22.4996 26.1992H41.5996C44.8996 26.1992 47.4996 28.7992 47.4996 32.0992C47.4996 35.3992 44.8996 37.9992 41.5996 37.9992H22.4996Z" fill="#FD6D2F"/>
<path d="M23.2002 29.1992H40.9002V37.9992H23.2002V29.1992Z" fill="#88B337"/>
<path d="M40.9 28.4004H23.2C23 28.4004 22.8 28.5004 22.7 28.6004C22.6 28.7004 22.5 28.9004 22.5 29.1004V37.9004H24V29.8004H31.4V31.3004C30.7 31.4004 30.1 31.8004 29.6 32.3004C29.1 32.8004 28.7 33.4004 28.6 34.1004C28.4 34.8004 28.5 35.5004 28.7 36.2004C28.9 36.9004 29.4 37.4004 30 37.9004H34.4C35 37.5004 35.4 36.9004 35.7 36.2004C35.9 35.5004 36 34.8004 35.8 34.1004C35.6 33.4004 35.3 32.8004 34.8 32.3004C34.3 31.8004 33.7 31.5004 33 31.3004V29.8004H40.4V37.9004H41.9V29.1004C41.9 28.9004 41.8 28.7004 41.7 28.6004C41.3 28.5004 41.1 28.4004 40.9 28.4004ZM31.3 37.1004C30.9 37.0004 30.5 36.7004 30.2 36.3004C29.9 35.9004 29.8 35.5004 29.8 35.0004C29.8 34.5004 29.9 34.1004 30.2 33.7004C30.5 33.3004 30.8 33.0004 31.3 32.9004V37.1004ZM34.3 35.0004C34.3 35.5004 34.2 35.9004 33.9 36.3004C33.6 36.7004 33.3 37.0004 32.8 37.1004V33.0004C33.2 33.2004 33.6 33.4004 33.9 33.8004C34.1 34.1004 34.3 34.6004 34.3 35.0004Z" fill="#DEE1E3"/>
<defs>
<linearGradient id="paint0_linear_68_4621" x1="32" y1="54" x2="32" y2="10" gradientUnits="userSpaceOnUse">
<stop stop-color="#20C46C"/>
<stop offset="1" stop-color="#0E7967"/>
</linearGradient>
</defs>
</svg>
