<svg width="81" height="80" viewBox="0 0 81 80" fill="none" xmlns="http://www.w3.org/2000/svg">
<path d="M70.9 79.5999H10.1C9.64195 79.601 9.18818 79.5118 8.76459 79.3375C8.34101 79.1632 7.9559 78.9071 7.63127 78.584C7.30664 78.2608 7.04883 77.8769 6.87257 77.4541C6.69631 77.0313 6.60505 76.578 6.604 76.1199V32.6559C6.604 32.3377 6.73043 32.0324 6.95548 31.8074C7.18052 31.5824 7.48574 31.4559 7.804 31.4559C8.12226 31.4559 8.42749 31.5824 8.65253 31.8074C8.87758 32.0324 9.004 32.3377 9.004 32.6559V76.1199C9.00505 76.2628 9.03423 76.4041 9.08988 76.5357C9.14552 76.6673 9.22655 76.7866 9.32832 76.8869C9.43009 76.9872 9.55062 77.0665 9.68303 77.1202C9.81544 77.1739 9.95712 77.201 10.1 77.1999H70.9C71.0429 77.201 71.1846 77.1739 71.317 77.1202C71.4494 77.0665 71.5699 76.9872 71.6717 76.8869C71.7735 76.7866 71.8545 76.6673 71.9101 76.5357C71.9658 76.4041 71.995 76.2628 71.996 76.1199V32.6559C71.996 32.3377 72.1224 32.0324 72.3475 31.8074C72.5725 31.5824 72.8777 31.4559 73.196 31.4559C73.5143 31.4559 73.8195 31.5824 74.0445 31.8074C74.2696 32.0324 74.396 32.3377 74.396 32.6559V76.1199C74.395 76.578 74.3037 77.0313 74.1274 77.4541C73.9512 77.8769 73.6934 78.2608 73.3687 78.584C73.0441 78.9071 72.659 79.1632 72.2354 79.3375C71.8118 79.5118 71.3581 79.601 70.9 79.5999Z" fill="#AAAAAA"/>
<path d="M40.3717 64.872C39.9118 64.8741 39.456 64.7854 39.0304 64.6111C38.6049 64.4367 38.2179 64.1801 37.8917 63.856L30.0997 56.136L6.89967 33.512C6.68341 33.2877 6.56285 32.9881 6.56348 32.6766C6.56411 32.365 6.68587 32.066 6.90303 31.8426C7.12018 31.6192 7.41571 31.489 7.72711 31.4796C8.03851 31.4701 8.34138 31.5821 8.57167 31.792L31.7717 54.4L39.5797 62.128C39.7934 62.3371 40.0806 62.4542 40.3797 62.4542C40.6787 62.4542 40.9659 62.3371 41.1797 62.128L48.9797 54.4L72.3957 31.76C72.6291 31.534 72.9427 31.41 73.2675 31.4153C73.5923 31.4205 73.9017 31.5546 74.1277 31.788C74.3536 32.0214 74.4776 32.335 74.4724 32.6598C74.4671 32.9846 74.3331 33.294 74.0997 33.52L50.6597 56.144L42.8997 63.856C42.5667 64.1844 42.1717 64.4434 41.7377 64.6179C41.3037 64.7923 40.8394 64.8787 40.3717 64.872ZM27.4677 14.536C27.2295 14.5358 26.9968 14.4647 26.7992 14.3318C26.6015 14.199 26.4479 14.0103 26.3578 13.7898C26.2677 13.5694 26.2453 13.3271 26.2933 13.0938C26.3414 12.8606 26.4578 12.6469 26.6277 12.48L37.9317 1.40796C38.5886 0.770187 39.4681 0.413452 40.3837 0.413452C41.2992 0.413452 42.1788 0.770187 42.8357 1.40796L54.2277 12.48C54.4558 12.7027 54.586 13.007 54.5898 13.3258C54.5935 13.6446 54.4705 13.9519 54.2477 14.18C54.0249 14.4081 53.7206 14.5383 53.4018 14.542C53.083 14.5458 52.7758 14.4227 52.5477 14.2L41.1637 3.11196C40.9551 2.91152 40.677 2.79957 40.3877 2.79957C40.0984 2.79957 39.8203 2.91152 39.6117 3.11196L28.3077 14.192C28.1972 14.3017 28.0661 14.3886 27.9219 14.4477C27.7778 14.5067 27.6234 14.5367 27.4677 14.536Z" fill="#AAAAAA"/>
<path d="M7.77219 33.856C7.61019 33.8571 7.4496 33.8259 7.29985 33.764C7.15011 33.7022 7.01423 33.6111 6.90019 33.496C6.78796 33.3852 6.69885 33.2531 6.63803 33.1075C6.57721 32.962 6.5459 32.8058 6.5459 32.648C6.5459 32.4903 6.57721 32.3341 6.63803 32.1885C6.69885 32.0429 6.78796 31.9109 6.90019 31.8L17.8602 21.072C18.0883 20.8492 18.3955 20.7262 18.7143 20.7299C19.0331 20.7337 19.3374 20.8639 19.5602 21.092C19.783 21.3201 19.906 21.6274 19.9023 21.9462C19.8985 22.265 19.7683 22.5692 19.5402 22.792L8.61219 33.512C8.38573 33.7287 8.0856 33.8516 7.77219 33.856ZM73.2282 33.856C72.9273 33.848 72.641 33.7248 72.4282 33.512L61.4602 22.872C61.2439 22.6478 61.1234 22.3482 61.124 22.0366C61.1246 21.7251 61.2464 21.426 61.4635 21.2026C61.6807 20.9792 61.9762 20.849 62.2876 20.8396C62.599 20.8302 62.9019 20.9422 63.1322 21.152L74.1002 31.792C74.3249 32.017 74.4511 32.322 74.4511 32.64C74.4511 32.958 74.3249 33.263 74.1002 33.488C73.988 33.606 73.8526 33.6996 73.7025 33.7629C73.5525 33.8263 73.391 33.858 73.2282 33.856ZM8.35619 78.84C8.12063 78.8383 7.89081 78.7672 7.69536 78.6358C7.4999 78.5043 7.34747 78.3182 7.25705 78.1007C7.16663 77.8832 7.14223 77.6438 7.18689 77.4126C7.23155 77.1813 7.34329 76.9682 7.50819 76.8L30.1002 54.4C30.2121 54.2887 30.3448 54.2004 30.4908 54.1404C30.6368 54.0803 30.7932 54.0496 30.951 54.0499C31.1089 54.0503 31.2651 54.0818 31.4108 54.1425C31.5565 54.2033 31.6888 54.2921 31.8002 54.404C31.9115 54.5159 31.9998 54.6486 32.0598 54.7946C32.1199 54.9406 32.1506 55.097 32.1503 55.2549C32.1499 55.4127 32.1184 55.569 32.0577 55.7147C31.9969 55.8604 31.9081 55.9927 31.7962 56.104L9.20419 78.488C8.9779 78.7109 8.67382 78.8372 8.35619 78.84ZM72.5002 78.96C72.1986 78.9482 71.9127 78.8224 71.7002 78.608L48.9802 56.136C48.8662 56.0252 48.7752 55.893 48.7123 55.747C48.6494 55.6009 48.6158 55.444 48.6136 55.285C48.6114 55.126 48.6405 54.9682 48.6993 54.8204C48.758 54.6727 48.8453 54.538 48.9562 54.424C49.067 54.31 49.1992 54.219 49.3452 54.1561C49.4913 54.0932 49.6482 54.0597 49.8072 54.0575C49.9662 54.0552 50.124 54.0843 50.2718 54.1431C50.4195 54.2019 50.5542 54.2892 50.6682 54.4L73.3562 76.904C73.5809 77.129 73.7071 77.434 73.7071 77.752C73.7071 78.07 73.5809 78.375 73.3562 78.6C73.2451 78.7146 73.112 78.8056 72.9649 78.8674C72.8178 78.9293 72.6598 78.9608 72.5002 78.96Z" fill="#AAAAAA"/>
<path d="M40.372 64.872C39.9121 64.8741 39.4563 64.7854 39.0308 64.6111C38.6052 64.4367 38.2182 64.1801 37.892 63.856L30.1 56.136L17.868 44.192C17.7527 44.0811 17.6607 43.9482 17.5975 43.8012C17.5343 43.6542 17.5012 43.496 17.5 43.336V16.936C17.5148 15.6564 18.034 14.4344 18.9448 13.5356C19.8556 12.6368 21.0844 12.1338 22.364 12.136H58.636C59.9156 12.1338 61.1444 12.6368 62.0552 13.5356C62.966 14.4344 63.4852 15.6564 63.5 16.936V43.2C63.4994 43.3613 63.4666 43.5208 63.4034 43.6692C63.3402 43.8176 63.2479 43.9518 63.132 44.064L50.66 56.144L42.9 63.856C42.567 64.1845 42.172 64.4435 41.738 64.6179C41.304 64.7923 40.8397 64.8787 40.372 64.872ZM19.9 42.832L31.772 54.4L39.58 62.128C39.7938 62.3371 40.0809 62.4542 40.38 62.4542C40.6791 62.4542 40.9662 62.3371 41.18 62.128L48.98 54.4L61.1 42.72V16.968C61.0853 16.325 60.819 15.7134 60.3583 15.2646C59.8976 14.8159 59.2792 14.5657 58.636 14.568H22.364C21.7202 14.5637 21.1006 14.8131 20.6395 15.2623C20.1783 15.7115 19.9126 16.3243 19.9 16.968V42.832Z" fill="#AAAAAA"/>
<path d="M40.9081 51.392C37.5367 51.3683 34.2479 50.3469 31.4563 48.4567C28.6646 46.5665 26.4952 43.892 25.2214 40.7704C23.9476 37.6489 23.6266 34.2202 24.2989 30.9165C24.9711 27.6128 26.6064 24.5821 28.9987 22.2065C31.391 19.8309 34.433 18.2168 37.7414 17.5678C41.0497 16.9187 44.4761 17.2637 47.5886 18.5593C50.7012 19.8549 53.3604 22.0431 55.231 24.8479C57.1017 27.6527 58.1 30.9486 58.1001 34.32C58.0789 38.8621 56.257 43.2103 53.034 46.4107C49.811 49.6112 45.4501 51.4026 40.9081 51.392ZM40.9081 19.648C38.0114 19.6717 35.1866 20.5523 32.7897 22.1788C30.3927 23.8053 28.5309 26.105 27.4388 28.7879C26.3466 31.4709 26.0732 34.4171 26.6528 37.2552C27.2324 40.0934 28.6391 42.6964 30.6957 44.7363C32.7523 46.7763 35.3668 48.1618 38.2095 48.7182C41.0523 49.2747 43.9962 48.9772 46.6702 47.8633C49.3441 46.7494 51.6285 44.8688 53.2355 42.4587C54.8424 40.0486 55.7 37.2167 55.7001 34.32C55.681 30.4138 54.1126 26.6748 51.3393 23.924C48.5659 21.1731 44.8143 19.6352 40.9081 19.648Z" fill="#AAAAAA"/>
<path d="M40.9077 44.32C36.0437 44.32 30.8037 42.976 30.8037 40.024V33.16C30.8037 32.8417 30.9301 32.5365 31.1552 32.3114C31.3802 32.0864 31.6855 31.96 32.0037 31.96C32.322 31.96 32.6272 32.0864 32.8522 32.3114C33.0773 32.5365 33.2037 32.8417 33.2037 33.16V40C33.3477 40.504 35.9557 41.896 40.9077 41.896C45.8597 41.896 48.4997 40.528 48.6197 40V33.16C48.6197 32.8417 48.7461 32.5365 48.9712 32.3114C49.1962 32.0864 49.5014 31.96 49.8197 31.96C50.138 31.96 50.4432 32.0864 50.6682 32.3114C50.8933 32.5365 51.0197 32.8417 51.0197 33.16V40C51.0197 42.976 45.7797 44.32 40.9077 44.32Z" fill="#AAAAAA"/>
<path d="M40.9079 37.464C36.0359 37.464 30.7959 36.12 30.7959 33.16C30.7959 30.2 36.0359 28.864 40.9079 28.864C41.2262 28.864 41.5314 28.9904 41.7564 29.2155C41.9815 29.4405 42.1079 29.7458 42.1079 30.064C42.1079 30.3823 41.9815 30.6875 41.7564 30.9125C41.5314 31.1376 41.2262 31.264 40.9079 31.264C35.9319 31.264 33.3399 32.656 33.1959 33.176C33.3559 33.672 35.9719 35.064 40.9079 35.064C45.8439 35.064 48.4679 33.672 48.6199 33.144C48.6199 33.072 48.1879 32.568 46.7399 32.088C46.4376 31.9883 46.1872 31.7725 46.0439 31.4882C45.9006 31.2039 45.8762 30.8744 45.9759 30.572C46.0756 30.2697 46.2914 30.0193 46.5757 29.876C46.86 29.7328 47.1896 29.7083 47.4919 29.808C50.4119 30.776 51.0199 32.208 51.0199 33.16C51.0199 36.12 45.7799 37.464 40.9079 37.464Z" fill="#AAAAAA"/>
<path d="M40.908 34.4001C40.5897 34.4001 40.2845 34.2736 40.0595 34.0486C39.8344 33.8236 39.708 33.5183 39.708 33.2001V25.5201C39.708 25.2018 39.8344 24.8966 40.0595 24.6715C40.2845 24.4465 40.5897 24.3201 40.908 24.3201C41.2263 24.3201 41.5315 24.4465 41.7565 24.6715C41.9816 24.8966 42.108 25.2018 42.108 25.5201V33.1601C42.1134 33.321 42.0863 33.4813 42.0284 33.6316C41.9705 33.7818 41.883 33.9189 41.771 34.0346C41.659 34.1503 41.5249 34.2423 41.3767 34.3051C41.2284 34.3678 41.069 34.4002 40.908 34.4001Z" fill="#AAAAAA"/>
<path d="M46.62 32.296H40.908C40.5897 32.296 40.2845 32.1696 40.0595 31.9445C39.8344 31.7195 39.708 31.4142 39.708 31.096V25.496C39.708 25.1777 39.8344 24.8725 40.0595 24.6475C40.2845 24.4224 40.5897 24.296 40.908 24.296H46.62C46.9969 24.2905 47.3676 24.3921 47.6891 24.589C48.0105 24.7858 48.2695 25.0698 48.436 25.408C48.5928 25.73 48.6564 26.0894 48.6197 26.4457C48.5829 26.8019 48.4473 27.1408 48.228 27.424L47.564 28.28L48.228 29.144C48.4551 29.4312 48.5954 29.7773 48.6322 30.1416C48.6691 30.5059 48.601 30.8731 48.436 31.2C48.2658 31.534 48.0055 31.8136 47.6845 32.0073C47.3636 32.201 46.9948 32.301 46.62 32.296ZM42.108 29.896H45.756L45.436 29.48C45.1797 29.143 45.041 28.7313 45.041 28.308C45.041 27.8846 45.1797 27.4729 45.436 27.136L45.756 26.72H42.1L42.108 29.896Z" fill="#AAAAAA"/>
</svg>
