<svg width="21" height="20" viewBox="0 0 21 20" fill="none" xmlns="http://www.w3.org/2000/svg">
<g clip-path="url(#clip0_593_2726)">
<path d="M13.8333 11.6667C13.8333 11.8877 13.7455 12.0996 13.5893 12.2559C13.433 12.4122 13.221 12.5 13 12.5H12.1667C11.9457 12.5 11.7337 12.4122 11.5774 12.2559C11.4211 12.0996 11.3333 11.8877 11.3333 11.6667C11.3333 11.4457 11.4211 11.2337 11.5774 11.0774C11.7337 10.9211 11.9457 10.8333 12.1667 10.8333H13C13.221 10.8333 13.433 10.9211 13.5893 11.0774C13.7455 11.2337 13.8333 11.4457 13.8333 11.6667ZM16.3333 10.8333H15.5C15.279 10.8333 15.067 10.9211 14.9107 11.0774C14.7545 11.2337 14.6667 11.4457 14.6667 11.6667C14.6667 11.8877 14.7545 12.0996 14.9107 12.2559C15.067 12.4122 15.279 12.5 15.5 12.5H16.3333C16.5543 12.5 16.7663 12.4122 16.9226 12.2559C17.0789 12.0996 17.1667 11.8877 17.1667 11.6667C17.1667 11.4457 17.0789 11.2337 16.9226 11.0774C16.7663 10.9211 16.5543 10.8333 16.3333 10.8333ZM13 14.1667H12.1667C11.9457 14.1667 11.7337 14.2545 11.5774 14.4107C11.4211 14.567 11.3333 14.779 11.3333 15C11.3333 15.221 11.4211 15.433 11.5774 15.5893C11.7337 15.7455 11.9457 15.8333 12.1667 15.8333H13C13.221 15.8333 13.433 15.7455 13.5893 15.5893C13.7455 15.433 13.8333 15.221 13.8333 15C13.8333 14.779 13.7455 14.567 13.5893 14.4107C13.433 14.2545 13.221 14.1667 13 14.1667ZM16.3333 14.1667H15.5C15.279 14.1667 15.067 14.2545 14.9107 14.4107C14.7545 14.567 14.6667 14.779 14.6667 15C14.6667 15.221 14.7545 15.433 14.9107 15.5893C15.067 15.7455 15.279 15.8333 15.5 15.8333H16.3333C16.5543 15.8333 16.7663 15.7455 16.9226 15.5893C17.0789 15.433 17.1667 15.221 17.1667 15C17.1667 14.779 17.0789 14.567 16.9226 14.4107C16.7663 14.2545 16.5543 14.1667 16.3333 14.1667ZM13 4.16667H12.1667C11.9457 4.16667 11.7337 4.25446 11.5774 4.41074C11.4211 4.56702 11.3333 4.77899 11.3333 5C11.3333 5.22101 11.4211 5.43297 11.5774 5.58926C11.7337 5.74554 11.9457 5.83333 12.1667 5.83333H13C13.221 5.83333 13.433 5.74554 13.5893 5.58926C13.7455 5.43297 13.8333 5.22101 13.8333 5C13.8333 4.77899 13.7455 4.56702 13.5893 4.41074C13.433 4.25446 13.221 4.16667 13 4.16667ZM16.3333 4.16667H15.5C15.279 4.16667 15.067 4.25446 14.9107 4.41074C14.7545 4.56702 14.6667 4.77899 14.6667 5C14.6667 5.22101 14.7545 5.43297 14.9107 5.58926C15.067 5.74554 15.279 5.83333 15.5 5.83333H16.3333C16.5543 5.83333 16.7663 5.74554 16.9226 5.58926C17.0789 5.43297 17.1667 5.22101 17.1667 5C17.1667 4.77899 17.0789 4.56702 16.9226 4.41074C16.7663 4.25446 16.5543 4.16667 16.3333 4.16667ZM13 7.5H12.1667C11.9457 7.5 11.7337 7.5878 11.5774 7.74408C11.4211 7.90036 11.3333 8.11232 11.3333 8.33333C11.3333 8.55435 11.4211 8.76631 11.5774 8.92259C11.7337 9.07887 11.9457 9.16667 12.1667 9.16667H13C13.221 9.16667 13.433 9.07887 13.5893 8.92259C13.7455 8.76631 13.8333 8.55435 13.8333 8.33333C13.8333 8.11232 13.7455 7.90036 13.5893 7.74408C13.433 7.5878 13.221 7.5 13 7.5ZM16.3333 7.5H15.5C15.279 7.5 15.067 7.5878 14.9107 7.74408C14.7545 7.90036 14.6667 8.11232 14.6667 8.33333C14.6667 8.55435 14.7545 8.76631 14.9107 8.92259C15.067 9.07887 15.279 9.16667 15.5 9.16667H16.3333C16.5543 9.16667 16.7663 9.07887 16.9226 8.92259C17.0789 8.76631 17.1667 8.55435 17.1667 8.33333C17.1667 8.11232 17.0789 7.90036 16.9226 7.74408C16.7663 7.5878 16.5543 7.5 16.3333 7.5ZM20.5 4.16667V15.8333C20.5 18.1308 18.6308 20 16.3333 20H4.66667C2.36917 20 0.5 18.1308 0.5 15.8333V7.715C0.5 6.58917 0.965 5.495 1.77583 4.71417L3.34917 3.19917C3.81401 2.74861 4.43597 2.49665 5.08333 2.49665C5.7307 2.49665 6.35265 2.74861 6.8175 3.19917L8 4.33833V4.16667C8 1.86917 9.86917 0 12.1667 0H16.3333C18.6308 0 20.5 1.86917 20.5 4.16667ZM8 7.715C8 7.03917 7.72083 6.38333 7.23417 5.91417L5.66083 4.39917C5.50631 4.2486 5.29909 4.16433 5.08333 4.16433C4.86758 4.16433 4.66036 4.2486 4.50583 4.39917L2.9325 5.91417C2.69084 6.14782 2.49853 6.4276 2.36699 6.73693C2.23544 7.04626 2.16732 7.37886 2.16667 7.715V15.8333C2.16667 17.2117 3.28833 18.3333 4.66667 18.3333H8V7.715ZM18.8333 4.16667C18.8333 2.78833 17.7117 1.66667 16.3333 1.66667H12.1667C10.7883 1.66667 9.66667 2.78833 9.66667 4.16667V18.3333H16.3333C17.7117 18.3333 18.8333 17.2117 18.8333 15.8333V4.16667ZM5.5 10.8333H4.66667C4.44565 10.8333 4.23369 10.9211 4.07741 11.0774C3.92113 11.2337 3.83333 11.4457 3.83333 11.6667C3.83333 11.8877 3.92113 12.0996 4.07741 12.2559C4.23369 12.4122 4.44565 12.5 4.66667 12.5H5.5C5.72101 12.5 5.93297 12.4122 6.08926 12.2559C6.24554 12.0996 6.33333 11.8877 6.33333 11.6667C6.33333 11.4457 6.24554 11.2337 6.08926 11.0774C5.93297 10.9211 5.72101 10.8333 5.5 10.8333ZM5.5 7.5H4.66667C4.44565 7.5 4.23369 7.5878 4.07741 7.74408C3.92113 7.90036 3.83333 8.11232 3.83333 8.33333C3.83333 8.55435 3.92113 8.76631 4.07741 8.92259C4.23369 9.07887 4.44565 9.16667 4.66667 9.16667H5.5C5.72101 9.16667 5.93297 9.07887 6.08926 8.92259C6.24554 8.76631 6.33333 8.55435 6.33333 8.33333C6.33333 8.11232 6.24554 7.90036 6.08926 7.74408C5.93297 7.5878 5.72101 7.5 5.5 7.5ZM5.5 14.1667H4.66667C4.44565 14.1667 4.23369 14.2545 4.07741 14.4107C3.92113 14.567 3.83333 14.779 3.83333 15C3.83333 15.221 3.92113 15.433 4.07741 15.5893C4.23369 15.7455 4.44565 15.8333 4.66667 15.8333H5.5C5.72101 15.8333 5.93297 15.7455 6.08926 15.5893C6.24554 15.433 6.33333 15.221 6.33333 15C6.33333 14.779 6.24554 14.567 6.08926 14.4107C5.93297 14.2545 5.72101 14.1667 5.5 14.1667Z" fill="#0E7967"/>
</g>
<defs>
<clipPath id="clip0_593_2726">
<rect width="20" height="20" fill="white" transform="translate(0.5)"/>
</clipPath>
</defs>
</svg>
