<svg width="64" height="64" viewBox="0 0 64 64" fill="none" xmlns="http://www.w3.org/2000/svg">
<g clip-path="url(#clip0_68_4646)">
<path d="M33.3685 52.8984H30.6309V55.5146L30.7246 55.9568C31.1467 55.9801 31.5717 55.9922 31.9997 55.9922C32.4276 55.9922 32.8526 55.9801 33.2748 55.9568L33.3685 55.5146L33.3685 52.8984Z" fill="#FE9901"/>
<path d="M32 10.0723C19.3147 10.0723 9.03125 20.3557 9.03125 33.041C9.03125 39.7494 11.9077 45.7854 16.4938 49.9847L16.5876 50.0139V47.982L11.151 36.3233L14.1676 34.9167L18.5856 44.391C18.631 44.4879 18.7031 44.5698 18.7934 44.6273C18.8836 44.6848 18.9884 44.7155 19.0954 44.7157H27.9126C29.4118 44.7157 30.6313 45.9353 30.6313 47.4345V53.0099H33.3689V47.4345C33.3689 45.9353 34.5885 44.7157 36.0877 44.7157H44.8697L49.8326 34.073L52.8492 35.4796L47.4126 47.1384V50.014L47.5063 49.9848C52.0923 45.7854 54.9688 39.7494 54.9688 33.041C54.9688 20.3558 44.6853 10.0723 32 10.0723Z" fill="#1A9D56"/>
<path d="M45.9139 39.3224L45.9381 39.4357C45.9578 39.528 45.9678 39.6215 45.9678 39.7135V40.453C45.9678 41.1827 45.3741 41.7764 44.6443 41.7764H44.2096L44.1979 41.8566C44.027 43.0295 43.0902 43.9791 41.9198 44.1659L41.8408 44.1784V44.7156H44.8694L47.3843 39.3223H45.9139V39.3224Z" fill="#BB5D4C"/>
<path d="M29.0922 12.7848L29.3124 12.7856L31.6376 11.7013L31.9529 11.0253L31.3976 9.49982C31.381 9.45211 31.3719 9.4021 31.3707 9.3516L31.096 8.76257C30.7918 8.11025 30.0164 7.82797 29.3641 8.13219L28.5399 8.51647C27.8876 8.82069 27.6053 9.5961 27.9095 10.2484L29.0922 12.7848Z" fill="#EA9B58"/>
<path d="M29.4333 10.535C29.129 9.88265 29.4113 9.10715 30.0636 8.80303L30.8701 8.42699C30.4956 8.02321 29.89 7.88681 29.3641 8.13206L28.5399 8.51634C27.8876 8.82056 27.6053 9.59596 27.9095 10.2483L29.0923 12.7847L29.3125 12.7854L30.2737 12.3372L29.4333 10.535Z" fill="#D88A55"/>
<path d="M55.247 8.51647L54.4229 8.13219C53.7706 7.82797 52.9951 8.11025 52.691 8.76257L52.3384 9.51875L52.1973 9.131C52.1425 8.9871 52.0334 8.87051 51.8934 8.80644C51.7534 8.74237 51.5938 8.73597 51.4491 8.78862C51.3044 8.84127 51.1863 8.94875 51.1202 9.08781C51.0541 9.22688 51.0454 9.38636 51.096 9.53179L51.638 11.0208L51.5083 11.2989L51.5806 11.436L54.4915 12.7934L54.6949 12.7848L55.8776 10.2484C56.1816 9.5961 55.8994 8.8206 55.247 8.51647Z" fill="#EA9B58"/>
<path d="M12.2738 11.5039L12.4916 11.2989L12.362 11.0208L12.904 9.53179C12.9303 9.45947 12.9421 9.38269 12.9387 9.30581C12.9354 9.22893 12.9169 9.15347 12.8844 9.08372C12.8519 9.01398 12.8059 8.95133 12.7492 8.89935C12.6924 8.84736 12.626 8.80707 12.5537 8.78075C12.4814 8.75443 12.4046 8.74262 12.3277 8.74597C12.2509 8.74933 12.1754 8.7678 12.1056 8.80032C12.0359 8.83285 11.9733 8.87879 11.9213 8.93553C11.8693 8.99227 11.829 9.05869 11.8027 9.131L11.6616 9.51875L11.309 8.76257C11.0048 8.11025 10.2294 7.82797 9.57705 8.13219L8.7528 8.51647C8.10049 8.8206 7.81821 9.5961 8.12243 10.2484L9.30518 12.7848L9.5253 12.7857L12.2738 11.5039Z" fill="#FFBD86"/>
<path d="M9.71618 10.2483C9.41196 9.59602 9.69424 8.82052 10.3466 8.51639L10.8956 8.26036C10.5246 7.99036 10.0223 7.92445 9.57696 8.13202L8.7528 8.51639C8.10049 8.82052 7.81821 9.59602 8.12243 10.2483L9.30518 12.7847L9.5253 12.7856L10.654 12.2593L9.71618 10.2483Z" fill="#F6A96C"/>
<path d="M53.5263 31.1649L52.7022 30.7806C52.0499 30.4764 51.2744 30.7587 50.9702 31.411L50.6177 32.1672L50.4766 31.7794C50.4218 31.6355 50.3127 31.5189 50.1727 31.4549C50.0327 31.3908 49.8731 31.3844 49.7284 31.4371C49.5837 31.4897 49.4656 31.5972 49.3995 31.7363C49.3334 31.8753 49.3247 32.0348 49.3753 32.1802L49.9172 33.6693L49.7876 33.9473L49.8562 34.0828L52.7606 35.4372L52.9741 35.4333L54.1568 32.8968C54.4609 32.2445 54.1787 31.4691 53.5263 31.1649Z" fill="#FED2A4"/>
<path d="M49.9163 33.67L49.7866 33.948L50.6186 34.336L50.7329 34.0373C50.8137 33.8264 50.8157 33.5934 50.7385 33.3812L50.3163 32.2212C50.2819 32.1265 50.2725 32.0245 50.2891 31.9251C50.3056 31.8257 50.3476 31.7323 50.4109 31.6539C50.3336 31.5386 50.2178 31.4546 50.0843 31.4167C49.9508 31.3789 49.8081 31.3897 49.6818 31.4472C49.3993 31.5752 49.2764 31.9119 49.3825 32.2033L49.9163 33.67Z" fill="#FFBD86"/>
<path d="M14.1446 34.9265L14.2132 34.7911L14.0836 34.513L14.6255 33.024C14.6519 32.9517 14.6637 32.8749 14.6603 32.798C14.657 32.7211 14.6385 32.6457 14.606 32.5759C14.5734 32.5062 14.5275 32.4435 14.4708 32.3915C14.414 32.3396 14.3476 32.2993 14.2753 32.2729C14.203 32.2466 14.1262 32.2348 14.0493 32.2382C13.9724 32.2415 13.897 32.26 13.8272 32.2925C13.7575 32.325 13.6948 32.371 13.6429 32.4277C13.5909 32.4845 13.5506 32.5509 13.5243 32.6232L13.3832 33.0109L13.0306 32.2548C12.7264 31.6024 11.9509 31.3202 11.2986 31.6244L10.4745 32.0087C9.82217 32.3129 9.53989 33.0883 9.84411 33.7406L11.0269 36.277L11.2403 36.2809L14.1446 34.9265Z" fill="#EA9B58"/>
<path d="M11.4334 33.7405C11.1291 33.0882 11.4114 32.3127 12.0637 32.0086L12.6154 31.7513C12.2446 31.4824 11.7431 31.4169 11.2986 31.6242L10.4745 32.0085C9.82217 32.3127 9.53989 33.0881 9.84411 33.7404L11.0269 36.2768L11.2403 36.2807L12.3719 35.753L11.4334 33.7405Z" fill="#D88A55"/>
<path d="M18.0614 39.4356L18.0856 39.3223H16.2217L17.9602 43.0504L18.0404 42.8486C18.2026 42.4424 18.4583 42.0802 18.7868 41.7914L18.8917 41.6992L18.7667 41.637C18.3133 41.4111 18.0316 40.9575 18.0316 40.4529V39.7134C18.0317 39.6214 18.0417 39.528 18.0614 39.4356Z" fill="#BB5D4C"/>
<path d="M31.6988 11.5691L29.0918 12.7848L30.1119 14.9723L31.6988 11.5691ZM51.5082 11.2988L46.6858 21.6406C46.6046 22.3571 45.9955 22.9159 45.2576 22.9159H38.5289C37.791 22.9159 37.1819 22.357 37.1007 21.6405L33.8878 14.7504L31.9481 18.9101L33.8946 23.0844C34.1806 22.829 34.548 22.6846 34.938 22.6846C35.8059 22.6846 36.512 23.3906 36.512 24.2585C36.512 24.3175 36.5079 24.379 36.4988 24.452L36.4886 24.5354L36.5704 24.5547C36.9159 24.6349 37.2239 24.83 37.4441 25.108C37.6644 25.386 37.7837 25.7305 37.7827 26.0852C37.7827 26.525 37.5951 26.9484 37.268 27.2468L37.1921 27.3161L37.268 27.3854C37.5951 27.6839 37.7827 28.1073 37.7827 28.547C37.7827 28.9495 37.6279 29.3338 37.3469 29.629L37.294 29.6846L37.338 29.7474C37.494 29.9692 37.5776 30.2338 37.5773 30.505V31.2445C37.5773 31.9743 36.9836 32.568 36.2538 32.568H35.8191L35.8074 32.6482C35.7449 33.0747 35.5815 33.4801 35.3308 33.8307V35.5072H35.6933L35.7112 35.4365C36.1645 33.6396 37.7768 32.3848 39.6321 32.3848H41.149C43.3788 32.3848 45.193 34.199 45.193 36.4288V38.5087L45.2442 38.5348C45.4167 38.6221 45.568 38.7463 45.6871 38.8986C45.8063 39.0509 45.8905 39.2276 45.9338 39.416H47.3408L48.4559 37.0249V26.1642L54.6946 12.7848L51.5082 11.2988Z" fill="#97D729"/>
<path d="M51.5082 11.2988L46.7894 21.4183V21.4778C46.7895 21.7277 46.7283 21.9739 46.611 22.1945H47.4339C47.5231 22.1945 47.6105 22.1691 47.6858 22.1211C47.761 22.0732 47.821 22.0048 47.8588 21.9239L52.5802 11.7987L51.5082 11.2988ZM31.6988 11.5691L29.0918 12.7848L30.1119 14.9723L31.6988 11.5691ZM34.9381 22.5909C34.9485 22.5909 34.9584 22.5922 34.9686 22.5924L32.5986 17.5151L31.9481 18.9102L33.8526 22.9945C34.1541 22.7338 34.5395 22.5905 34.9381 22.5909ZM35.6203 35.4134C35.7949 34.7239 36.1448 34.0912 36.636 33.5766V32.608C36.5116 32.6433 36.3831 32.6613 36.2538 32.6616H35.9001C35.8292 33.1471 35.633 33.6058 35.3308 33.9923V35.4135H35.6203V35.4134Z" fill="#8BC727"/>
<path d="M35.4599 8.51647L34.6358 8.13219C33.9835 7.82797 33.208 8.11025 32.9038 8.76257L32.5512 9.51875L32.4102 9.131C32.3554 8.9871 32.2463 8.87051 32.1063 8.80644C31.9663 8.74237 31.8067 8.73597 31.662 8.78862C31.5173 8.84127 31.3992 8.94875 31.3331 9.08781C31.267 9.22688 31.2583 9.38636 31.3089 9.53179L31.8508 11.0208L31.7212 11.2989L31.8945 11.4831L34.6874 12.7855L34.9077 12.7847L36.0904 10.2483C36.3945 9.5961 36.1122 8.8206 35.4599 8.51647Z" fill="#FFBD86"/>
<path d="M32.9627 11.1973C32.9893 11.1412 33.0045 11.0804 33.0074 11.0184C33.0103 10.9564 33.0009 10.8945 32.9796 10.8362L32.5047 9.53127C32.4771 9.4555 32.4655 9.37483 32.4707 9.29436L32.4194 9.15355C32.3096 8.85205 31.9816 8.67364 31.677 8.77433C31.6025 8.79889 31.5336 8.83816 31.4746 8.88982C31.4155 8.94149 31.3674 9.00449 31.3332 9.07508C31.2989 9.14568 31.2792 9.22244 31.2752 9.3008C31.2712 9.37916 31.2829 9.45753 31.3098 9.53127L31.8517 11.0203L31.7221 11.2984L31.8954 11.4826L32.6587 11.8385L32.9627 11.1973Z" fill="#F6A96C"/>
<path d="M41.8933 9.60352C39.1892 9.60352 36.9971 11.7956 36.9971 14.4996V21.478C36.9971 22.324 37.6829 23.0098 38.5289 23.0098H45.2576C46.1036 23.0098 46.7894 22.324 46.7894 21.478V14.4997C46.7894 11.7957 44.5973 9.60352 41.8933 9.60352Z" fill="#596C76"/>
<path d="M37.6393 15.8691H38.0565V15.6973C38.0565 15.2321 38.4351 14.8535 38.9003 14.8535H39.3639V14.4996C39.3639 12.2037 40.9445 10.2777 43.0767 9.74836C42.6896 9.65213 42.2922 9.60349 41.8934 9.60352C39.1893 9.60352 36.9973 11.7956 36.9973 14.4996V16.0241C37.1959 15.9223 37.416 15.8691 37.6393 15.8691ZM39.3638 21.4781V20.8181C38.9202 20.4283 38.5721 19.9418 38.3462 19.3962C38.3526 19.4117 38.3583 19.4276 38.365 19.443H37.6393C37.4078 19.443 37.19 19.3864 36.9971 19.2881V21.4781C36.9971 22.3241 37.6829 23.0099 38.5289 23.0099H40.8956C40.0496 23.0098 39.3638 22.324 39.3638 21.4781Z" fill="#465A61"/>
<path d="M41.8938 21.7729C41.362 21.7732 40.836 21.6623 40.3496 21.4473V23.0151C40.3496 23.6736 40.8834 24.2075 41.5419 24.2075H42.2456C42.9041 24.2075 43.4379 23.6736 43.4379 23.0151V21.4473C42.9515 21.6623 42.4256 21.7732 41.8938 21.7729Z" fill="#D88A55"/>
<path d="M41.6482 23.0165V21.8596C41.201 21.8325 40.7617 21.7287 40.3496 21.5527V23.0165C40.3496 23.675 40.8834 24.2089 41.5419 24.2089H42.2456C42.3485 24.2089 42.4478 24.1944 42.5431 24.17C42.0289 24.0376 41.6482 23.5721 41.6482 23.0165Z" fill="#C57A44"/>
<path d="M38.0562 17.9368V15.8691H37.6389C36.8562 15.8691 36.2217 16.5036 36.2217 17.2864V18.0259C36.2217 18.8086 36.8562 19.4431 37.6389 19.4431H38.3646C38.1607 18.9671 38.0557 18.4546 38.0562 17.9368ZM46.1469 15.8691H45.7296V17.9368C45.7301 18.4546 45.6252 18.9671 45.4212 19.443H46.1469C46.9296 19.443 47.5641 18.8085 47.5641 18.0258V17.2863C47.5641 16.5036 46.9296 15.8691 46.1469 15.8691Z" fill="#D88A55"/>
<path d="M43.4363 13.637C43.5454 13.555 43.6711 13.4978 43.8046 13.4695C43.9382 13.4412 44.0763 13.4425 44.2093 13.4733C45.1348 13.6905 45.8238 14.5213 45.8238 15.513V17.9362C45.8238 20.107 44.0641 21.8666 41.8934 21.8666C39.7226 21.8666 37.9629 20.107 37.9629 17.9362V15.6967C37.9629 15.1789 38.3826 14.7592 38.9004 14.7592H41.6254C41.828 14.7592 42.0252 14.6935 42.1874 14.5721L43.4363 13.637Z" fill="#EA9B58"/>
<path d="M39.514 17.9368V15.6973C39.514 15.1795 39.9337 14.7598 40.4515 14.7598H38.9004C38.3826 14.7598 37.9629 15.1795 37.9629 15.6973V17.9367C37.9629 20.1075 39.7226 21.8671 41.8934 21.8671C42.1538 21.8671 42.4136 21.8414 42.669 21.7903C40.8696 21.4302 39.514 19.842 39.514 17.9368Z" fill="#D88A55"/>
<path d="M41.8936 20.6609C41.3837 20.661 40.8898 20.4832 40.497 20.1581C40.3561 20.0384 40.2681 19.868 40.252 19.6838C40.2358 19.4997 40.2928 19.3165 40.4107 19.1741C40.5285 19.0317 40.6977 18.9414 40.8816 18.9227C41.0655 18.9041 41.2494 18.9586 41.3934 19.0745C41.5403 19.1963 41.7266 19.2602 41.9173 19.2543C42.0917 19.2495 42.2594 19.1862 42.3935 19.0745C42.5375 18.9586 42.7214 18.9041 42.9053 18.9227C43.0893 18.9414 43.2584 19.0317 43.3763 19.1741C43.4941 19.3165 43.5511 19.4997 43.535 19.6838C43.5188 19.868 43.4308 20.0384 43.29 20.1581C42.8967 20.4823 42.4032 20.6599 41.8936 20.6609ZM39.7188 17.4283C39.5323 17.4283 39.3534 17.3542 39.2216 17.2224C39.0897 17.0905 39.0156 16.9117 39.0156 16.7252V16.1152C39.0156 15.9288 39.0897 15.7499 39.2216 15.6181C39.3534 15.4862 39.5323 15.4121 39.7188 15.4121C39.9052 15.4121 40.0841 15.4862 40.2159 15.6181C40.3478 15.7499 40.4219 15.9288 40.4219 16.1152V16.7252C40.4219 16.9117 40.3478 17.0905 40.2159 17.2224C40.0841 17.3542 39.9052 17.4283 39.7188 17.4283ZM44.0682 17.4283C43.8817 17.4283 43.7029 17.3542 43.571 17.2224C43.4391 17.0905 43.3651 16.9117 43.3651 16.7252V16.1152C43.3651 15.9288 43.4391 15.7499 43.571 15.6181C43.7029 15.4862 43.8817 15.4121 44.0682 15.4121C44.2547 15.4121 44.4335 15.4862 44.5654 15.6181C44.6972 15.7499 44.7713 15.9288 44.7713 16.1152V16.7252C44.7713 16.9117 44.6972 17.0905 44.5654 17.2224C44.4335 17.3542 44.2547 17.4283 44.0682 17.4283ZM41.8931 18.6751C41.7274 18.6753 41.5671 18.6167 41.4406 18.5098L40.8702 18.0294C40.7329 17.9138 40.645 17.7501 40.6246 17.5718C40.6041 17.3935 40.6526 17.2141 40.7601 17.0704L41.3305 16.308C41.4437 16.1628 41.6093 16.0678 41.7918 16.0434C41.9743 16.019 42.159 16.0671 42.3065 16.1774C42.4539 16.2877 42.5521 16.4513 42.5802 16.6333C42.6083 16.8152 42.5639 17.0009 42.4565 17.1505L42.2837 17.3814L42.3464 17.4342C42.4567 17.5271 42.5357 17.6517 42.5728 17.791C42.6099 17.9304 42.6033 18.0778 42.5538 18.2132C42.5043 18.3487 42.4144 18.4656 42.2962 18.5482C42.178 18.6309 42.0373 18.6751 41.8931 18.6751Z" fill="#BB5D4C"/>
<path d="M17.8529 15.962H18.2702V15.5128C18.2702 14.4092 19.1681 13.5114 20.2716 13.5114H23.9424C25.0459 13.5114 25.9438 14.4092 25.9438 15.5128V15.962H26.361C26.594 15.962 26.8128 16.023 27.0032 16.1292V12.9165C27.0032 11.475 25.8347 10.3066 24.3934 10.3066H19.8207C18.3793 10.3066 17.2109 11.4751 17.2109 12.9165V16.1292C17.4071 16.0194 17.6282 15.9619 17.8529 15.962Z" fill="#FE9901"/>
<path d="M20.0519 12.9165C20.0519 11.475 21.2204 10.3066 22.6617 10.3066H19.8207C18.3793 10.3066 17.2109 11.4751 17.2109 12.9165V16.1292C17.4072 16.0195 17.6283 15.9619 17.8531 15.962H18.2704V15.5128C18.2704 14.4836 19.0515 13.634 20.052 13.5241V12.9165H20.0519Z" fill="#FB8801"/>
<path d="M15.5436 37.8684L16.2652 39.4159H18.0642L18.0837 39.348C18.1758 39.027 18.3862 38.7529 18.6725 38.581L18.7852 38.5129L18.6839 38.4287C18.494 38.2714 18.3412 38.0741 18.2364 37.851C18.1316 37.6278 18.0773 37.3843 18.0775 37.1377C18.0775 36.6217 18.311 36.1415 18.7181 35.8204L18.7813 35.7705L18.7416 35.7005C18.6109 35.4704 18.5421 35.2104 18.5418 34.9458C18.5418 34.1008 19.2293 33.4134 20.0741 33.4134H20.4843L20.5111 33.389C21.3602 32.6172 22.4602 32.192 23.6088 32.192C24.7573 32.192 25.8574 32.6172 26.7065 33.389L26.7333 33.4134H27.1434C27.9398 33.4134 28.5955 34.0241 28.6685 34.8017V33.8306C28.4178 33.48 28.2544 33.0746 28.1918 32.6481L28.1801 32.5679H27.7454C27.0157 32.5679 26.4219 31.9742 26.4219 31.2444V30.5049C26.4219 30.2329 26.5047 29.9708 26.6613 29.7472L26.7052 29.6844L26.6524 29.6288C26.3713 29.3336 26.2165 28.9494 26.2165 28.5469C26.2165 28.1071 26.4041 27.6836 26.7313 27.3852L26.8073 27.3159L26.7313 27.2466C26.4042 26.9481 26.2165 26.5248 26.2165 26.085C26.2155 25.7303 26.3349 25.3858 26.5551 25.1078C26.7753 24.8298 27.0833 24.6347 27.4288 24.5545L27.5107 24.5352L27.5004 24.4518C27.492 24.3876 27.4876 24.323 27.4872 24.2584C27.4872 23.3905 28.1933 22.6844 29.0612 22.6844C29.4513 22.6844 29.8186 22.829 30.1046 23.0842L34.9074 12.7845L31.7211 11.2988L26.7665 21.9239C26.7288 22.0048 26.6687 22.0732 26.5935 22.1211C26.5182 22.1691 26.4308 22.1946 26.3416 22.1945H17.8705C17.7813 22.1945 17.6939 22.1691 17.6187 22.1211C17.5434 22.0732 17.4834 22.0048 17.4457 21.9239L12.4912 11.2988L9.30469 12.7848L15.5436 26.1642V37.8684Z" fill="#FE76A8"/>
<path d="M31.7211 11.2988L26.7665 21.9239C26.7301 22.0015 26.6732 22.0677 26.6018 22.1151C26.5304 22.1626 26.4474 22.1896 26.3617 22.193L26.3612 22.1945H27.3559C27.5343 22.1944 27.7091 22.1435 27.8596 22.0476C28.0101 21.9517 28.1301 21.8149 28.2055 21.6531L32.789 11.7966L31.7211 11.2988ZM15.5436 37.8684L16.2652 39.4159H17.1355V26.3699C17.1355 26.2344 17.1062 26.1005 17.0495 25.9775L11.3824 13.6835C11.3305 13.5709 11.3253 13.4423 11.368 13.3259C11.4106 13.2095 11.4977 13.1148 11.61 13.0624L13.0093 12.4099L12.4912 11.2988L9.30469 12.7848L15.5436 26.1642V37.8684Z" fill="#FE5694"/>
<path d="M23.2003 21.7739H21.0128C20.8594 21.7739 20.709 21.7606 20.5625 21.7363V23.0162C20.5625 23.6747 21.0963 24.2085 21.7548 24.2085H22.4585C23.117 24.2085 23.6508 23.6747 23.6508 23.0162V21.7363C23.5019 21.7612 23.3513 21.7737 23.2003 21.7739Z" fill="#FFBD86"/>
<path d="M21.861 23.0157V21.7734H21.0128C20.8594 21.7734 20.709 21.7601 20.5625 21.7358V23.0157C20.5625 23.6742 21.0963 24.208 21.7548 24.208H22.4585C22.5614 24.208 22.6607 24.1935 22.756 24.1691C22.2417 24.0367 21.861 23.5712 21.861 23.0157ZM45.3538 21.7352L44.5296 21.3509C43.8773 21.0467 43.1018 21.329 42.7977 21.9813L42.4451 22.7375L42.304 22.3498C42.2492 22.2058 42.1401 22.0893 42.0001 22.0252C41.8601 21.9611 41.7005 21.9547 41.5558 22.0074C41.4111 22.06 41.293 22.1675 41.2269 22.3066C41.1608 22.4456 41.1521 22.6051 41.2027 22.7505L41.7447 24.2396L41.615 24.5176L41.8204 24.7168L44.6066 26.016L44.8016 26.0035L45.9843 23.4671C46.2883 22.8148 46.0062 22.0393 45.3538 21.7352Z" fill="#F6A96C"/>
<path d="M42.8401 24.4131C42.8906 24.3016 42.8954 24.1746 42.8535 24.0595L42.3768 22.75C42.3441 22.6603 42.3339 22.5638 42.3472 22.4692L42.312 22.3723C42.2023 22.0708 41.8741 21.8924 41.5696 21.9931C41.495 22.0176 41.4262 22.0569 41.3671 22.1086C41.3081 22.1602 41.26 22.2232 41.2258 22.2938C41.1915 22.3644 41.1718 22.4412 41.1678 22.5195C41.1637 22.5979 41.1755 22.6763 41.2023 22.75L41.7443 24.239L41.6147 24.5171L41.8201 24.7163L42.5491 25.0563L42.8401 24.4131Z" fill="#EA9B58"/>
<path d="M18.27 19.0306V15.8691H17.8527C17.07 15.8691 16.4355 16.5036 16.4355 17.2864V18.0259C16.4355 18.8086 17.07 19.4431 17.8527 19.4431H18.301C18.2803 19.3065 18.27 19.1687 18.27 19.0306Z" fill="#F6A96C"/>
<path d="M26.3604 15.8691H25.9431V19.0306C25.9431 19.1707 25.9325 19.3085 25.9121 19.443H26.3604C27.1431 19.443 27.7776 18.8085 27.7776 18.0258V17.2863C27.7776 16.5036 27.1431 15.8691 26.3604 15.8691Z" fill="#FFBD86"/>
<path d="M23.2001 21.8667H21.0125C19.4458 21.8667 18.1758 20.5967 18.1758 19.03V15.5131C18.1758 14.356 19.1138 13.418 20.2709 13.418H23.9417C25.0988 13.418 26.0368 14.3559 26.0368 15.5131V19.03C26.0368 20.5967 24.7668 21.8667 23.2001 21.8667Z" fill="#FED2A4"/>
<path d="M20.0124 19.03V15.5131C20.0124 14.356 20.9504 13.418 22.1076 13.418H20.2709C19.1138 13.418 18.1758 14.3559 18.1758 15.5131V19.03C18.1758 20.5967 19.4458 21.8667 21.0125 21.8667H22.8491C21.2824 21.8667 20.0124 20.5967 20.0124 19.03Z" fill="#FFBD86"/>
<path d="M22.2018 24.7065L22.3851 24.5176L22.2554 24.2396L22.7974 22.7505C22.8237 22.6782 22.8356 22.6014 22.8322 22.5246C22.8288 22.4477 22.8104 22.3722 22.7778 22.3025C22.7453 22.2327 22.6994 22.1701 22.6426 22.1181C22.5859 22.0661 22.5195 22.0258 22.4472 21.9995C22.3749 21.9732 22.2981 21.9614 22.2212 21.9647C22.1443 21.9681 22.0688 21.9865 21.9991 22.0191C21.9294 22.0516 21.8667 22.0975 21.8147 22.1543C21.7627 22.211 21.7224 22.2774 21.6961 22.3498L21.555 22.7375L21.2024 21.9813C20.8982 21.329 20.1228 21.0467 19.4705 21.3509L18.6464 21.7352C17.994 22.0394 17.7118 22.8148 18.016 23.4672L19.1987 26.0036L19.4189 26.0043L22.2018 24.7065Z" fill="#F6A96C"/>
<path d="M19.5894 23.4669C19.2852 22.8146 19.5674 22.0391 20.2198 21.735L20.7808 21.4734C20.4106 21.2084 19.9125 21.1446 19.4705 21.3507L18.6464 21.735C17.994 22.0392 17.7118 22.8146 18.016 23.4669L19.1987 26.0033L19.4189 26.0041L20.5307 25.4856L19.5894 23.4669Z" fill="#EA9B58"/>
<path d="M22.1065 20.6609C21.5967 20.661 21.1028 20.4832 20.71 20.1581C20.5691 20.0384 20.4811 19.868 20.4649 19.6838C20.4488 19.4997 20.5058 19.3165 20.6236 19.1741C20.7415 19.0317 20.9107 18.9414 21.0946 18.9227C21.2785 18.9041 21.4624 18.9586 21.6064 19.0745C21.7533 19.1963 21.9396 19.2602 22.1303 19.2543C22.3047 19.2495 22.4724 19.1862 22.6065 19.0745C22.7505 18.9586 22.9344 18.9041 23.1183 18.9227C23.3022 18.9414 23.4714 19.0317 23.5893 19.1741C23.7071 19.3165 23.7641 19.4997 23.748 19.6838C23.7318 19.868 23.6438 20.0384 23.503 20.1581C23.1097 20.4823 22.6162 20.6599 22.1065 20.6609ZM19.9316 17.4283C19.7452 17.4283 19.5663 17.3542 19.4345 17.2224C19.3026 17.0905 19.2285 16.9117 19.2285 16.7252V16.1152C19.2285 15.9288 19.3026 15.7499 19.4345 15.6181C19.5663 15.4862 19.7452 15.4121 19.9316 15.4121C20.1181 15.4121 20.297 15.4862 20.4288 15.6181C20.5607 15.7499 20.6348 15.9288 20.6348 16.1152V16.7252C20.6348 16.9117 20.5607 17.0905 20.4288 17.2224C20.297 17.3542 20.1181 17.4283 19.9316 17.4283ZM24.2811 17.4283C24.0946 17.4283 23.9158 17.3542 23.7839 17.2224C23.652 17.0905 23.578 16.9117 23.578 16.7252V16.1152C23.578 15.9288 23.652 15.7499 23.7839 15.6181C23.9158 15.4862 24.0946 15.4121 24.2811 15.4121C24.4676 15.4121 24.6464 15.4862 24.7783 15.6181C24.9101 15.7499 24.9842 15.9288 24.9842 16.1152V16.7252C24.9842 17.1136 24.6695 17.4283 24.2811 17.4283ZM22.106 18.6751C21.9403 18.6752 21.78 18.6167 21.6535 18.5098L21.0831 18.0294C20.9603 17.926 20.8766 17.7838 20.8459 17.6262C20.8151 17.4687 20.8392 17.3054 20.9141 17.1635L21.4845 16.0827C21.5727 15.9199 21.7216 15.7984 21.8988 15.7447C22.076 15.6909 22.2672 15.7093 22.431 15.7957C22.5948 15.8821 22.7178 16.0297 22.7734 16.2063C22.8291 16.3829 22.8128 16.5744 22.7281 16.739L22.4222 17.3188L22.5592 17.4342C22.6695 17.5271 22.7485 17.6517 22.7856 17.791C22.8227 17.9303 22.8161 18.0777 22.7666 18.2132C22.7172 18.3486 22.6272 18.4656 22.5091 18.5482C22.3909 18.6308 22.2502 18.6751 22.106 18.6751Z" fill="#D88A55"/>
<path d="M37.8763 26.086C37.8763 25.297 37.3279 24.6376 36.5918 24.4643C36.6001 24.397 36.6057 24.329 36.6057 24.2594C36.6057 23.3384 35.8591 22.5917 34.938 22.5917C34.4104 22.5917 33.9408 22.8374 33.6352 23.2198C33.484 22.4544 32.8096 21.877 31.9997 21.877C31.1899 21.877 30.5153 22.4544 30.3641 23.2198C30.0585 22.8373 29.589 22.5917 29.0614 22.5917C28.1404 22.5917 27.3936 23.3383 27.3936 24.2594C27.3936 24.3289 27.3993 24.397 27.4075 24.4643C26.6715 24.6376 26.123 25.297 26.123 26.086C26.123 26.5741 26.3341 27.0119 26.6684 27.3169C26.3341 27.6219 26.123 28.0597 26.123 28.5478C26.123 29.0276 26.3268 29.4588 26.6511 29.763C26.8895 29.4129 27.2912 29.1823 27.7458 29.1823H28.163V28.7331C28.163 27.6295 29.0609 26.7317 30.1644 26.7317H33.8351C34.9386 26.7317 35.8365 27.6295 35.8365 28.7331V29.1823H36.2537C36.7083 29.1823 37.1099 29.4129 37.3483 29.763C37.6726 29.4588 37.8764 29.0275 37.8764 28.5478C37.8764 28.0597 37.6654 27.6219 37.331 27.3169C37.6653 27.0119 37.8763 26.5741 37.8763 26.086Z" fill="#BB5D4C"/>
<path d="M26.5834 29.6962C26.8395 29.3292 27.2642 29.0886 27.7456 29.0886H28.0691V28.7331C28.0691 28.075 28.3728 27.4881 28.8473 27.104C28.6285 26.8224 28.4963 26.4703 28.4963 26.086C28.4963 25.3648 28.9546 24.752 29.5955 24.5195C29.7022 24.4808 29.7672 24.3751 29.767 24.2615V24.2594C29.767 23.8031 29.9507 23.39 30.2476 23.089C29.9453 22.7824 29.5259 22.5918 29.0614 22.5918C28.1404 22.5918 27.3936 23.3384 27.3936 24.2595C27.3936 24.329 27.3993 24.397 27.4075 24.4644C26.6715 24.6377 26.123 25.2971 26.123 26.086C26.123 26.5742 26.3341 27.012 26.6684 27.317C26.3341 27.622 26.123 28.0598 26.123 28.5479C26.123 28.9933 26.2987 29.397 26.5834 29.6962Z" fill="#A44F3E"/>
<path d="M39.6323 32.3847H41.1492C41.3712 32.3847 41.5888 32.4035 41.8012 32.438L44.8016 26.0035L41.6152 24.5176L37.7227 32.8651C38.3096 32.5491 38.9658 32.384 39.6323 32.3847Z" fill="#26A6FE"/>
<path d="M42.8323 26.3015L44.3358 27.0026L44.8016 26.0035L41.6152 24.5176L37.7227 32.8651C38.2632 32.5747 38.863 32.412 39.4762 32.3895L42.2093 26.5281C42.2619 26.4155 42.3571 26.3283 42.4739 26.2858C42.5907 26.2433 42.7197 26.249 42.8323 26.3015Z" fill="#0593FC"/>
<path d="M23.609 32.1919C24.6194 32.1911 25.6018 32.5234 26.4042 33.1374L22.3847 24.5176L19.1982 26.0035L22.1887 32.4165C22.6474 32.2677 23.1267 32.1919 23.609 32.1919Z" fill="#26A6FE"/>
<path d="M21.2809 26.365L22.8952 25.6123L22.3847 24.5176L19.1982 26.0035L22.1887 32.4165C22.607 32.2812 23.0426 32.2064 23.4821 32.1945L21.0543 26.988C21.0017 26.8753 20.9961 26.7464 21.0386 26.6296C21.0811 26.5127 21.1682 26.4176 21.2809 26.365Z" fill="#0593FC"/>
<path d="M38.861 44.1663C37.6905 43.9795 36.7537 43.0299 36.5829 41.857L36.5711 41.7768H36.1364C35.4067 41.7768 34.8129 41.1831 34.8129 40.4534V39.7139C34.8129 39.2145 35.0903 38.7628 35.5368 38.5353L35.588 38.5092V36.4293C35.588 36.0787 35.633 35.7385 35.7172 35.4141H28.602C28.5701 35.5138 28.528 35.61 28.4764 35.7011L28.4366 35.7712L28.4998 35.821C28.9069 36.1422 29.1404 36.6224 29.1404 37.1384C29.1406 37.385 29.0864 37.6285 28.9816 37.8517C28.8767 38.0748 28.7239 38.2721 28.534 38.4293L28.4327 38.5135L28.5455 38.5817C28.9469 38.8242 29.1865 39.2475 29.1865 39.714V40.4535C29.1865 41.1832 28.5928 41.7769 27.8631 41.7769H27.4284L27.4166 41.8571C27.2457 43.03 26.309 43.9796 25.1385 44.1664L25.0596 44.1789V44.7161H27.9123C29.4114 44.7161 30.631 45.9357 30.631 47.4349V53.0103H33.3686V47.4349C33.3686 45.9357 34.5882 44.7161 36.0874 44.7161H38.9401V44.1789L38.861 44.1663Z" fill="#26A6FE"/>
<path d="M36.1364 47.1795C36.1364 47.1795 45.0961 47.0733 45.2865 47.1795V36.4288C45.2865 34.1436 43.434 32.291 41.1488 32.291H39.6319C37.3467 32.291 35.4941 34.1435 35.4941 36.4288V38.5572C35.4941 40.617 35.9034 47.1795 36.1364 47.1795Z" fill="#FED402"/>
<path d="M41.69 32.3274C41.5106 32.3035 41.3298 32.2914 41.1488 32.291H39.6319C37.3467 32.291 35.4941 34.1435 35.4941 36.4288V47.4404C35.6904 47.3307 35.9115 47.2731 36.1363 47.2732H36.5536V37.9409C36.5536 36.988 37.2236 36.1898 38.1169 35.9894C38.3176 34.0893 39.8041 32.574 41.69 32.3274Z" fill="#FAC600"/>
<path d="M52.9739 35.4332L49.7874 33.9473L44.8102 44.6209H36.0879C34.5345 44.6209 33.2754 45.88 33.2754 47.4334V55.973C38.7495 55.6734 43.713 53.4573 47.5065 49.9837V47.158L52.9739 35.4332Z" fill="#7A8C98"/>
<path d="M51.0898 34.5546L49.7874 33.9473L44.8102 44.6209H45.7985C45.977 44.6209 46.1517 44.5699 46.3022 44.4741C46.4527 44.3782 46.5728 44.2413 46.6482 44.0796L51.0898 34.5546ZM35.6456 47.4333C35.6456 45.88 36.9047 44.6208 38.4581 44.6208H36.0879C34.5345 44.6208 33.2754 45.88 33.2754 47.4333V55.9729C34.0693 55.9292 34.8604 55.8444 35.6456 55.7188V47.4333Z" fill="#596C76"/>
<path d="M18.5858 44.3916C18.6312 44.4885 18.7033 44.5705 18.7936 44.628C18.8838 44.6855 18.9886 44.7161 19.0956 44.7164H22.1594V44.1792L22.0804 44.1666C20.9099 43.9799 19.9731 43.0303 19.8023 41.8574L19.7906 41.7771H19.3559C19.1582 41.7771 18.9712 41.7324 18.8026 41.6543C18.3911 41.9902 18.0811 42.434 17.9072 42.936L18.5858 44.3916Z" fill="#465A61"/>
<path d="M27.9123 44.6208H19.0951C19.0059 44.6208 18.9185 44.5953 18.8433 44.5474C18.768 44.4994 18.708 44.431 18.6703 44.3501L14.2128 34.791L11.0264 36.277L16.4938 48.0018V49.9838C20.2873 53.4574 25.2507 55.6735 30.7249 55.9731V47.4335C30.7248 45.88 29.4657 44.6208 27.9123 44.6208Z" fill="#FED402"/>
<path d="M30.2609 55.9425C30.4152 55.954 30.5698 55.9645 30.7249 55.9731V55.9371C30.5698 55.9378 30.415 55.9396 30.2609 55.9425ZM18.0611 51.2951V48.2082C18.0611 48.0723 18.0316 47.938 17.9745 47.8146L12.9774 37.0126C12.9253 36.9 12.92 36.7713 12.9626 36.6548C13.0052 36.5383 13.0923 36.4434 13.2047 36.391L14.6456 35.719L14.2128 34.791L11.0264 36.277L16.4938 48.0018V49.9838C16.9966 50.4438 17.5195 50.8814 18.0611 51.2951Z" fill="#FAC600"/>
<path d="M33.094 34.9927H30.9063C30.753 34.9927 30.6027 34.9795 30.4561 34.9551V36.235C30.4561 36.8935 30.9899 37.4273 31.6484 37.4273H32.3521C33.0106 37.4273 33.5444 36.8935 33.5444 36.235V34.9551C33.3955 34.9799 33.2449 34.9925 33.094 34.9927Z" fill="#F6A96C"/>
<path d="M31.7546 36.235V34.9927H30.9063C30.753 34.9927 30.6027 34.9795 30.4561 34.9551V36.235C30.4561 36.8935 30.9899 37.4273 31.6484 37.4273H32.3521C32.455 37.4273 32.5543 37.4128 32.6495 37.3884C32.1351 37.256 31.7546 36.7905 31.7546 36.235Z" fill="#EA9B58"/>
<path d="M28.1636 32.2493V29.0879H27.7463C26.9636 29.0879 26.3291 29.7224 26.3291 30.5051V31.2446C26.3291 32.0273 26.9636 32.6618 27.7463 32.6618H28.1946C28.174 32.5253 28.1636 32.3874 28.1636 32.2493ZM36.2543 29.0879H35.8371V32.2493C35.8371 32.3895 35.8264 32.5272 35.8061 32.6617H36.2544C37.0371 32.6617 37.6715 32.0272 37.6715 31.2445V30.505C37.6714 29.7224 37.0369 29.0879 36.2543 29.0879Z" fill="#F6A96C"/>
<path d="M33.0937 35.0855H30.906C29.3394 35.0855 28.0693 33.8154 28.0693 32.2488V28.7318C28.0693 27.5748 29.0073 26.6367 30.1645 26.6367H33.8352C34.9923 26.6367 35.9304 27.5747 35.9304 28.7318V32.2488C35.9304 33.8154 34.6603 35.0855 33.0937 35.0855Z" fill="#FFBD86"/>
<path d="M29.906 32.2488V28.7318C29.906 27.5748 30.844 26.6367 32.0011 26.6367H30.1645C29.0074 26.6367 28.0693 27.5747 28.0693 28.7318V32.2488C28.0693 33.8154 29.3394 35.0855 30.906 35.0855H32.7427C31.176 35.0855 29.906 33.8154 29.906 32.2488Z" fill="#F6A96C"/>
<path d="M32 33.8796C31.4901 33.8797 30.9962 33.7019 30.6034 33.3769C30.5323 33.318 30.4734 33.2457 30.4302 33.1641C30.387 33.0825 30.3602 32.9932 30.3516 32.9013C30.334 32.7156 30.3909 32.5306 30.5098 32.3869C30.6286 32.2432 30.7997 32.1526 30.9854 32.135C31.171 32.1174 31.3561 32.1743 31.4998 32.2932C31.6466 32.415 31.833 32.4789 32.0237 32.4729C32.1982 32.4682 32.366 32.4049 32.5001 32.2932C32.6441 32.1773 32.8279 32.1227 33.0119 32.1414C33.1958 32.16 33.365 32.2503 33.4828 32.3928C33.6007 32.5352 33.6577 32.7183 33.6415 32.9025C33.6254 33.0866 33.5373 33.257 33.3965 33.3768C33.0032 33.701 32.5097 33.8787 32 33.8796ZM29.8252 30.647C29.6387 30.647 29.4599 30.573 29.328 30.4411C29.1961 30.3092 29.1221 30.1304 29.1221 29.9439V29.334C29.1221 29.1475 29.1961 28.9687 29.328 28.8368C29.4599 28.7049 29.6387 28.6309 29.8252 28.6309C30.0117 28.6309 30.1905 28.7049 30.3224 28.8368C30.4542 28.9687 30.5283 29.1475 30.5283 29.334V29.9439C30.5283 30.1304 30.4542 30.3092 30.3224 30.4411C30.1905 30.573 30.0117 30.647 29.8252 30.647ZM34.1746 30.647C33.9882 30.647 33.8093 30.573 33.6774 30.4411C33.5456 30.3092 33.4715 30.1304 33.4715 29.9439V29.334C33.4715 29.1475 33.5456 28.9687 33.6774 28.8368C33.8093 28.7049 33.9882 28.6309 34.1746 28.6309C34.3611 28.6309 34.54 28.7049 34.6718 28.8368C34.8037 28.9687 34.8778 29.1475 34.8778 29.334V29.9439C34.8778 30.1304 34.8037 30.3092 34.6718 30.4411C34.54 30.573 34.3611 30.647 34.1746 30.647ZM31.9999 31.894C31.9245 31.894 31.8479 31.8818 31.7726 31.856C31.2486 31.6771 30.8672 31.2265 30.7773 30.6801C30.6874 30.1338 30.9043 29.5848 31.3434 29.2474L31.5714 29.0721C31.6446 29.0159 31.7282 28.9746 31.8173 28.9506C31.9065 28.9266 31.9995 28.9205 32.0911 28.9324C32.1826 28.9444 32.2709 28.9743 32.3509 29.0204C32.4309 29.0665 32.5011 29.1279 32.5574 29.2011C32.6136 29.2743 32.6549 29.3579 32.6789 29.4471C32.7029 29.5363 32.709 29.6293 32.6971 29.7208C32.6851 29.8124 32.6552 29.9007 32.6091 29.9807C32.563 30.0607 32.5016 30.1308 32.4284 30.1871L32.2004 30.3623C32.1882 30.3717 32.1559 30.3965 32.165 30.4519C32.1741 30.5072 32.2126 30.5204 32.2272 30.5254C32.3846 30.5793 32.5178 30.6873 32.6031 30.8303C32.6884 30.9732 32.7203 31.1417 32.693 31.3059C32.6658 31.4701 32.5811 31.6193 32.4542 31.727C32.3273 31.8347 32.1664 31.8938 31.9999 31.894Z" fill="#D88A55"/>
<path d="M17.9844 37.1371C17.9844 37.7214 18.2674 38.2394 18.7036 38.5623C18.9021 38.4489 19.1268 38.3892 19.3555 38.3892H19.7727V37.94C19.7727 36.8364 20.6706 35.9386 21.7741 35.9386H25.4448C26.5483 35.9386 27.4462 36.8364 27.4462 37.94V38.3892H27.8634C28.1004 38.3892 28.3226 38.4527 28.5152 38.5623C28.9514 38.2394 29.2345 37.7214 29.2345 37.1371C29.2345 36.5725 28.9695 36.0707 28.5582 35.7461C28.6973 35.5021 28.7703 35.226 28.7702 34.9451C28.7702 34.047 28.0422 33.319 27.1441 33.319H26.7702C25.9354 32.5601 24.8264 32.0977 23.6094 32.0977C22.3924 32.0977 21.2834 32.5602 20.4486 33.319H20.0746C19.1765 33.319 18.4485 34.0471 18.4485 34.9451C18.4485 35.2366 18.5262 35.5095 18.6605 35.7461C18.2493 36.0707 17.9844 36.5725 17.9844 37.1371Z" fill="#596C76"/>
<path d="M17.9844 37.1372C17.9844 37.6854 18.2335 38.1752 18.6244 38.5003C18.8447 38.3664 19.0976 38.2956 19.3554 38.2956H19.6789V37.9401C19.6789 36.847 20.516 35.95 21.584 35.8539C21.6237 35.8163 21.6645 35.7801 21.7075 35.7462C21.5446 35.4602 21.4727 35.1313 21.5016 34.8035C21.5743 33.9554 22.3138 33.3191 23.165 33.3191H23.3194C23.4279 33.3191 23.5341 33.2828 23.6169 33.2126C24.0639 32.8329 24.5781 32.5404 25.1329 32.3501C24.6425 32.1824 24.1277 32.0971 23.6095 32.0977C22.3925 32.0977 21.2835 32.5602 20.4487 33.319H20.1181C19.267 33.319 18.5275 33.9553 18.4547 34.8034C18.4259 35.1312 18.4978 35.4601 18.6606 35.7461C18.2493 36.0708 17.9844 36.5726 17.9844 37.1372Z" fill="#465A61"/>
<path d="M24.7034 44.1997H22.5157C22.3623 44.1997 22.2121 44.1865 22.0654 44.1621V45.442C22.0654 46.1005 22.5992 46.6343 23.2577 46.6343H23.9614C24.6199 46.6343 25.1537 46.1005 25.1537 45.442V44.1621C25.0049 44.187 24.8543 44.1995 24.7034 44.1997Z" fill="#D88A55"/>
<path d="M23.364 45.442V44.1997H22.5157C22.3623 44.1997 22.2121 44.1865 22.0654 44.1621V45.442C22.0654 46.1005 22.5992 46.6343 23.2577 46.6343H23.9614C24.0644 46.6343 24.1636 46.6199 24.2589 46.5954C23.7445 46.463 23.364 45.9975 23.364 45.442Z" fill="#C57A44"/>
<path d="M27.8633 38.2969H27.4461V41.4583C27.4461 41.5985 27.4354 41.7362 27.415 41.8707H27.8634C28.6461 41.8707 29.2805 41.2362 29.2805 40.4535V39.714C29.2804 38.9314 28.6459 38.2969 27.8633 38.2969Z" fill="#D88A55"/>
<path d="M19.773 41.4583V38.2969H19.3557C18.573 38.2969 17.9385 38.9314 17.9385 39.714V40.4535C17.9385 41.2362 18.573 41.8707 19.3557 41.8707H19.804C19.7834 41.7342 19.773 41.5964 19.773 41.4583Z" fill="#C57A44"/>
<path d="M24.7031 44.2945H22.5154C20.9487 44.2945 19.6787 43.0244 19.6787 41.4578V37.9408C19.6787 36.7838 20.6167 35.8457 21.7738 35.8457H25.4446C26.6017 35.8457 27.5397 36.7837 27.5397 37.9408V41.4578C27.5397 43.0244 26.2697 44.2945 24.7031 44.2945Z" fill="#EA9B58"/>
<path d="M21.5154 41.4578V37.9408C21.5154 36.7838 22.4533 35.8457 23.6105 35.8457H21.7738C20.6168 35.8457 19.6787 36.7837 19.6787 37.9408V41.4578C19.6787 43.0244 20.9487 44.2945 22.5154 44.2945H24.3521C22.7854 44.2945 21.5154 43.0244 21.5154 41.4578Z" fill="#D88A55"/>
<path d="M23.6092 43.0867C23.0994 43.0867 22.6056 42.9089 22.2128 42.5839C22.0691 42.465 21.9785 42.2939 21.9609 42.1083C21.9434 41.9226 22.0003 41.7376 22.1191 41.5939C22.238 41.4502 22.4091 41.3596 22.5947 41.342C22.7804 41.3245 22.9654 41.3814 23.1091 41.5002C23.2559 41.6222 23.4423 41.6861 23.633 41.68C23.8075 41.6752 23.9753 41.6119 24.1094 41.5002C24.1805 41.4414 24.2625 41.3971 24.3508 41.3699C24.439 41.3428 24.5318 41.3333 24.6237 41.3419C24.7156 41.3506 24.805 41.3773 24.8866 41.4205C24.9682 41.4637 25.0405 41.5226 25.0994 41.5937C25.1582 41.6648 25.2025 41.7469 25.2297 41.8351C25.2568 41.9234 25.2663 42.0161 25.2577 42.1081C25.249 42.2 25.2223 42.2893 25.1791 42.3709C25.1359 42.4525 25.077 42.5248 25.0059 42.5837C24.6126 42.9081 24.119 43.0859 23.6092 43.0867ZM21.4346 39.8542C21.2481 39.8542 21.0692 39.7801 20.9374 39.6482C20.8055 39.5164 20.7314 39.3375 20.7314 39.151V38.541C20.7314 38.3545 20.8055 38.1757 20.9374 38.0438C21.0692 37.912 21.2481 37.8379 21.4346 37.8379C21.6211 37.8379 21.7999 37.912 21.9318 38.0438C22.0636 38.1757 22.1377 38.3545 22.1377 38.541V39.151C22.1377 39.3375 22.0636 39.5164 21.9318 39.6482C21.7999 39.7801 21.6211 39.8542 21.4346 39.8542ZM25.784 39.8542C25.5975 39.8542 25.4187 39.7801 25.2868 39.6482C25.155 39.5164 25.0809 39.3375 25.0809 39.151V38.541C25.0809 38.3545 25.155 38.1757 25.2868 38.0438C25.4187 37.912 25.5975 37.8379 25.784 37.8379C25.9705 37.8379 26.1493 37.912 26.2812 38.0438C26.4131 38.1757 26.4871 38.3545 26.4871 38.541V39.151C26.4871 39.3375 26.4131 39.5164 26.2812 39.6482C26.1493 39.7801 25.9705 39.8542 25.784 39.8542ZM23.6089 41.1009C23.4433 41.101 23.2831 41.0425 23.1566 40.9357L23.1176 40.9029C22.5584 40.432 22.4002 39.6211 22.7414 38.9748L22.9874 38.5084C23.0745 38.3435 23.2235 38.2199 23.4017 38.1648C23.5798 38.1097 23.7726 38.1277 23.9375 38.2148C24.1024 38.3018 24.226 38.4508 24.2811 38.629C24.3362 38.8072 24.3182 38.9999 24.2311 39.1648L23.985 39.6311C23.9504 39.6969 23.9665 39.7793 24.0233 39.8271L24.0621 39.8598C24.1725 39.9527 24.2516 40.0773 24.2887 40.2166C24.3259 40.356 24.3193 40.5034 24.2698 40.6389C24.2203 40.7744 24.1304 40.8914 24.0122 40.974C23.8939 41.0567 23.7532 41.1009 23.6089 41.1009Z" fill="#BB5D4C"/>
<path d="M41.4846 44.1997H39.297C39.1436 44.1997 38.9933 44.1865 38.8467 44.1621V45.442C38.8467 46.1005 39.3805 46.6343 40.039 46.6343H40.7427C41.4012 46.6343 41.935 46.1005 41.935 45.442V44.1621C41.7862 44.187 41.6355 44.1995 41.4846 44.1997Z" fill="#FFBD86"/>
<path d="M40.1454 45.4435V44.2013H39.2972C39.1438 44.2013 38.9935 44.188 38.8469 44.1637V45.4435C38.8469 46.102 39.3807 46.6358 40.0392 46.6358H40.7429C40.8458 46.6358 40.9451 46.6214 41.0404 46.5969C40.5259 46.4646 40.1454 45.9991 40.1454 45.4435ZM36.5542 41.4583V38.2969H36.1369C35.3542 38.2969 34.7197 38.9314 34.7197 39.714V40.4535C34.7197 41.2362 35.3542 41.8707 36.1369 41.8707H36.5853C36.5646 41.7342 36.5542 41.5964 36.5542 41.4583Z" fill="#F6A96C"/>
<path d="M44.6445 38.2969H44.2273V41.4583C44.2273 41.5985 44.2166 41.7362 44.1963 41.8707H44.6446C45.4273 41.8707 46.0617 41.2362 46.0617 40.4535V39.714C46.0616 38.9314 45.4271 38.2969 44.6445 38.2969Z" fill="#FFBD86"/>
<path d="M41.4843 44.2945H39.2966C37.73 44.2945 36.46 43.0244 36.46 41.4578V37.9408C36.46 36.7838 37.3979 35.8457 38.5551 35.8457H42.2259C43.3829 35.8457 44.321 36.7837 44.321 37.9408V41.4578C44.321 43.0244 43.051 44.2945 41.4843 44.2945Z" fill="#FED2A4"/>
<path d="M38.2966 41.4578V37.9408C38.2966 36.7838 39.2346 35.8457 40.3917 35.8457H38.5551C37.398 35.8457 36.46 36.7837 36.46 37.9408V41.4578C36.46 43.0244 37.73 44.2945 39.2966 44.2945H41.1333C39.5666 44.2945 38.2966 43.0244 38.2966 41.4578Z" fill="#FFBD86"/>
<path d="M40.3904 43.0867C39.8806 43.0867 39.3868 42.9089 38.994 42.5839C38.8503 42.465 38.7597 42.2939 38.7422 42.1083C38.7246 41.9226 38.7815 41.7376 38.9004 41.5939C39.0192 41.4502 39.1903 41.3596 39.376 41.342C39.5616 41.3245 39.7467 41.3814 39.8904 41.5002C40.0371 41.6222 40.2235 41.6861 40.4143 41.68C40.5887 41.6752 40.7565 41.6119 40.8906 41.5002C41.0343 41.3813 41.2193 41.3244 41.405 41.3419C41.5906 41.3595 41.7617 41.45 41.8806 41.5937C41.9995 41.7374 42.0564 41.9224 42.0389 42.1081C42.0214 42.2937 41.9308 42.4648 41.7871 42.5837C41.3939 42.9081 40.9002 43.0859 40.3904 43.0867ZM38.2158 39.8542C38.0293 39.8542 37.8505 39.7801 37.7186 39.6482C37.5868 39.5164 37.5127 39.3375 37.5127 39.151V38.541C37.5127 38.3545 37.5868 38.1757 37.7186 38.0438C37.8505 37.912 38.0293 37.8379 38.2158 37.8379C38.4023 37.8379 38.5811 37.912 38.713 38.0438C38.8449 38.1757 38.9189 38.3545 38.9189 38.541V39.151C38.9189 39.3375 38.8449 39.5164 38.713 39.6482C38.5811 39.7801 38.4023 39.8542 38.2158 39.8542ZM42.5653 39.8542C42.3788 39.8542 42.1999 39.7801 42.0681 39.6482C41.9362 39.5164 41.8621 39.3375 41.8621 39.151V38.541C41.8621 38.3545 41.9362 38.1757 42.0681 38.0438C42.1999 37.912 42.3788 37.8379 42.5653 37.8379C42.7517 37.8379 42.9306 37.912 43.0624 38.0438C43.1943 38.1757 43.2684 38.3545 43.2684 38.541V39.151C43.2684 39.3375 43.1943 39.5164 43.0624 39.6482C42.9306 39.7801 42.7517 39.8542 42.5653 39.8542ZM40.3902 41.1009C40.2245 41.101 40.0642 41.0424 39.9376 40.9356L39.3673 40.4552C39.2445 40.3518 39.1608 40.2095 39.1301 40.052C39.0993 39.8945 39.1234 39.7312 39.1983 39.5892L39.7687 38.5084C39.8569 38.3456 40.0057 38.2241 40.1829 38.1703C40.3601 38.1166 40.5514 38.135 40.7152 38.2214C40.8789 38.3078 41.002 38.4554 41.0576 38.632C41.1133 38.8086 41.097 39 41.0123 39.1647L40.7063 39.7445L40.8433 39.8599C40.9537 39.9528 41.0328 40.0773 41.0699 40.2167C41.107 40.3561 41.1004 40.5035 41.0509 40.6389C41.0015 40.7744 40.9115 40.8914 40.7933 40.974C40.6751 41.0566 40.5344 41.1009 40.3902 41.1009Z" fill="#D88A55"/>
</g>
<defs>
<clipPath id="clip0_68_4646">
<rect width="48" height="48" fill="white" transform="translate(8 8)"/>
</clipPath>
</defs>
</svg>
