<svg width="25" height="24" viewBox="0 0 25 24" fill="none" xmlns="http://www.w3.org/2000/svg">
<path d="M3.67871 23.2508C2.19288 21.7178 1.32841 19.6882 1.25253 17.5547C1.17664 15.4211 1.89473 13.3352 3.26788 11.7005C4.64103 10.0658 6.57166 8.99849 8.68628 8.70497C10.8009 8.41146 12.9492 8.91264 14.7157 10.1116L16.5656 11.8077C16.9898 12.3281 17.3517 12.8964 17.6441 13.5008L16.9998 22.1127C16.723 22.5177 16.4123 22.8984 16.071 23.2508H3.67871Z" fill="#2D9739"/>
<path d="M17.644 13.5009C17.3517 12.8965 16.9897 12.3283 16.5655 11.8078L14.7156 10.1113L14.683 10.0892C13.5931 9.36243 12.3124 8.97461 11.0024 8.97461C9.69238 8.97461 8.4117 9.36243 7.32177 10.0892C6.27349 10.7922 5.3923 11.7168 4.74039 12.7977C4.08849 13.8785 3.68175 15.0892 3.54889 16.3444C3.41603 17.5996 3.56029 18.8687 3.97148 20.0621C4.38267 21.2554 5.05078 22.344 5.92864 23.2509H16.0709C16.4122 22.8986 16.7229 22.5178 16.9998 22.1128L17.644 13.5009Z" fill="#44BC59"/>
<path d="M17.1775 12.6613C16.9911 12.3647 16.7868 12.0797 16.5658 11.8078L15.7382 11.0488C15.3399 11.3209 14.9079 11.5401 14.4531 11.701L12.8136 12.2597C12.7214 12.2919 12.6416 12.3522 12.5853 12.4321C12.5291 12.512 12.4993 12.6075 12.5001 12.7052V15.2815C12.4984 15.3637 12.5189 15.4448 12.5594 15.5164C12.5999 15.588 12.6589 15.6474 12.7302 15.6883C12.8016 15.7292 12.8826 15.7502 12.9648 15.749C13.0471 15.7478 13.1275 15.7245 13.1976 15.6816L14.845 14.6518C15.7129 14.1023 16.4983 13.4321 17.1775 12.6613Z" fill="#2D9739"/>
<path d="M11.75 7.125H8C7.58579 7.125 7.25 7.46079 7.25 7.875C7.25 8.28921 7.58579 8.625 8 8.625H11.75C12.1642 8.625 12.5 8.28921 12.5 7.875C12.5 7.46079 12.1642 7.125 11.75 7.125Z" fill="#FFC239"/>
<path d="M9.875 20.625C12.3603 20.625 14.375 18.6103 14.375 16.125C14.375 13.6397 12.3603 11.625 9.875 11.625C7.38972 11.625 5.375 13.6397 5.375 16.125C5.375 18.6103 7.38972 20.625 9.875 20.625Z" fill="#ABE4A3"/>
<path d="M9.87446 11.625C9.00209 11.6243 8.14856 11.8788 7.41896 12.357C6.85318 13.2213 6.60225 14.2541 6.70836 15.2816C6.81447 16.3092 7.27115 17.2689 8.00161 17.9994C8.73207 18.7298 9.69176 19.1865 10.7193 19.2926C11.7469 19.3987 12.7796 19.1478 13.644 18.582C14.0877 17.9032 14.3396 17.1171 14.373 16.3069C14.4064 15.4966 14.2201 14.6925 13.8337 13.9795C13.4474 13.2665 12.8755 12.6712 12.1785 12.2567C11.4815 11.8423 10.6854 11.624 9.87446 11.625Z" fill="#CDF8C8"/>
<path d="M8.00013 7.125L6.95763 5.25C6.70076 4.62675 7.05101 3.75 7.62513 3.75H12.1251C12.6993 3.75 13.0495 4.62675 12.7926 5.25L11.7501 7.125H8.00013ZM9.87513 15.75C9.7268 15.75 9.58179 15.706 9.45846 15.6236C9.33512 15.5412 9.23899 15.4241 9.18222 15.287C9.12546 15.15 9.11061 14.9992 9.13954 14.8537C9.16848 14.7082 9.23991 14.5746 9.3448 14.4697C9.44969 14.3648 9.58333 14.2934 9.72882 14.2644C9.8743 14.2355 10.0251 14.2503 10.1621 14.3071C10.2992 14.3639 10.4163 14.46 10.4987 14.5833C10.5811 14.7067 10.6251 14.8517 10.6251 15H11.3751C11.3739 14.6684 11.2628 14.3466 11.0593 14.0848C10.8557 13.8231 10.5712 13.6361 10.2501 13.5532V13.125H9.50013V13.5532C9.14702 13.6441 8.83922 13.8608 8.6345 14.1625C8.42978 14.4642 8.34222 14.8303 8.38825 15.192C8.43428 15.5537 8.61073 15.8862 8.8845 16.127C9.15826 16.3678 9.51051 16.5005 9.87513 16.5C10.0235 16.5 10.1685 16.544 10.2918 16.6264C10.4151 16.7088 10.5113 16.8259 10.568 16.963C10.6248 17.1 10.6397 17.2508 10.6107 17.3963C10.5818 17.5418 10.5104 17.6754 10.4055 17.7803C10.3006 17.8852 10.1669 17.9566 10.0215 17.9856C9.87597 18.0145 9.72516 17.9997 9.58812 17.9429C9.45108 17.8861 9.33394 17.79 9.25153 17.6667C9.16912 17.5433 9.12513 17.3983 9.12513 17.25H8.37513C8.37638 17.5816 8.48745 17.9034 8.69099 18.1652C8.89454 18.4269 9.17908 18.6139 9.50013 18.6968V19.125H10.2501V18.6968C10.6032 18.6059 10.911 18.3892 11.1158 18.0875C11.3205 17.7858 11.4081 17.4197 11.362 17.058C11.316 16.6963 11.1395 16.3638 10.8658 16.123C10.592 15.8822 10.2398 15.7495 9.87513 15.75Z" fill="#2D9739"/>
<path d="M1.25 22.875H23.75V23.625H1.25V22.875ZM14.375 16.125H15.875V22.125H14.375V16.125ZM17 13.5H18.5V22.125H17V13.5ZM19.625 10.875H21.125V22.125H19.625V10.875Z" fill="#FFC239"/>
<path d="M14.2354 15.0313C13.9821 14.0206 13.3856 13.1294 12.5479 12.5098C12.5185 12.5704 12.5025 12.6366 12.5011 12.704V15.2803C12.4994 15.3625 12.5199 15.4436 12.5604 15.5152C12.6009 15.5868 12.6599 15.6462 12.7312 15.6871C12.8025 15.728 12.8836 15.749 12.9658 15.7478C13.048 15.7466 13.1284 15.7233 13.1986 15.6804L14.2354 15.0313Z" fill="#ABE4A3"/>
<path d="M22.25 8.625H23.75V22.125H22.25V8.625ZM11.75 17.625H13.25V22.125H11.75V17.625Z" fill="#FFC239"/>
<path d="M8.00002 7.125C7.87179 7.12577 7.74595 7.15975 7.63477 7.22363C7.6586 7.40332 7.74671 7.56831 7.8828 7.68806C8.01889 7.80781 8.19374 7.87422 8.37502 7.875H12.125C12.2532 7.87423 12.3791 7.84025 12.4903 7.77637C12.4664 7.59668 12.3783 7.43169 12.2422 7.31194C12.1061 7.19219 11.9313 7.12578 11.75 7.125H8.00002Z" fill="#FFD55D"/>
<path d="M12.7927 5.25012C13.0496 4.62687 12.6993 3.75012 12.1252 3.75012H8.23907C8.14892 3.74828 8.05966 3.76829 7.97892 3.80844C7.89818 3.84858 7.82836 3.90768 7.77541 3.98067C7.72246 4.05366 7.68797 4.13837 7.67487 4.22759C7.66177 4.3168 7.67046 4.40786 7.70019 4.49299L7.70319 4.50012L8.25857 5.49912C8.40636 5.76486 8.62255 5.98622 8.88472 6.14026C9.14689 6.29429 9.4455 6.37538 9.74957 6.37512H12.1672L12.7927 5.25012Z" fill="#44BC59"/>
<path d="M12.5 17.625V21C12.5 21.1989 12.579 21.3897 12.7197 21.5303C12.8603 21.671 13.0511 21.75 13.25 21.75V17.625H12.5ZM15.125 16.125V21C15.125 21.1989 15.204 21.3897 15.3447 21.5303C15.4853 21.671 15.6761 21.75 15.875 21.75V16.125H15.125ZM17.75 13.5V21C17.75 21.1989 17.829 21.3897 17.9697 21.5303C18.1103 21.671 18.3011 21.75 18.5 21.75V13.5H17.75ZM20.375 10.875V21C20.375 21.1989 20.454 21.3897 20.5947 21.5303C20.7353 21.671 20.9261 21.75 21.125 21.75V10.875H20.375ZM23 8.625V21C23 21.1989 23.079 21.3897 23.2197 21.5303C23.3603 21.671 23.5511 21.75 23.75 21.75V8.625H23Z" fill="#FFD55D"/>
<path d="M22.8145 5.35148C22.8328 5.41577 22.8336 5.48379 22.8169 5.54851C22.8001 5.61322 22.7663 5.67227 22.719 5.71954C22.6718 5.76681 22.6127 5.80059 22.548 5.81737C22.4833 5.83415 22.4153 5.83333 22.351 5.81498L20.3751 5.25061C19.4301 8.39198 17.5873 11.4464 14.845 13.1601L13.1976 14.1899C13.1275 14.2328 13.0471 14.2561 12.9648 14.2573C12.8826 14.2585 12.8016 14.2375 12.7302 14.1966C12.6589 14.1557 12.5999 14.0963 12.5594 14.0247C12.5189 13.9531 12.4984 13.872 12.5001 13.7897V11.2131C12.4995 11.1155 12.5294 11.0202 12.5856 10.9405C12.6418 10.8607 12.7215 10.8006 12.8136 10.7684L14.4531 10.2096C16.6468 9.46223 18.7967 7.19461 19.2501 4.87561L17.578 4.03973C17.5192 4.01036 17.4692 3.96605 17.4329 3.91125C17.3966 3.85644 17.3754 3.79307 17.3713 3.72748C17.3673 3.66189 17.3805 3.59639 17.4097 3.53753C17.439 3.47867 17.4831 3.42852 17.5378 3.39211L21.0722 1.03561C21.1213 1.00288 21.1775 0.9822 21.2361 0.975259C21.2947 0.968317 21.3541 0.975308 21.4095 0.995663C21.4649 1.01602 21.5147 1.04916 21.5549 1.0924C21.5951 1.13563 21.6245 1.18774 21.6407 1.24449L22.8145 5.35148Z" fill="#F3A606"/>
<path d="M13.1976 13.2179L14.845 12.1881C17.3923 10.5962 19.1635 7.84711 20.1602 4.94611C20.2232 4.76628 20.3528 4.61745 20.5223 4.53025C20.6917 4.44306 20.8881 4.42413 21.0711 4.47736L22.351 4.84299C22.4022 4.85779 22.456 4.8613 22.5087 4.85327C22.5614 4.84524 22.6117 4.82587 22.6562 4.79648L21.6407 1.24449C21.6245 1.18774 21.5951 1.13563 21.5549 1.0924C21.5147 1.04916 21.4649 1.01602 21.4095 0.995663C21.3541 0.975308 21.2947 0.968317 21.2361 0.975259C21.1775 0.9822 21.1213 1.00288 21.0722 1.03561L17.5378 3.39211C17.4831 3.42852 17.439 3.47867 17.4097 3.53753C17.3805 3.59639 17.3673 3.66189 17.3713 3.72748C17.3754 3.79307 17.3966 3.85644 17.4329 3.91125C17.4691 3.96605 17.5192 4.01036 17.578 4.03974L19.2501 4.87561C18.7967 7.19461 16.6468 9.46224 14.4531 10.21L12.8136 10.7687C12.7216 10.8009 12.6419 10.861 12.5857 10.9407C12.5295 11.0204 12.4995 11.1156 12.5001 11.2131V12.8181C12.4985 12.9003 12.519 12.9814 12.5595 13.0529C12.6 13.1245 12.6591 13.1838 12.7304 13.2247C12.8017 13.2655 12.8827 13.2865 12.9649 13.2853C13.0471 13.2841 13.1275 13.2608 13.1976 13.2179Z" fill="#FFC239"/>
</svg>
