<svg width="106" height="127" viewBox="0 0 106 127" fill="none" xmlns="http://www.w3.org/2000/svg">
<path fill-rule="evenodd" clip-rule="evenodd" d="M104 4H1.51465V124H104V4ZM98.3197 94.2959V28.142C98.3197 28.142 92.9342 25.6101 90.7457 22.6983C88.7243 20.0086 87.6688 14.6509 87.6688 14.6509C87.6688 14.6509 66.6704 7.55032 52.7576 7.55032C38.8447 7.55032 17.8463 14.6509 17.8463 14.6509C17.8463 14.6509 16.5078 19.9982 14.4144 22.6983C12.2509 25.4887 7.19543 28.142 7.19543 28.142V94.2959C7.19543 94.2959 7.19543 99.4372 15.2428 104.355C19.7949 107.137 28.1422 108.852 28.1422 108.852C28.1422 108.852 36.7176 111.501 42.3434 112.639C52.8759 114.769 52.8759 120.213 52.8759 120.213C52.8759 120.213 53.3493 114.296 62.6984 112.639C68.4118 111.627 77.2546 108.852 77.2546 108.852C77.2546 108.852 85.6067 107.031 90.2724 104.355C98.3197 99.7397 98.3197 94.2959 98.3197 94.2959Z" fill="white"/>
<g filter="url(#filter0_d_4378_3586)">
<path d="M98.3196 27.392V93.5459C98.3196 93.5459 98.3196 98.9896 90.2722 103.605C85.6066 106.281 77.2545 108.102 77.2545 108.102C77.2545 108.102 68.4117 110.877 62.6983 111.889C53.3492 113.546 52.8758 119.463 52.8758 119.463C52.8758 119.463 52.8758 114.019 42.3432 111.889C36.7174 110.751 28.1421 108.102 28.1421 108.102C28.1421 108.102 19.7948 106.387 15.2427 103.605C7.19531 98.6872 7.19531 93.5459 7.19531 93.5459V27.392C7.19531 27.392 12.2508 24.7387 14.4142 21.9482C16.5076 19.2481 17.8462 13.9009 17.8462 13.9009C17.8462 13.9009 38.8446 6.80029 52.7574 6.80029C66.6703 6.80029 87.6687 13.9009 87.6687 13.9009C87.6687 13.9009 88.7242 19.2586 90.7456 21.9482C92.9341 24.8601 98.3196 27.392 98.3196 27.392Z" stroke="#1A9D56" stroke-width="1.5" stroke-linejoin="round" shape-rendering="crispEdges"/>
</g>
<defs>
<filter id="filter0_d_4378_3586" x="0.445312" y="0.800293" width="104.624" height="126.163" filterUnits="userSpaceOnUse" color-interpolation-filters="sRGB">
<feFlood flood-opacity="0" result="BackgroundImageFix"/>
<feColorMatrix in="SourceAlpha" type="matrix" values="0 0 0 0 0 0 0 0 0 0 0 0 0 0 0 0 0 0 127 0" result="hardAlpha"/>
<feMorphology radius="3" operator="dilate" in="SourceAlpha" result="effect1_dropShadow_4378_3586"/>
<feOffset dy="0.75"/>
<feGaussianBlur stdDeviation="1.5"/>
<feComposite in2="hardAlpha" operator="out"/>
<feColorMatrix type="matrix" values="0 0 0 0 0 0 0 0 0 0 0 0 0 0 0 0 0 0 0.27 0"/>
<feBlend mode="normal" in2="BackgroundImageFix" result="effect1_dropShadow_4378_3586"/>
<feBlend mode="normal" in="SourceGraphic" in2="effect1_dropShadow_4378_3586" result="shape"/>
</filter>
</defs>
</svg>
